<?xml version="1.0" encoding="UTF-8"?>
<svg version="1.1" xmlns="http://www.w3.org/2000/svg" width="200" height="200">
<path d="M0 0 C66 0 132 0 200 0 C200 66 200 132 200 200 C134 200 68 200 0 200 C0 134 0 68 0 0 Z " fill="#071A4B" transform="translate(0,0)"/>
<path d="M0 0 C0.66 0 1.32 0 2 0 C2.3717334 0.66829834 2.7434668 1.33659668 3.12646484 2.02514648 C11.87641838 17.7891871 11.87641838 17.7891871 20.9375 33.375 C25.57371722 41.1593019 29.96254309 49.07717261 34.34567261 57.00585938 C39.11623413 65.63516888 43.94532769 74.22630966 48.88037109 82.76269531 C52.72931154 89.44392794 56.33837207 96.19983385 60 103 C44.49 103 28.98 103 13 103 C20 89 20 89 21 88 C23.01964199 87.92755947 25.04167124 87.91622812 27.0625 87.9375 C28.16722656 87.94652344 29.27195313 87.95554687 30.41015625 87.96484375 C31.26480469 87.97644531 32.11945313 87.98804687 33 88 C25.64258371 74.29012267 18.02288454 60.76353875 10.12890625 47.35546875 C8.09740643 43.88931147 6.07391761 40.41934018 4.08984375 36.92578125 C3.68499756 36.21462158 3.28015137 35.50346191 2.86303711 34.77075195 C2 33 2 33 2 31 C1.34 31 0.68 31 0 31 C-0.26280762 31.86963379 -0.52561523 32.73926758 -0.79638672 33.63525391 C-1.99489368 36.9857251 -3.4489645 39.77733996 -5.2578125 42.8359375 C-6.19560547 44.43115234 -6.19560547 44.43115234 -7.15234375 46.05859375 C-7.80332031 47.15300781 -8.45429687 48.24742188 -9.125 49.375 C-9.78371094 50.49261719 -10.44242188 51.61023438 -11.12109375 52.76171875 C-12.74236876 55.51083725 -14.36880013 58.25676282 -16 61 C-18.64954547 58.44688594 -20.46042825 55.88331833 -22.3125 52.6875 C-22.86550781 51.76324219 -23.41851562 50.83898437 -23.98828125 49.88671875 C-25.31146176 46.1113118 -24.44950744 44.67626643 -23 41 C-22.0667264 39.14476723 -21.08361389 37.31397472 -20.05859375 35.5078125 C-19.47867676 34.47970459 -18.89875977 33.45159668 -18.30126953 32.39233398 C-17.68622559 31.31411377 -17.07118164 30.23589355 -16.4375 29.125 C-15.81214355 28.01906494 -15.18678711 26.91312988 -14.54248047 25.77368164 C-13.28641365 23.55286374 -12.02830518 21.33319921 -10.76806641 19.11474609 C-8.37361231 14.89651282 -5.99909792 10.66720903 -3.625 6.4375 C-2.41733458 4.29128969 -1.20871091 2.14562176 0 0 Z " fill="#F8FAFA" transform="translate(99,34)"/>
<path d="M0 0 C0.66 0 1.32 0 2 0 C2.37286133 0.70084717 2.74572266 1.40169434 3.12988281 2.1237793 C4.83127612 5.31455183 6.54054826 8.50103803 8.25 11.6875 C8.83652344 12.79029297 9.42304687 13.89308594 10.02734375 15.02929688 C10.60097656 16.09599609 11.17460938 17.16269531 11.765625 18.26171875 C12.28930664 19.24100342 12.81298828 20.22028809 13.35253906 21.22924805 C15.02521623 24.04240945 16.89782648 26.49617545 19 29 C19.53625 27.88625 20.0725 26.7725 20.625 25.625 C22.68048015 21.5068021 25.01160969 17.60372442 27.40625 13.67578125 C30.07596879 9.19353279 32.53529218 4.59729189 35 0 C35.66 0 36.32 0 37 0 C38.39820138 2.21731936 39.76763358 4.44538154 41.125 6.6875 C41.52332031 7.31333984 41.92164063 7.93917969 42.33203125 8.58398438 C43.4453125 10.44921875 43.4453125 10.44921875 45 14 C43.83665591 17.88465919 41.80304416 21.33235475 39.83984375 24.8671875 C39.214729 25.99406982 38.58961426 27.12095215 37.94555664 28.28198242 C37.27644271 29.47978809 36.60708643 30.6774584 35.9375 31.875 C35.60185028 32.47760651 35.26620056 33.08021301 34.92037964 33.70108032 C29.79085591 42.90893675 24.54221806 52.033322 19 61 C16.14610365 58.46902324 14.50095208 55.62237699 12.64453125 52.30859375 C12.02255859 51.19935547 11.40058594 50.09011719 10.75976562 48.94726562 C10.44048096 48.37145752 10.12119629 47.79564941 9.79223633 47.20239258 C8.81181853 45.43627241 7.82155671 43.67594532 6.83007812 41.91601562 C2 33.25813836 2 33.25813836 2 31 C1.34 31 0.68 31 0 31 C-0.268125 31.9075 -0.53625 32.815 -0.8125 33.75 C-2.68169273 38.86568537 -2.68169273 38.86568537 -5 41 C-7.90721089 41.50237594 -10.74848933 41.37537207 -13.6875 41.25 C-14.88342773 41.22292969 -14.88342773 41.22292969 -16.10351562 41.1953125 C-18.06952449 41.14822247 -20.03491494 41.07647899 -22 41 C-20.39550209 35.12328475 -17.42543586 30.21624532 -14.375 25 C-13.29425295 23.13152076 -12.21352385 21.26303114 -11.1328125 19.39453125 C-10.60204102 18.4813916 -10.07126953 17.56825195 -9.52441406 16.62744141 C-7.41468079 12.99115866 -5.33105622 9.34024269 -3.25 5.6875 C-2.16666667 3.79166667 -1.08333333 1.89583333 0 0 Z " fill="#F8FAFA" transform="translate(64,96)"/>
<path d="M0 0 C2.54145265 0.89698329 4.18169117 1.87609505 6.125 3.75 C6.125 5.07 6.125 6.39 6.125 7.75 C7.0840625 8.12125 7.0840625 8.12125 8.0625 8.5 C10.125 9.75 10.125 9.75 10.875 11.75 C11.125 13.75 11.125 13.75 11.125 15.75 C11.785 15.75 12.445 15.75 13.125 15.75 C13.125 17.07 13.125 18.39 13.125 19.75 C14.445 19.42 15.765 19.09 17.125 18.75 C17.24875 19.41 17.3725 20.07 17.5 20.75 C17.70625 21.74 17.9125 22.73 18.125 23.75 C18.2590625 24.43578125 18.393125 25.1215625 18.53125 25.828125 C18.96251331 27.82631168 19.53760455 29.79201516 20.125 31.75 C23.125 33.08333333 23.125 33.08333333 26.125 31.75 C27.05923645 34.76031744 27.16949911 35.61650268 26.125 38.75 C26.21906754 41.04453495 26.21906754 41.04453495 26.5625 43.4375 C26.71525391 44.64986328 26.71525391 44.64986328 26.87109375 45.88671875 C26.95488281 46.50160156 27.03867188 47.11648437 27.125 47.75 C27.888125 47.688125 28.65125 47.62625 29.4375 47.5625 C32.125 47.75 32.125 47.75 33.875 48.875 C35.56772373 51.41408559 35.66207335 53.74097679 36.125 56.75 C37.7133917 61.7142236 37.7133917 61.7142236 41.3125 65.1875 C41.910625 65.373125 42.50875 65.55875 43.125 65.75 C42.465 65.75 41.805 65.75 41.125 65.75 C41.41375 66.42546875 41.7025 67.1009375 42 67.796875 C42.37125 68.68890625 42.7425 69.5809375 43.125 70.5 C43.681875 71.82257813 43.681875 71.82257813 44.25 73.171875 C45.125 75.75 45.125 75.75 45.125 79.75 C46.115 79.42 47.105 79.09 48.125 78.75 C49.125 79.75 49.125 79.75 49.5625 83.0625 C50.03973064 86.19101199 50.52960685 88.09101141 52.125 90.75 C51.135 91.245 51.135 91.245 50.125 91.75 C48.7030903 89.21087554 47.28119741 86.6717417 45.859375 84.13256836 C44.60183903 81.88713352 43.34401872 79.6418579 42.0859375 77.39672852 C38.9074032 71.72389879 35.73277964 66.04899821 32.5703125 60.3671875 C25.08717978 46.93646597 17.42530695 33.62176558 9.65234375 20.35693359 C7.51030608 16.70081495 5.37156936 13.04303804 3.25 9.375 C2.63382813 8.31539062 2.01765625 7.25578125 1.3828125 6.1640625 C0.125 3.75 0.125 3.75 0.125 1.75 C-0.535 1.75 -1.195 1.75 -1.875 1.75 C-2.2779126 3.07076538 -2.2779126 3.07076538 -2.68896484 4.41821289 C-3.81593504 7.58407586 -5.13185826 10.18142671 -6.8515625 13.05859375 C-7.43679687 14.04617676 -8.02203125 15.03375977 -8.625 16.05126953 C-9.24375 17.08622559 -9.8625 18.12118164 -10.5 19.1875 C-11.76453007 21.3389574 -13.02755414 23.49130068 -14.2890625 25.64453125 C-15.97135789 28.51045109 -17.65370862 31.37621287 -19.34667969 34.23583984 C-20.54370382 36.27114007 -21.71385772 38.31908886 -22.875 40.375 C-23.514375 41.48101562 -24.15375 42.58703125 -24.8125 43.7265625 C-26.16790579 47.58348927 -25.57553505 49.09335815 -23.875 52.75 C-23.04358015 54.39772298 -22.17089022 56.0255591 -21.25 57.625 C-20.58097656 58.79675781 -20.58097656 58.79675781 -19.8984375 59.9921875 C-19.56070313 60.57226562 -19.22296875 61.15234375 -18.875 61.75 C-16.66833044 58.91698675 -14.80293972 56.02613529 -13.02734375 52.90625 C-12.50462891 51.98972656 -11.98191406 51.07320312 -11.44335938 50.12890625 C-10.90517578 49.17886719 -10.36699219 48.22882813 -9.8125 47.25 C-9.27044922 46.29996094 -8.72839844 45.34992188 -8.16992188 44.37109375 C-5.986984 40.534088 -3.81549538 36.71657568 -1.875 32.75 C-1.215 32.75 -0.555 32.75 0.125 32.75 C1.65564939 35.36970793 3.17469748 37.99501643 4.6875 40.625 C5.12513672 41.37136719 5.56277344 42.11773437 6.01367188 42.88671875 C6.62758789 43.95986328 6.62758789 43.95986328 7.25390625 45.0546875 C7.63619385 45.71452637 8.01848145 46.37436523 8.41235352 47.05419922 C8.64752686 47.61381348 8.8827002 48.17342773 9.125 48.75 C8.63 49.74 8.63 49.74 8.125 50.75 C7.465 50.75 6.805 50.75 6.125 50.75 C6.125 50.09 6.125 49.43 6.125 48.75 C5.135 48.42 4.145 48.09 3.125 47.75 C1.4375 46.1875 1.4375 46.1875 0.125 44.75 C-4.77145053 50.05992858 -9.51290121 55.34839573 -13.68359375 61.25390625 C-14.875 62.75 -14.875 62.75 -16.875 63.75 C-22.41346154 63.98076923 -22.41346154 63.98076923 -24.875 62.75 C-25.25372934 61.09305915 -25.57750054 59.42343448 -25.875 57.75 C-26.37 56.265 -26.37 56.265 -26.875 54.75 C-28.83159252 48.88022243 -28.80090719 44.81983605 -27.875 38.75 C-27.215 38.75 -26.555 38.75 -25.875 38.75 C-25.6275 37.780625 -25.38 36.81125 -25.125 35.8125 C-24.7125 34.801875 -24.3 33.79125 -23.875 32.75 C-21.75 31.875 -21.75 31.875 -19.875 31.75 C-19.7925 30.533125 -19.71 29.31625 -19.625 28.0625 C-18.97294451 22.85523998 -16.50511419 20.28422512 -12.75 16.75 C-10.67789648 14.53975625 -9.82611182 12.60333546 -8.875 9.75 C-8.215 9.75 -7.555 9.75 -6.875 9.75 C-6.68164062 9.11191406 -6.48828125 8.47382812 -6.2890625 7.81640625 C-6.02867188 6.99011719 -5.76828125 6.16382813 -5.5 5.3125 C-5.11714844 4.07693359 -5.11714844 4.07693359 -4.7265625 2.81640625 C-3.63933792 0.1781411 -2.84887356 -0.37984981 0 0 Z " fill="#1C3066" transform="translate(100.875,32.25)"/>
<path d="M0 0 C2.85174238 3.4085777 5.16292644 6.82413399 7.3125 10.7109375 C7.91320312 11.79117188 8.51390625 12.87140625 9.1328125 13.984375 C9.74898437 15.10328125 10.36515625 16.2221875 11 17.375 C12.22896796 19.59125603 13.45812946 21.80740476 14.6875 24.0234375 C15.54601562 25.57949707 15.54601562 25.57949707 16.421875 27.16699219 C17.73165597 29.51827597 19.07289716 31.84447791 20.4375 34.1640625 C22 37 22 37 22 39 C21.21496094 38.92136719 20.42992187 38.84273437 19.62109375 38.76171875 C15.86285251 38.55595109 15.86285251 38.55595109 10 40 C6.535 46.435 6.535 46.435 3 53 C17.85 53 32.7 53 48 53 C46.02 49.7 44.04 46.4 42 43 C42 42.34 42 41.68 42 41 C44.9664161 41.3178303 46.01076795 42.0104603 48.1875 44.125 C50.32199208 47.51074606 50.77522447 50.02896566 51 54 C50.505 54.99 50.505 54.99 50 56 C47.21073964 56.92975345 45.53271733 57.12641415 42.65209961 57.12939453 C41.34075294 57.13412277 41.34075294 57.13412277 40.00291443 57.13894653 C39.0622261 57.1369223 38.12153778 57.13489807 37.15234375 57.1328125 C35.70088707 57.13424759 35.70088707 57.13424759 34.22010803 57.13571167 C32.17497696 57.13639214 30.12984372 57.13454712 28.0847168 57.13037109 C24.94640277 57.12501519 21.80823148 57.13032357 18.66992188 57.13671875 C16.68489552 57.13605806 14.69986925 57.13477708 12.71484375 57.1328125 C11.7721312 57.13483673 10.82941864 57.13686096 9.85813904 57.13894653 C8.55152061 57.13421829 8.55152061 57.13421829 7.21850586 57.12939453 C6.45034042 57.12859894 5.68217499 57.12780334 4.89073181 57.12698364 C3 57 3 57 1 56 C1.54336237 48.5287674 3.14422889 41.92716539 8.5 36.4375 C11 35 11 35 15 35 C15.33 34.01 15.66 33.02 16 32 C14.68 31.67 13.36 31.34 12 31 C11.89042969 30.38511719 11.78085938 29.77023438 11.66796875 29.13671875 C11.50941406 28.32847656 11.35085937 27.52023438 11.1875 26.6875 C11.03667969 25.88699219 10.88585937 25.08648437 10.73046875 24.26171875 C10.16998596 21.92767982 10.16998596 21.92767982 8.42578125 20.45703125 C7 19 7 19 7 15 C5.68 14.67 4.36 14.34 3 14 C0.88838269 4.58997722 0.88838269 4.58997722 0 0 Z " fill="#394465" transform="translate(110,83)"/>
<path d="M0 0 C1.32 0 2.64 0 4 0 C6.25 3 6.25 3 8 6 C10.35171131 5.40138258 12.6859378 4.73075648 15 4 C15.33 3.34 15.66 2.68 16 2 C16.103125 2.78375 16.20625 3.5675 16.3125 4.375 C16.77595022 7.33045181 16.77595022 7.33045181 20 9 C21.25 12.5 21.25 12.5 22 16 C21.67 16.66 21.34 17.32 21 18 C22.32 18.33 23.64 18.66 25 19 C24.67 20.32 24.34 21.64 24 23 C23.29875 23.12375 22.5975 23.2475 21.875 23.375 C18.91189396 23.95647478 18.91189396 23.95647478 15.8125 25.125 C13 26 13 26 11 25 C11 24.34 11 23.68 11 23 C10.38125 23.495 9.7625 23.99 9.125 24.5 C7 26 7 26 5 26 C4.731875 26.804375 4.46375 27.60875 4.1875 28.4375 C3.795625 29.283125 3.40375 30.12875 3 31 C2.01 31.33 1.02 31.66 0 32 C0 32.66 0 33.32 0 34 C-0.66 34 -1.32 34 -2 34 C-2.103125 34.763125 -2.20625 35.52625 -2.3125 36.3125 C-3.04364039 39.17059424 -3.76951913 40.15742885 -6 42 C-6 38.3371495 -4.97872735 36.96243567 -3.0859375 33.8515625 C-2.49039063 32.84609375 -1.89484375 31.840625 -1.28125 30.8046875 C-0.01178454 28.6871775 1.26686583 26.57514657 2.5546875 24.46875 C3.14765625 23.46070312 3.740625 22.45265625 4.3515625 21.4140625 C4.90666504 20.4957666 5.46176758 19.5774707 6.03369141 18.63134766 C7.28657436 16.01290136 7.28657436 16.01290136 6.24609375 13.31079102 C4.55322163 10.17148173 2.81638278 7.07152529 1.0234375 3.98828125 C0 2 0 2 0 0 Z " fill="#112251" transform="translate(101,96)"/>
<path d="M0 0 C4.75 0.75 4.75 0.75 7 3 C7.144375 3.886875 7.28875 4.77375 7.4375 5.6875 C8.08943371 9.5266652 9.20621346 12.5453 11 16 C13.0351761 17.4818964 13.0351761 17.4818964 15 18 C14.34 18 13.68 18 13 18 C13.28875 18.67546875 13.5775 19.3509375 13.875 20.046875 C14.24625 20.93890625 14.6175 21.8309375 15 22.75 C15.37125 23.63171875 15.7425 24.5134375 16.125 25.421875 C17 28 17 28 17 32 C17.99 31.67 18.98 31.34 20 31 C21 32 21 32 21.4375 35.3125 C21.91473064 38.44101199 22.40460685 40.34101141 24 43 C23.01 43.495 23.01 43.495 22 44 C21.59160889 43.26885986 21.18321777 42.53771973 20.76245117 41.78442383 C19.23670722 39.05376892 17.71026146 36.32350786 16.18334961 33.59350586 C15.20177404 31.83802811 14.22099827 30.08210323 13.24023438 28.32617188 C12.61826172 27.21435547 11.99628906 26.10253906 11.35546875 24.95703125 C10.78465576 23.93585205 10.21384277 22.91467285 9.62573242 21.86254883 C8.55809538 19.98268034 7.45759004 18.12103066 6.32226562 16.28125 C4.87460469 13.78366068 4.52577948 12.045445 4.3125 9.1875 C4.21388672 8.00220703 4.21388672 8.00220703 4.11328125 6.79296875 C4.07589844 6.20128906 4.03851563 5.60960938 4 5 C3.34 5 2.68 5 2 5 C1.34 3.35 0.68 1.7 0 0 Z " fill="#25356A" transform="translate(129,80)"/>
<path d="M0 0 C1.2065625 0.0309375 1.2065625 0.0309375 2.4375 0.0625 C2.89125 1.031875 3.345 2.00125 3.8125 3 C5.09536221 6.13329582 5.09536221 6.13329582 7.4375 7.0625 C8.18359375 8.734375 8.18359375 8.734375 8.875 10.8125 C9.79870394 13.46518824 10.66043226 15.41282213 12.1875 17.8125 C13.4375 20.0625 13.4375 20.0625 13.015625 22.203125 C12.72945312 23.12351562 12.72945312 23.12351562 12.4375 24.0625 C10.59734502 20.7746022 8.76654953 17.48158674 6.9375 14.1875 C6.41285156 13.25035156 5.88820313 12.31320313 5.34765625 11.34765625 C4.85136719 10.45175781 4.35507813 9.55585937 3.84375 8.6328125 C3.15249023 7.39168701 3.15249023 7.39168701 2.44726562 6.12548828 C1.4375 4.0625 1.4375 4.0625 1.4375 2.0625 C0.7775 2.0625 0.1175 2.0625 -0.5625 2.0625 C-0.81773438 2.74699219 -1.07296875 3.43148437 -1.3359375 4.13671875 C-2.75099108 7.51211726 -4.43508566 10.66224038 -6.1875 13.875 C-6.67476562 14.7712207 -6.67476562 14.7712207 -7.171875 15.68554688 C-7.96629151 17.14587135 -8.76405376 18.60437491 -9.5625 20.0625 C-10.79840089 16.35479733 -10.05809869 15.55223028 -8.5625 12.0625 C-8.19378912 10.40330104 -7.84968326 8.7377357 -7.5625 7.0625 C-6.9025 7.0625 -6.2425 7.0625 -5.5625 7.0625 C-5.253125 6.093125 -4.94375 5.12375 -4.625 4.125 C-3.22113454 0.07856426 -3.22113454 0.07856426 0 0 Z " fill="#1E2B50" transform="translate(64.5625,93.9375)"/>
<path d="M0 0 C0.99 0.33 1.98 0.66 3 1 C3.33 2.65 3.66 4.3 4 6 C3.34 6 2.68 6 2 6 C1.67 5.34 1.34 4.68 1 4 C0.38125 4.639375 -0.2375 5.27875 -0.875 5.9375 C-4.44330848 9.40085823 -6.7436765 9.11035611 -11.625 9.0625 C-12.81351563 9.05347656 -14.00203125 9.04445312 -15.2265625 9.03515625 C-16.14179687 9.02355469 -17.05703125 9.01195312 -18 9 C-18.33 9.66 -18.66 10.32 -19 11 C-19.99 10.34 -20.98 9.68 -22 9 C-22 8.34 -22 7.68 -22 7 C-22.66 7 -23.32 7 -24 7 C-23.67 6.01 -23.34 5.02 -23 4 C-23 4.66 -23 5.32 -23 6 C-16.73 6 -10.46 6 -4 6 C-4 5.34 -4 4.68 -4 4 C-2.70766393 2.62689293 -1.37562854 1.28965176 0 0 Z " fill="#171F37" transform="translate(64,132)"/>
<path d="M0 0 C0.66 0 1.32 0 2 0 C4.10577693 3.874127 6.20933491 7.74945456 8.3125 11.625 C8.90740234 12.71941406 9.50230469 13.81382812 10.11523438 14.94140625 C10.69208984 16.00488281 11.26894531 17.06835938 11.86328125 18.1640625 C12.65665894 19.62513428 12.65665894 19.62513428 13.46606445 21.11572266 C15.02834399 24.05329555 16.52448773 27.01803417 18 30 C17.01 30 16.02 30 15 30 C14.87625 29.13375 14.87625 29.13375 14.75 28.25 C14.14676036 25.86239736 14.14676036 25.86239736 12.125 24.1875 C9.44711821 21.43085698 8.4733871 18.52331697 7 15 C6.484375 14.484375 5.96875 13.96875 5.4375 13.4375 C3.30862413 11.30862413 2.82144385 8.84345949 2 6 C1.34 6 0.68 6 0 6 C-0.99 7.485 -0.99 7.485 -2 9 C-2.66 9 -3.32 9 -4 9 C-2.80100302 5.9168649 -1.52299523 2.93720508 0 0 Z " fill="#3F4658" transform="translate(64,127)"/>
<path d="M0 0 C3 3.75 3 3.75 3 6 C3.763125 6.20625 4.52625 6.4125 5.3125 6.625 C8.85034944 8.4350625 9.56345025 10.37082169 11 14 C11 14.66 11 15.32 11 16 C6.71 16 2.42 16 -2 16 C-1.34 14.68 -0.68 13.36 0 12 C1.32 12 2.64 12 4 12 C4.33 11.01 4.66 10.02 5 9 C3.68 8.67 2.36 8.34 1 8 C0.67 5.36 0.34 2.72 0 0 Z " fill="#182753" transform="translate(121,106)"/>
<path d="M0 0 C2 0.6875 2 0.6875 4 2.6875 C5.58663053 6.52881602 6.20808894 8.72908091 5 12.6875 C4.16151196 11.23212432 3.32936066 9.77309627 2.5 8.3125 C2.0359375 7.50039063 1.571875 6.68828125 1.09375 5.8515625 C0 3.6875 0 3.6875 0 1.6875 C-0.66 1.6875 -1.32 1.6875 -2 1.6875 C-2.24492188 2.52539062 -2.48984375 3.36328125 -2.7421875 4.2265625 C-4.161461 8.13176847 -6.01857766 11.49721271 -8.125 15.0625 C-8.49753906 15.70316406 -8.87007813 16.34382813 -9.25390625 17.00390625 C-10.16434002 18.56798477 -11.08148191 20.12815534 -12 21.6875 C-12.88336837 19.2207355 -13.1312406 18.04890628 -12.22265625 15.546875 C-11.83980469 14.85078125 -11.45695312 14.1546875 -11.0625 13.4375 C-10.68222656 12.73109375 -10.30195312 12.0246875 -9.91015625 11.296875 C-9.60980469 10.76578125 -9.30945313 10.2346875 -9 9.6875 C-8.34 9.6875 -7.68 9.6875 -7 9.6875 C-6.80664062 9.04941406 -6.61328125 8.41132812 -6.4140625 7.75390625 C-6.02347656 6.51447266 -6.02347656 6.51447266 -5.625 5.25 C-5.36976562 4.42628906 -5.11453125 3.60257813 -4.8515625 2.75390625 C-3.72903565 0.02997643 -2.91572297 -0.45558171 0 0 Z " fill="#3B4C7A" transform="translate(101,32.3125)"/>
<path d="M0 0 C0.66 0 1.32 0 2 0 C3.53064939 2.61970793 5.04969748 5.24501643 6.5625 7.875 C7.00013672 8.62136719 7.43777344 9.36773437 7.88867188 10.13671875 C8.29794922 10.85214844 8.70722656 11.56757812 9.12890625 12.3046875 C9.51119385 12.96452637 9.89348145 13.62436523 10.28735352 14.30419922 C10.52252686 14.86381348 10.7577002 15.42342773 11 16 C10.67 16.66 10.34 17.32 10 18 C9.34 18 8.68 18 8 18 C8 17.34 8 16.68 8 16 C7.01 15.67 6.02 15.34 5 15 C3.83203125 12.93359375 3.83203125 12.93359375 2.8125 10.4375 C2.29623047 9.19806641 2.29623047 9.19806641 1.76953125 7.93359375 C1.51558594 7.29550781 1.26164062 6.65742187 1 6 C0.01 6 -0.98 6 -2 6 C-1.34 4.02 -0.68 2.04 0 0 Z " fill="#2D3C6F" transform="translate(99,65)"/>
<path d="M0 0 C0.66 0 1.32 0 2 0 C-0.12610309 5.64552617 -3.07908729 10.72965751 -6 16 C-0.06 15.67 5.88 15.34 12 15 C12 15.66 12 16.32 12 17 C5.73 17 -0.54 17 -7 17 C-7.98484577 12.07577115 -8.03342293 11.18645898 -6 7 C-5.34 7 -4.68 7 -4 7 C-3.71125 6.21625 -3.4225 5.4325 -3.125 4.625 C-2 2 -2 2 0 0 Z " fill="#4F5566" transform="translate(48,121)"/>
<path d="M0 0 C1.32 0 2.64 0 4 0 C6.58854214 4.83780934 9.09021228 9.54127371 10 15 C8.625 18.4375 8.625 18.4375 7 21 C6.34 21 5.68 21 5 21 C5.474375 20.0925 5.94875 19.185 6.4375 18.25 C7.40358871 15.09238119 6.9992547 13.9983971 5.57421875 10.93359375 C4.28752237 8.79081881 2.96362177 6.66989682 1.6015625 4.57421875 C0 2 0 2 0 0 Z " fill="#2E3C60" transform="translate(101,96)"/>
<path d="M0 0 C0.66 0 1.32 0 2 0 C5.08284263 3.87036007 7.53198701 8.00786149 8 13 C8.99 12.67 9.98 12.34 11 12 C12 13 12 13 12.4375 16.3125 C12.91473064 19.44101199 13.40460685 21.34101141 15 24 C14.34 24.33 13.68 24.66 13 25 C10.82642556 21.21225306 8.6623228 17.41917971 6.5 13.625 C5.87996094 12.54476562 5.25992188 11.46453125 4.62109375 10.3515625 C4.03457031 9.3203125 3.44804687 8.2890625 2.84375 7.2265625 C2.02680664 5.79691162 2.02680664 5.79691162 1.19335938 4.33837891 C0 2 0 2 0 0 Z " fill="#414F75" transform="translate(138,99)"/>
<path d="M0 0 C0.66 0.33 1.32 0.66 2 1 C1.2575 1.99 0.515 2.98 -0.25 4 C-2.98570561 7.81128218 -4.9936829 11.76444169 -7 16 C-9.64107354 13.53258609 -10.79641403 11.42559084 -12 8 C-7.25 8.875 -7.25 8.875 -5 10 C-4.9175 9.0925 -4.835 8.185 -4.75 7.25 C-3.90751268 3.59922161 -2.82118382 2.36615417 0 0 Z " fill="#38425F" transform="translate(90,110)"/>
<path d="M0 0 C0.66 0 1.32 0 2 0 C2.60592613 4.95155263 0.48692983 8.23343097 -2 12.3125 C-2.57234375 13.28026367 -2.57234375 13.28026367 -3.15625 14.26757812 C-4.09447618 15.85083481 -5.04594311 17.42623205 -6 19 C-7.05794002 15.37599269 -6.80092653 14.31749623 -5 11 C-4.5359375 9.2675 -4.5359375 9.2675 -4.0625 7.5 C-3.08752519 4.28831827 -2.30101251 2.39688803 0 0 Z " fill="#27386B" transform="translate(86,51)"/>
<path d="M0 0 C0.99 0 1.98 0 3 0 C3.98163422 1.93625098 4.96022454 3.87404539 5.9375 5.8125 C6.48277344 6.89144531 7.02804688 7.97039062 7.58984375 9.08203125 C9 12 9 12 10 15 C10.66 15 11.32 15 12 15 C12.66 16.98 13.32 18.96 14 21 C13.34 21.33 12.68 21.66 12 22 C9.99654339 18.52281278 7.99781651 15.04293033 6 11.5625 C5.42765625 10.56927734 4.8553125 9.57605469 4.265625 8.55273438 C3.72421875 7.60849609 3.1828125 6.66425781 2.625 5.69140625 C2.12226562 4.81685791 1.61953125 3.94230957 1.1015625 3.04125977 C0 1 0 1 0 0 Z " fill="#3E4C77" transform="translate(121,70)"/>
<path d="M0 0 C0.33 0 0.66 0 1 0 C0.85950482 1.47968324 0.71245174 2.95874516 0.5625 4.4375 C0.48128906 5.26121094 0.40007813 6.08492187 0.31640625 6.93359375 C0 9 0 9 -1 10 C-2.68608966 10.07205511 -4.37500659 10.08386068 -6.0625 10.0625 C-6.98160156 10.05347656 -7.90070312 10.04445312 -8.84765625 10.03515625 C-9.55792969 10.02355469 -10.26820312 10.01195312 -11 10 C-8.98434501 7.82790612 -7.70539074 6.86171402 -4.9375 5.5625 C-1.88931172 3.94112325 -1.09802208 3.18426404 0 0 Z " fill="#060D30" transform="translate(15,190)"/>
<path d="M0 0 C1.15957207 3.47871621 0.77456651 4.34219645 -0.4375 7.6875 C-0.72496094 8.49574219 -1.01242188 9.30398437 -1.30859375 10.13671875 C-1.53675781 10.75160156 -1.76492187 11.36648437 -2 12 C-2.66 12 -3.32 12 -4 12 C-4 12.66 -4 13.32 -4 14 C-4.66 14 -5.32 14 -6 14 C-6.66 15.65 -7.32 17.3 -8 19 C-8.66 19 -9.32 19 -10 19 C-8.40376856 14.60616294 -6.21975667 10.71004193 -3.875 6.6875 C-3.50246094 6.04232422 -3.12992187 5.39714844 -2.74609375 4.73242188 C-1.83367787 3.15324055 -0.91724491 1.57638136 0 0 Z " fill="#3C496F" transform="translate(96,71)"/>
<path d="M0 0 C0.66 0.33 1.32 0.66 2 1 C2 1.66 2 2.32 2 3 C2.639375 3.28875 3.27875 3.5775 3.9375 3.875 C6 5 6 5 7 7 C6 8 6 8 3 9 C0.3125 8.0625 0.3125 8.0625 -2 7 C-2 5.68 -2 4.36 -2 3 C-1.34 2.67 -0.68 2.34 0 2 C0 1.34 0 0.68 0 0 Z " fill="#041030" transform="translate(64,135)"/>
<path d="M0 0 C1.60600892 3.21201784 0.05786315 5.70887021 -1 9 C-2.39195915 11.7839183 -4.15575779 11.97898997 -7 13 C-6.67 11.02 -6.34 9.04 -6 7 C-5.34 7 -4.68 7 -4 7 C-3.71125 6.030625 -3.4225 5.06125 -3.125 4.0625 C-2 1 -2 1 0 0 Z " fill="#21325E" transform="translate(79,64)"/>
<path d="M0 0 C0 1.98 0 3.96 0 6 C-2.31 6.66 -4.62 7.32 -7 8 C-7.66 6.68 -8.32 5.36 -9 4 C-7.68872739 3.3309224 -6.3759455 2.66480194 -5.0625 2 C-4.33160156 1.62875 -3.60070312 1.2575 -2.84765625 0.875 C-1 0 -1 0 0 0 Z " fill="#103390" transform="translate(200,11)"/>
<path d="M0 0 C4.75 0.75 4.75 0.75 7 3 C7.4140625 5.3828125 7.4140625 5.3828125 7.625 8.125 C7.69976562 9.03507812 7.77453125 9.94515625 7.8515625 10.8828125 C7.90054688 11.58148438 7.94953125 12.28015625 8 13 C5 11 5 11 4.3125 7.875 C4.209375 6.92625 4.10625 5.9775 4 5 C3.34 5 2.68 5 2 5 C1.34 3.35 0.68 1.7 0 0 Z " fill="#132867" transform="translate(129,80)"/>
<path d="M0 0 C2.3125 0.5 2.3125 0.5 5 2 C6.00247908 3.94804887 6.64748148 5.88394975 7.3046875 7.97265625 C7.9844676 10.2125188 7.9844676 10.2125188 9.75 12.75 C11 15 11 15 10.578125 17.140625 C10.38734375 17.75421875 10.1965625 18.3678125 10 19 C8.32992313 16.02273264 6.66451428 13.0428803 5 10.0625 C4.28457031 8.78729492 4.28457031 8.78729492 3.5546875 7.48632812 C3.10351562 6.67744141 2.65234375 5.86855469 2.1875 5.03515625 C1.76855469 4.2862915 1.34960938 3.53742676 0.91796875 2.76586914 C0 1 0 1 0 0 Z " fill="#3D4765" transform="translate(67,99)"/>
<path d="M0 0 C3.0916909 2.52956528 3.90931332 5.22454612 5 9 C1.04 9 -2.92 9 -7 9 C-6.67 8.34 -6.34 7.68 -6 7 C-4.02 7 -2.04 7 0 7 C0 4.69 0 2.38 0 0 Z " fill="#444D6A" transform="translate(127,113)"/>
<path d="M0 0 C0.66 0 1.32 0 2 0 C1.7525 0.845625 1.505 1.69125 1.25 2.5625 C0.90845254 7.25877751 2.56422729 9.04186934 5 13 C4.67 13.66 4.34 14.32 4 15 C3.01 15 2.02 15 1 15 C-2.45 5.11 -2.45 5.11 -1.0625 1.6875 C-0.711875 1.130625 -0.36125 0.57375 0 0 Z " fill="#444F70" transform="translate(74,75)"/>
<path d="M0 0 C0.66 0.66 1.32 1.32 2 2 C-0.31 6.29 -2.62 10.58 -5 15 C-5.33 15 -5.66 15 -6 15 C-6.66452859 9.84990344 -4.49037067 5.39904892 -2 1 C-1.34 0.67 -0.68 0.34 0 0 Z " fill="#343E5B" transform="translate(118,121)"/>
<path d="M0 0 C0.99 0.33 1.98 0.66 3 1 C3 4.3 3 7.6 3 11 C0.47411298 8.63707344 -0.88820837 7.33537489 -2 4 C-1.0625 1.8125 -1.0625 1.8125 0 0 Z " fill="#102C69" transform="translate(116,51)"/>
<path d="M0 0 C0.66 0.33 1.32 0.66 2 1 C1.25 4.375 1.25 4.375 0 8 C-2.0625 9.25 -2.0625 9.25 -4 10 C-4.33 10.99 -4.66 11.98 -5 13 C-5.99 12.34 -6.98 11.68 -8 11 C-7.236875 10.855625 -6.47375 10.71125 -5.6875 10.5625 C-1.95212255 8.39076892 -1.62907285 5.9217248 -0.48046875 1.8984375 C-0.32191406 1.27195313 -0.16335937 0.64546875 0 0 Z " fill="#161D39" transform="translate(90,146)"/>
<path d="M0 0 C0.66 0.33 1.32 0.66 2 1 C2.35179197 3.3306218 2.68330179 5.66435067 3 8 C3.95584438 10.33588323 3.95584438 10.33588323 5 12 C4.01 12.495 4.01 12.495 3 13 C2.10565843 11.59546357 1.23506808 10.17578131 0.375 8.75 C-0.11226562 7.96109375 -0.59953125 7.1721875 -1.1015625 6.359375 C-2 4 -2 4 -1.1484375 1.703125 C-0.76945313 1.14109375 -0.39046875 0.5790625 0 0 Z " fill="#304064" transform="translate(148,111)"/>
<path d="M0 0 C0.66 0 1.32 0 2 0 C0.57250019 3.79049707 -1.16236542 7.27122456 -3.125 10.8125 C-3.93324219 12.27623047 -3.93324219 12.27623047 -4.7578125 13.76953125 C-5.37269531 14.87361328 -5.37269531 14.87361328 -6 16 C-7.21386936 12.35839192 -6.6674695 11.66834531 -5.0625 8.3125 C-4.68222656 7.50425781 -4.30195312 6.69601563 -3.91015625 5.86328125 C-3.60980469 5.24839844 -3.30945312 4.63351563 -3 4 C-2.34 4 -1.68 4 -1 4 C-0.67 2.68 -0.34 1.36 0 0 Z " fill="#414962" transform="translate(61,98)"/>
<path d="M0 0 C0.66 0 1.32 0 2 0 C4.99481865 4.58031088 4.99481865 4.58031088 6 7 C5.25 9.4375 5.25 9.4375 4 11 C3.34 9.35 2.68 7.7 2 6 C0.68 6 -0.64 6 -2 6 C-1.34 4.02 -0.68 2.04 0 0 Z " fill="#4D5A7E" transform="translate(99,65)"/>
<path d="M0 0 C0.66 0 1.32 0 2 0 C3.98 3.96 5.96 7.92 8 12 C7.01 12 6.02 12 5 12 C4.9175 11.4225 4.835 10.845 4.75 10.25 C4.13235669 7.82092075 4.13235669 7.82092075 1.9375 6 C0 4 0 4 0 0 Z " fill="#373E50" transform="translate(74,145)"/>
<path d="M0 0 C2.73642291 1.00335507 3.84837816 1.76267886 5.4375 4.25 C6.20677176 8.01088417 4.93896318 9.7932532 3 13 C2.34 13 1.68 13 1 13 C1.391875 11.96875 1.78375 10.9375 2.1875 9.875 C3.14061021 5.32939745 2.43273978 3.8362435 0 0 Z " fill="#3F4A6A" transform="translate(105,104)"/>
<path d="M0 0 C2.48982535 2.27745789 4.10368997 4.62335238 5.75 7.5625 C6.19859375 8.34753906 6.6471875 9.13257812 7.109375 9.94140625 C7.40328125 10.62074219 7.6971875 11.30007812 8 12 C7.67 12.66 7.34 13.32 7 14 C4.66714622 11.86099367 3.2131241 9.83344647 1.8125 7 C1.46832031 6.319375 1.12414062 5.63875 0.76953125 4.9375 C0 3 0 3 0 0 Z " fill="#444E71" transform="translate(119,99)"/>
<path d="M0 0 C0.33 0.99 0.66 1.98 1 3 C0.34 3 -0.32 3 -1 3 C-1.0825 3.70125 -1.165 4.4025 -1.25 5.125 C-2.18630251 8.71415964 -3.70735849 11.10048279 -6 14 C-6.99 14 -7.98 14 -9 14 C-8.67 12.68 -8.34 11.36 -8 10 C-6.68 9.67 -5.36 9.34 -4 9 C-3.34 6.69 -2.68 4.38 -2 2 C-1.34 2 -0.68 2 0 2 C0 1.34 0 0.68 0 0 Z " fill="#24314B" transform="translate(101,128)"/>
<path d="M0 0 C0.33 1.32 0.66 2.64 1 4 C0.34 4 -0.32 4 -1 4 C-1.12375 4.7425 -1.2475 5.485 -1.375 6.25 C-1.96561763 8.84871755 -2.56286448 10.76445586 -4 13 C-4.99 13.33 -5.98 13.66 -7 14 C-5.23570801 9.02790438 -2.6060834 4.56561939 0 0 Z " fill="#3F4559" transform="translate(91,142)"/>
<path d="M0 0 C0.66 0 1.32 0 2 0 C2.33 1.98 2.66 3.96 3 6 C2.01 6 1.02 6 0 6 C-0.99 7.485 -0.99 7.485 -2 9 C-2.66 9 -3.32 9 -4 9 C-2.80100302 5.9168649 -1.52299523 2.93720508 0 0 Z " fill="#4D5369" transform="translate(64,127)"/>
<path d="M0 0 C0.99 0 1.98 0 3 0 C1.25740319 9.59453303 1.25740319 9.59453303 -2 13 C-1.855625 12.154375 -1.71125 11.30875 -1.5625 10.4375 C-0.9941203 6.96406851 -0.48797607 3.48554338 0 0 Z " fill="#28314F" transform="translate(52,108)"/>
<path d="M0 0 C7 8.44827586 7 8.44827586 7 12 C3.86501824 10.91897181 3.0131441 10.02159388 1.25 7.125 C0 4 0 4 0 0 Z " fill="#435172" transform="translate(110,83)"/>
<path d="M0 0 C0.99 0 1.98 0 3 0 C3 0.66 3 1.32 3 2 C3.99 1.67 4.98 1.34 6 1 C6.66 3.64 7.32 6.28 8 9 C6.68 8.34 5.36 7.68 4 7 C4 5.68 4 4.36 4 3 C3.01 3.33 2.02 3.66 1 4 C0.67 2.68 0.34 1.36 0 0 Z " fill="#16285F" transform="translate(104,81)"/>
<path d="M0 0 C0.99 0.33 1.98 0.66 3 1 C3.6875 3.0625 3.6875 3.0625 4 5 C4.99 5 5.98 5 7 5 C7.33 6.98 7.66 8.96 8 11 C7.01 11.495 7.01 11.495 6 12 C4.02 8.04 2.04 4.08 0 0 Z " fill="#3F507E" transform="translate(108,47)"/>
<path d="M0 0 C0.66 0 1.32 0 2 0 C2.33 0.99 2.66 1.98 3 3 C2.34 3.66 1.68 4.32 1 5 C0.1159863 6.03402815 -0.75858501 7.07618185 -1.625 8.125 C-2.40875 9.07375 -3.1925 10.0225 -4 11 C-4.33 10.34 -4.66 9.68 -5 9 C-4.00390625 6.8359375 -4.00390625 6.8359375 -2.5625 4.375 C-2.08941406 3.55773438 -1.61632812 2.74046875 -1.12890625 1.8984375 C-0.75636719 1.27195313 -0.38382812 0.64546875 0 0 Z " fill="#DCE6F2" transform="translate(99,34)"/>
<path d="M0 0 C0.66 0 1.32 0 2 0 C0.58707905 4.8274799 -1.42974154 8.7162359 -4 13 C-4.625 11.125 -4.625 11.125 -5 9 C-4.34 8.34 -3.68 7.68 -3 7 C-1.96157435 4.68351201 -0.9578025 2.35096976 0 0 Z " fill="#3C4968" transform="translate(97,96)"/>
<path d="M0 0 C0.99 0.66 1.98 1.32 3 2 C2.5206753 6.31392226 1.2542015 8.16569547 -2 11 C-1.42415568 8.61435923 -0.77772405 6.33317216 0 4 C0 2.68 0 1.36 0 0 Z " fill="#142A66" transform="translate(89,40)"/>
<path d="M0 0 C1.875 0.125 1.875 0.125 4 1 C5.76708665 4.78661425 6.1914033 7.04865524 5 11 C4.16151196 9.54462432 3.32936066 8.08559627 2.5 6.625 C1.80390625 5.40683594 1.80390625 5.40683594 1.09375 4.1640625 C0 2 0 2 0 0 Z " fill="#3E4B6A" transform="translate(152,124)"/>
<path d="M0 0 C-1.12451727 2.9719385 -2.22293791 5.33440687 -4 8 C-4.66 8 -5.32 8 -6 8 C-5.62403791 5.21788056 -5.32681541 3.4120716 -3.5625 1.1875 C-2 0 -2 0 0 0 Z " fill="#333D51" transform="translate(50,121)"/>
<path d="M0 0 C0.66 0.66 1.32 1.32 2 2 C1.68134222 5.29279709 0.45484649 6.86535088 -2 9 C-2.125 5.625 -2.125 5.625 -2 2 C-1.34 1.34 -0.68 0.68 0 0 Z " fill="#0B235B" transform="translate(100,71)"/>
<path d="M0 0 C0.99 0.33 1.98 0.66 3 1 C3 1.66 3 2.32 3 3 C3.66 3 4.32 3 5 3 C5.66 4.98 6.32 6.96 7 9 C6.01 9.495 6.01 9.495 5 10 C3.35 6.7 1.7 3.4 0 0 Z " fill="#364975" transform="translate(115,59)"/>
<path d="M0 0 C1.32 0.33 2.64 0.66 4 1 C4 2.32 4 3.64 4 5 C4.66 5 5.32 5 6 5 C5.67 5.99 5.34 6.98 5 8 C2.27573689 5.64722731 1.1858237 3.37503669 0 0 Z " fill="#4B536B" transform="translate(78,118)"/>
<path d="M0 0 C0.66 0 1.32 0 2 0 C0.55049545 3.7910119 -1.15172566 7.3874638 -3 11 C-3.75 9.4375 -3.75 9.4375 -4 7 C-2.86915563 4.49713591 -1.47860484 2.32992278 0 0 Z " fill="#435075" transform="translate(83,59)"/>
<path d="M0 0 C0.66 0 1.32 0 2 0 C2.66 1.65 3.32 3.3 4 5 C2.02 5.33 0.04 5.66 -2 6 C-1.34 4.02 -0.68 2.04 0 0 Z " fill="#E0E7F2" transform="translate(99,96)"/>
<path d="M0 0 C0.66 0.99 1.32 1.98 2 3 C-0.29166667 9.64583333 -0.29166667 9.64583333 -3 11 C-2.01 7.37 -1.02 3.74 0 0 Z " fill="#283457" transform="translate(105,117)"/>
<path d="M0 0 C0.66 0 1.32 0 2 0 C0.68775452 3.93673644 -0.91910327 6.22719294 -4 9 C-4 7.68 -4 6.36 -4 5 C-3.34 5 -2.68 5 -2 5 C-1.34 3.35 -0.68 1.7 0 0 Z " fill="#1E2B57" transform="translate(90,85)"/>
<path d="M0 0 C0.66 0 1.32 0 2 0 C1.34 2.97 0.68 5.94 0 9 C-0.66 8.67 -1.32 8.34 -2 8 C-2.125 5.125 -2.125 5.125 -2 2 C-1.34 1.34 -0.68 0.68 0 0 Z " fill="#34436A" transform="translate(74,75)"/>
<path d="M0 0 C2 2 2 2 2 6 C2.66 6 3.32 6 4 6 C4 7.32 4 8.64 4 10 C3.34 10 2.68 10 2 10 C-0.09350689 6.5980513 -0.17942163 3.94727588 0 0 Z " fill="#172A6D" transform="translate(110,42)"/>
<path d="M0 0 C1.32 0.33 2.64 0.66 4 1 C4.33 2.98 4.66 4.96 5 7 C2.47411298 4.63707344 1.11179163 3.33537489 0 0 Z " fill="#14214A" transform="translate(72,104)"/>
</svg>
