<?xml version="1.0" encoding="UTF-8"?>
<svg version="1.1" xmlns="http://www.w3.org/2000/svg" width="225" height="225">
<path d="M0 0 C74.25 0 148.5 0 225 0 C225 74.25 225 148.5 225 225 C150.75 225 76.5 225 0 225 C0 150.75 0 76.5 0 0 Z " fill="#FDFDFE" transform="translate(0,0)"/>
<path d="M0 0 C3.49277499 2.85243291 6.76467636 5.86116847 10 9 C10.67289063 9.59941406 11.34578125 10.19882812 12.0390625 10.81640625 C22.40269766 20.37489844 29.12679384 32.93462668 34 46 C34.31582031 46.84433594 34.63164062 47.68867187 34.95703125 48.55859375 C38.5522034 58.77738355 39.4786139 68.45756524 39.5 79.25 C39.50201416 79.95664795 39.50402832 80.6632959 39.50610352 81.39135742 C39.461212 104.76927414 31.80033546 125.83851966 17 144 C16.32453125 144.83917969 15.6490625 145.67835938 14.953125 146.54296875 C-0.25596103 164.44417402 -23.48465013 177.01976001 -47 179 C-73.09509151 180.50958309 -98.82073436 174.52533236 -118.85546875 156.9543457 C-121.31187942 154.70434614 -123.6592694 152.3710859 -126 150 C-126.81210938 149.18660156 -127.62421875 148.37320313 -128.4609375 147.53515625 C-148.04072069 126.91958248 -154.69033449 100.09592318 -154.08886719 72.45800781 C-153.90890281 67.48031168 -153.19894473 62.82716491 -152 58 C-151.84934082 57.37206543 -151.69868164 56.74413086 -151.54345703 56.09716797 C-146.61232958 36.01738962 -136.06086428 17.39559154 -120 4 C-119.34 4 -118.68 4 -118 4 C-115.67612336 10.57202954 -113.87579583 17.18772028 -112.2578125 23.96484375 C-112.00756317 24.9970253 -111.75731384 26.02920685 -111.4994812 27.09266663 C-110.70434177 30.37340925 -109.91415693 33.65531361 -109.125 36.9375 C-105.95515565 50.10644008 -102.76592164 63.24964559 -99.05541992 76.27832031 C-95 90.57876475 -95 90.57876475 -95 97 C-100.28 97 -105.56 97 -111 97 C-110.4225 98.835625 -109.845 100.67125 -109.25 102.5625 C-107.67001393 107.70874033 -106.1626008 112.86779515 -104.75 118.0625 C-104.24726562 119.90521484 -104.24726562 119.90521484 -103.734375 121.78515625 C-103 125 -103 125 -103 129 C-93.75811511 128.9383232 -84.5165266 128.86089197 -75.27494049 128.76428509 C-70.98197875 128.71988363 -66.68910534 128.68056449 -62.39599609 128.65356445 C-58.23958383 128.62722535 -54.0835173 128.5866172 -49.92732239 128.53681374 C-48.35525369 128.52034886 -46.78312548 128.50870962 -45.21098328 128.50238609 C-27.87297667 128.42571273 -9.32007076 127.02695135 4.0625 114.625 C13.52625558 103.96632579 14.83828278 91.99189569 14.19091797 78.31933594 C13.19134269 66.17615802 7.04921167 55.62131906 -1.5625 47.25 C-17.4396388 33.84317132 -35.99382428 31.41289829 -55.9375 31.25 C-57.69989799 31.22176008 -59.46226961 31.19182189 -61.22460938 31.16015625 C-65.48302396 31.08725754 -69.74112939 31.03710877 -74 31 C-76.76810246 21.66565845 -79.2379309 12.30112369 -81.40234375 2.80908203 C-81.88481569 0.70723886 -82.38386863 -1.39029493 -82.8828125 -3.48828125 C-83.19112134 -4.83049593 -83.49845246 -6.17293565 -83.8046875 -7.515625 C-84.08296387 -8.71477539 -84.36124023 -9.91392578 -84.64794922 -11.14941406 C-84.82221436 -12.5604541 -84.82221436 -12.5604541 -85 -14 C-66.07297686 -32.92702314 -17.2332862 -12.75601086 0 0 Z " fill="#01385B" transform="translate(170,32)"/>
<path d="M0 0 C23.03451396 -0.83400273 23.03451396 -0.83400273 32 4 C33.134375 4.598125 34.26875 5.19625 35.4375 5.8125 C39.6604237 9.41743486 41.66666716 12.46599016 42.3828125 17.91015625 C42.55672772 22.58847556 42.35113723 26.14505719 40.5625 30.5 C35.83590259 35.11131455 30.33721653 37.21549414 23.74609375 37.390625 C21.97613454 37.36450014 20.20636517 37.31748422 18.4375 37.25 C17.52419922 37.23195312 16.61089844 37.21390625 15.66992188 37.1953125 C13.44546486 37.14872701 11.22333033 37.08335485 9 37 C6.35734035 29.04249413 4.19856155 21.02651745 2.25 12.875 C2.02739502 11.95050049 1.80479004 11.02600098 1.57543945 10.07348633 C1.37007568 9.20103271 1.16471191 8.3285791 0.953125 7.4296875 C0.76911133 6.64835449 0.58509766 5.86702148 0.39550781 5.06201172 C0 3 0 3 0 0 Z " fill="#043A5C" transform="translate(104,92)"/>
</svg>
