<?xml version="1.0" encoding="UTF-8"?>
<svg version="1.1" xmlns="http://www.w3.org/2000/svg" width="200" height="200">
<path d="M0 0 C66 0 132 0 200 0 C200 66 200 132 200 200 C134 200 68 200 0 200 C0 134 0 68 0 0 Z " fill="#09090B" transform="translate(0,0)"/>
<path d="M0 0 C33.99 0 67.98 0 103 0 C99.625 10.125 99.625 10.125 98.17578125 13.81640625 C97.89903564 14.52482666 97.62229004 15.23324707 97.3371582 15.96313477 C96.999021 16.82092529 96.66088379 17.67871582 96.3125 18.5625 C95.219375 21.346875 94.12625 24.13125 93 27 C85.41 27 77.82 27 70 27 C69.67 30.63 69.34 34.26 69 38 C68.6839388 40.11640657 68.3367834 42.2287397 67.94018555 44.33154297 C67.73294357 45.44415497 67.5257016 46.55676697 67.31217957 47.70309448 C67.0892775 48.87099518 66.86637543 50.03889587 66.63671875 51.2421875 C66.4034639 52.48638458 66.17020905 53.73058167 65.92988586 55.01248169 C65.31203768 58.30284208 64.68978419 61.59230444 64.06530762 64.88140869 C63.44401501 68.15980619 62.82880522 71.43933784 62.21289062 74.71875 C61.03223319 80.99815262 59.844448 87.27617627 58.65325928 93.55358887 C58.04087849 96.78433663 57.43134552 100.01560697 56.82275391 103.24707031 C56.47174949 105.1048309 56.12068007 106.9625792 55.76953125 108.8203125 C55.54132942 110.03580276 55.54132942 110.03580276 55.30851746 111.27584839 C54.30988436 116.54205125 53.19148914 121.77411264 52 127 C50.20585986 124.30878978 49.64808771 123.12641369 49.03515625 120.11328125 C48.87466797 119.33791016 48.71417969 118.56253906 48.54882812 117.76367188 C48.38833984 116.95478516 48.22785156 116.14589844 48.0625 115.3125 C47.90587891 114.55388672 47.74925781 113.79527344 47.58789062 113.01367188 C46.27663235 106.59320804 45.08287057 100.15039386 43.88110352 93.70874023 C43.05732739 89.29731251 42.22248311 84.88801814 41.38645935 80.47889709 C40.60165269 76.33772655 39.81991271 72.1959793 39.03833008 68.05419922 C38.63706152 65.93094886 38.23471384 63.80790217 37.83129883 61.68505859 C35.63958967 50.14685056 33.52824386 38.64769647 32 27 C24.74 27 17.48 27 10 27 C8.32917399 22.8766401 6.66316551 18.75144848 5 14.625 C4.28457031 12.8615625 4.28457031 12.8615625 3.5546875 11.0625 C3.10351562 9.94101562 2.65234375 8.81953125 2.1875 7.6640625 C1.76855469 6.62717285 1.34960938 5.5902832 0.91796875 4.52197266 C0 2 0 2 0 0 Z " fill="#D43A3B" transform="translate(51,47)"/>
<path d="M0 0 C2.20212595 2.74412799 3.69215804 5.30086917 4.98608398 8.56787109 C5.34799835 9.47291885 5.70991272 10.37796661 6.08279419 11.31044006 C6.46668304 12.28822922 6.8505719 13.26601837 7.24609375 14.2734375 C7.65318573 15.29614243 8.06027771 16.31884735 8.47970581 17.37254333 C9.80456296 20.70450575 11.12099797 24.03972864 12.4375 27.375 C13.35184514 29.67822178 14.26680536 31.98119947 15.18237305 34.28393555 C16.98552221 38.82110714 18.78575461 43.35941549 20.58300781 47.89892578 C23.47780871 55.20949849 26.39195743 62.5121774 29.3125 69.8125 C29.75867676 70.93293701 30.20485352 72.05337402 30.66455078 73.20776367 C33.08152395 79.26487631 35.53212392 85.30609697 38.02180481 91.33363342 C39.44123186 94.77122466 40.85414839 98.21147934 42.2671814 101.65170288 C42.9591298 103.33027319 43.65457768 105.00740557 44.35366821 106.68301392 C45.32363305 109.00795419 46.28204107 111.33735702 47.23828125 113.66796875 C47.533396 114.36642914 47.82851074 115.06488953 48.13256836 115.78451538 C50.11375913 120.65872262 50.11375913 120.65872262 49 124 C43.91201378 118.46445943 39.00692323 112.84972186 34.34765625 106.94921875 C26.50180458 97.09294918 18.41905908 87.42816267 10.19067383 77.88989258 C6.48281582 73.58529632 2.87470169 69.20716911 -0.70703125 64.796875 C-4.22776941 60.50241415 -7.82613134 56.27463067 -11.421875 52.04296875 C-12.27265625 51.03878906 -13.1234375 50.03460938 -14 49 C-14.47501953 48.49033691 -14.95003906 47.98067383 -15.43945312 47.45556641 C-17.45984117 45.2298717 -18.88658502 43.53296514 -19.51953125 40.55859375 C-18.81318501 37.07997127 -17.3420425 34.16673688 -15.6875 31.0625 C-14.96161879 29.65787272 -14.23639808 28.25290398 -13.51171875 26.84765625 C-13.11388184 26.08340332 -12.71604492 25.31915039 -12.30615234 24.53173828 C-9.82027219 19.71331264 -7.41762533 14.85292048 -5 10 C-4.04197991 8.08317674 -3.08367213 6.16649723 -2.125 4.25 C-1.71507813 3.43015625 -1.30515625 2.6103125 -0.8828125 1.765625 C-0.59148438 1.18296875 -0.30015625 0.6003125 0 0 Z " fill="#F9F9F9" transform="translate(45,50)"/>
<path d="M0 0 C0.66 0 1.32 0 2 0 C4.73952966 5.33085338 7.46326352 10.66936664 10.17260742 16.015625 C11.0966799 17.83357894 12.025047 19.64935649 12.95776367 21.46289062 C14.29697958 24.06862418 15.62060376 26.68177 16.94140625 29.296875 C17.57255089 30.51271271 17.57255089 30.51271271 18.21644592 31.75311279 C18.59691574 32.51359924 18.97738556 33.27408569 19.36938477 34.05761719 C19.87901512 35.0568924 19.87901512 35.0568924 20.39894104 36.07635498 C21.14550432 38.46567587 20.8652483 39.67456697 20 42 C18.3203125 44.33984375 18.3203125 44.33984375 16.125 46.9375 C15.31289062 47.90558594 14.50078125 48.87367187 13.6640625 49.87109375 C12.77651865 50.91446843 11.88848638 51.95742782 11 53 C10.09075005 54.07388376 9.18190005 55.14810629 8.2734375 56.22265625 C6.87979973 57.87024251 5.48542069 59.51716385 4.08837891 61.16186523 C1.18859047 64.57864279 -1.67086353 68.02420377 -4.5 71.5 C-8.24787798 76.1045358 -12.06983444 80.64019191 -15.9140625 85.1640625 C-19.55859407 89.46013044 -23.1278734 93.81368341 -26.68359375 98.18359375 C-29.27787235 101.33785155 -31.91604673 104.45204343 -34.5625 107.5625 C-39.15049526 112.9567002 -43.61736706 118.43694443 -48 124 C-49 122 -49 122 -48.25683594 119.62329102 C-47.83692383 118.59389404 -47.41701172 117.56449707 -46.984375 116.50390625 C-46.62646378 115.61662842 -46.62646378 115.61662842 -46.26132202 114.71142578 C-45.43135167 112.65881443 -44.5904402 110.61084471 -43.75 108.5625 C-43.14486747 107.07120779 -42.54057158 105.57957588 -41.93701172 104.08764648 C-40.50607106 100.55310701 -39.07083541 97.02034249 -37.63378906 93.48828125 C-34.51798255 85.8217613 -31.42703442 78.14525664 -28.3359375 70.46875 C-28.04220749 69.73933638 -27.74847748 69.00992275 -27.44584656 68.25840569 C-26.24381502 65.27339843 -25.0417998 62.2883846 -23.83988953 59.30332851 C-21.76042359 54.13915291 -19.6791141 48.97572337 -17.59667969 43.81274414 C-11.70991654 29.21694145 -5.8313192 14.61807207 0 0 Z " fill="#FAFAFA" transform="translate(158,51)"/>
<path d="M0 0 C34.65 0 69.3 0 105 0 C105 0.33 105 0.66 105 1 C71.01 1 37.02 1 2 1 C5.3 9.25 8.6 17.5 12 26 C11.67 26.66 11.34 27.32 11 28 C10.67 27.01 10.34 26.02 10 25 C8.35 25.33 6.7 25.66 5 26 C2.91677833 21.83355666 2.58649442 17.87578221 2.24609375 13.3046875 C2.06619851 10.84240758 2.06619851 10.84240758 1 8 C0.67 5.36 0.34 2.72 0 0 Z " fill="#4A1314" transform="translate(49,46)"/>
<path d="M0 0 C34.32 0 68.64 0 104 0 C104 9 104 9 101 14 C100.34 14 99.68 14 99 14 C99.495 15.485 99.495 15.485 100 17 C98.68 17.66 97.36 18.32 96 19 C97 13 97 13 102 1 C68.34 1 34.68 1 0 1 C0 0.67 0 0.34 0 0 Z " fill="#1D0002" transform="translate(52,45)"/>
<path d="M0 0 C33.99 0 67.98 0 103 0 C100 9 100 9 98 10 C98.33 7.36 98.66 4.72 99 2 C66.99 1.67 34.98 1.34 2 1 C2.33 2.98 2.66 4.96 3 7 C1 5 1 5 0 0 Z " fill="#BC4343" transform="translate(51,47)"/>
<path d="M0 0 C1.485 0.99 1.485 0.99 3 2 C3.40843923 4.71203652 3.13336867 7.2437142 3 10 C3.66 10 4.32 10 5 10 C5.06058594 10.77085937 5.12117188 11.54171875 5.18359375 12.3359375 C5.26738281 13.33882812 5.35117188 14.34171875 5.4375 15.375 C5.51871094 16.37273437 5.59992188 17.37046875 5.68359375 18.3984375 C5.84965626 20.97927613 5.84965626 20.97927613 7 23 C7.22467831 24.53668865 7.40796805 26.07968054 7.5625 27.625 C7.68818359 28.85089844 7.68818359 28.85089844 7.81640625 30.1015625 C7.87699219 30.72804687 7.93757813 31.35453125 8 32 C8.33 30.35 8.66 28.7 9 27 C9.66 27 10.32 27 11 27 C11 23.04 11 19.08 11 15 C11.66 15 12.32 15 13 15 C12.61336547 24.01258426 11.52446512 32.33108203 9 41 C7.20585986 38.30878978 6.64808771 37.12641369 6.03515625 34.11328125 C5.8762793 33.34693359 5.71740234 32.58058594 5.55371094 31.79101562 C5.31056152 30.56415039 5.31056152 30.56415039 5.0625 29.3125 C4.89137695 28.47267578 4.72025391 27.63285156 4.54394531 26.76757812 C4.02039832 24.18006657 3.50823372 21.59055961 3 19 C2.84321777 18.20513184 2.68643555 17.41026367 2.52490234 16.59130859 C0 3.7151273 0 3.7151273 0 0 Z " fill="#AE3C3D" transform="translate(94,133)"/>
<path d="M0 0 C0.99 0 1.98 0 3 0 C3 0.66 3 1.32 3 2 C4.32 2.33 5.64 2.66 7 3 C6.34 3.66 5.68 4.32 5 5 C5 4.34 5 3.68 5 3 C4.34 3 3.68 3 3 3 C2.82984375 3.60585938 2.6596875 4.21171875 2.484375 4.8359375 C0.68433058 11.05949532 -1.49618433 17.02642961 -4 23 C-4.99 22.67 -5.98 22.34 -7 22 C-7.37113402 16.43298969 -7.37113402 16.43298969 -5.5 14.25 C-5.005 13.8375 -4.51 13.425 -4 13 C-4 12.34 -4 11.68 -4 11 C-3.34 11 -2.68 11 -2 11 C-1.505 9.1128125 -1.505 9.1128125 -1 7.1875 C-0.814375 6.47980469 -0.62875 5.77210937 -0.4375 5.04296875 C0.1047007 2.85929991 0.1047007 2.85929991 0 0 Z " fill="#111213" transform="translate(155,48)"/>
<path d="M0 0 C1 3 1 3 0 6 C-7.26 6 -14.52 6 -22 6 C-21.67 5.01 -21.34 4.02 -21 3 C-11.1 2.505 -11.1 2.505 -1 2 C-0.67 1.34 -0.34 0.68 0 0 Z " fill="#B7393B" transform="translate(144,68)"/>
<path d="M0 0 C0.99 0.495 0.99 0.495 2 1 C2 1.99 2 2.98 2 4 C2.66 4 3.32 4 4 4 C4.06058594 4.85464844 4.12117188 5.70929688 4.18359375 6.58984375 C4.26738281 7.69457031 4.35117188 8.79929687 4.4375 9.9375 C4.51871094 11.03964844 4.59992188 12.14179687 4.68359375 13.27734375 C4.70418084 15.91109903 4.70418084 15.91109903 6 17 C6.15582303 18.34015221 6.25044142 19.68758903 6.31640625 21.03515625 C6.35830078 21.84404297 6.40019531 22.65292969 6.44335938 23.48632812 C6.48267578 24.33646484 6.52199219 25.18660156 6.5625 26.0625 C6.60568359 26.91650391 6.64886719 27.77050781 6.69335938 28.65039062 C6.79976702 30.76672037 6.90041731 32.88333813 7 35 C6.67 35 6.34 35 6 35 C5.14326433 30.33732247 4.28882318 25.67423261 3.43652344 21.01074219 C3.14614174 19.423712 2.85512884 17.83679718 2.56347656 16.25 C2.14483037 13.9716534 1.72844184 11.69290416 1.3125 9.4140625 C1.11563599 8.34679428 1.11563599 8.34679428 0.91479492 7.25796509 C0 2.22774341 0 2.22774341 0 0 Z " fill="#B23D3F" transform="translate(83,74)"/>
<path d="M0 0 C0.33 0 0.66 0 1 0 C1 2.64 1 5.28 1 8 C0.01 8 -0.98 8 -2 8 C-2 8.99 -2 9.98 -2 11 C-9.26 11 -16.52 11 -24 11 C-24 11.99 -24 12.98 -24 14 C-24.66 14 -25.32 14 -26 14 C-26 12.68 -26 11.36 -26 10 C-18.41 10 -10.82 10 -3 10 C-2.67 8.02 -2.34 6.04 -2 4 C-0.9375 1.625 -0.9375 1.625 0 0 Z " fill="#280405" transform="translate(147,64)"/>
<path d="M0 0 C0.33 0 0.66 0 1 0 C1.02687279 1.81242052 1.04633715 3.62495233 1.0625 5.4375 C1.07410156 6.44683594 1.08570312 7.45617187 1.09765625 8.49609375 C1 11 1 11 0 12 C-0.20699563 13.49496842 -0.36679259 14.9966592 -0.5 16.5 C-0.88888889 20.88888889 -0.88888889 20.88888889 -2 22 C-2.28101946 24.31952569 -2.44782625 26.63885514 -2.62109375 28.96875 C-2.74613281 29.6390625 -2.87117188 30.309375 -3 31 C-3.66 31.33 -4.32 31.66 -5 32 C-4.49279908 21.17126036 -2.12424249 10.60054575 0 0 Z " fill="#300708" transform="translate(120,80)"/>
<path d="M0 0 C2.30575805 4.05659882 1.83011817 6.08472868 0.6875 10.625 C-0.54945996 15.80510742 -1.37926011 20.69415683 -1.59375 26.01171875 C-2.0993689 28.48633431 -3.09427085 29.40344499 -5 31 C-4.11382134 24.49824709 -3.02429238 18.03333097 -1.9375 11.5625 C-1.75123047 10.44939453 -1.56496094 9.33628906 -1.37304688 8.18945312 C-0.91610372 5.4595107 -0.45840068 2.72969799 0 0 Z " fill="#2F0708" transform="translate(109,138)"/>
<path d="M0 0 C0.66 0 1.32 0 2 0 C3.23593891 3.70781672 2.5678132 4.67510253 1.0625 8.1875 C0.68222656 9.08855469 0.30195312 9.98960937 -0.08984375 10.91796875 C-0.54037109 11.94857422 -0.54037109 11.94857422 -1 13 C-3.39223697 10.60776303 -3.6758631 9.32240324 -4 6 C-3.34 5.01 -2.68 4.02 -2 3 C-1.34 3 -0.68 3 0 3 C0 2.01 0 1.02 0 0 Z " fill="#111212" transform="translate(111,160)"/>
<path d="M0 0 C0.12375 1.03125 0.2475 2.0625 0.375 3.125 C0.93889814 6.62116846 1.78682059 9.68397627 3 13 C2.34 13.66 1.68 14.32 1 15 C0.16235732 13.04350603 -0.66999059 11.08474444 -1.5 9.125 C-1.9640625 8.03445312 -2.428125 6.94390625 -2.90625 5.8203125 C-4 3 -4 3 -4 1 C-2 0 -2 0 0 0 Z " fill="#111014" transform="translate(50,49)"/>
<path d="M0 0 C1.32 0 2.64 0 4 0 C4 5.94 4 11.88 4 18 C3.67 18 3.34 18 3 18 C2.01 12.06 1.02 6.12 0 0 Z " fill="#B03B3D" transform="translate(90,112)"/>
<path d="M0 0 C0.66 0 1.32 0 2 0 C2.69670416 1.78810766 3.38211189 3.58062052 4.0625 5.375 C4.63677734 6.87160156 4.63677734 6.87160156 5.22265625 8.3984375 C6 11 6 11 5 13 C0.87010523 8.73688282 0.38728235 5.71241466 0 0 Z " fill="#290707" transform="translate(49,46)"/>
<path d="M0 0 C0.33 0 0.66 0 1 0 C1.05437607 1.58294782 1.09296271 3.16644256 1.125 4.75 C1.14820312 5.63171875 1.17140625 6.5134375 1.1953125 7.421875 C1 10 1 10 -1 14 C-1.33 11.03 -1.66 8.06 -2 5 C-1.67 5 -1.34 5 -1 5 C-0.67 3.35 -0.34 1.7 0 0 Z " fill="#B14345" transform="translate(103,160)"/>
<path d="M0 0 C0.66 0 1.32 0 2 0 C1.01 2.97 0.02 5.94 -1 9 C-1.66 8.34 -2.32 7.68 -3 7 C-2.67028521 3.70285207 -2.3773161 2.3773161 0 0 Z " fill="#141415" transform="translate(133,109)"/>
<path d="M0 0 C2 3 2 3 1.75 5.5 C1 8 1 8 -1 11 C-1.66 11 -2.32 11 -3 11 C-2.44894091 7.0507432 -1.61064629 3.65079826 0 0 Z " fill="#2D0A0A" transform="translate(151,53)"/>
<path d="M0 0 C2 1.375 2 1.375 4 3 C4 3.66 4 4.32 4 5 C2.35 4.67 0.7 4.34 -1 4 C-1.33 3.01 -1.66 2.02 -2 1 C-1.34 0.67 -0.68 0.34 0 0 Z " fill="#171719" transform="translate(37,106)"/>
<path d="M0 0 C1.32 1.32 2.64 2.64 4 4 C2.68 4.33 1.36 4.66 0 5 C-0.66 3.68 -1.32 2.36 -2 1 C-1.34 0.67 -0.68 0.34 0 0 Z " fill="#181818" transform="translate(77,154)"/>
<path d="M0 0 C0.33 0 0.66 0 1 0 C1.36923077 7.50769231 1.36923077 7.50769231 -0.5 10 C-0.995 10.33 -1.49 10.66 -2 11 C-1 3.57142857 -1 3.57142857 0 0 Z " fill="#220303" transform="translate(106,158)"/>
<path d="M0 0 C0.66 0 1.32 0 2 0 C0.125 5.75 0.125 5.75 -1 8 C-1.66 8 -2.32 8 -3 8 C-1.125 1.125 -1.125 1.125 0 0 Z " fill="#0D0506" transform="translate(154,51)"/>
</svg>
