<?xml version="1.0" encoding="UTF-8"?>
<svg version="1.1" xmlns="http://www.w3.org/2000/svg" width="225" height="225">
<path d="M0 0 C74.25 0 148.5 0 225 0 C225 74.25 225 148.5 225 225 C150.75 225 76.5 225 0 225 C0 150.75 0 76.5 0 0 Z " fill="#222224" transform="translate(0,0)"/>
<path d="M0 0 C0.16754147 4.09317863 0.32810824 8.18656495 0.48217773 12.28027344 C0.53559149 13.67325222 0.59092043 15.06615893 0.64819336 16.45898438 C0.73012069 18.45943602 0.80462098 20.4601875 0.87890625 22.4609375 C0.9260376 23.66540527 0.97316895 24.86987305 1.02172852 26.11083984 C1 29 1 29 0 31 C0.763125 30.505 1.52625 30.01 2.3125 29.5 C5 28 5 28 8 28 C8 18.76 8 9.52 8 0 C12.02364085 2.41418451 14.5047889 4.25608644 17.72680664 7.48388672 C18.63447281 8.38847626 19.54213898 9.2930658 20.47731018 10.22506714 C21.45510559 11.20976183 22.43271647 12.19463979 23.41015625 13.1796875 C24.42439337 14.19511826 25.43900212 15.21017794 26.45396423 16.22488403 C28.57602224 18.3485025 30.69469049 20.47542587 32.81079102 22.60498047 C35.51458224 25.32574982 38.22489786 28.03990161 40.93756962 30.75181389 C43.03201849 32.84653557 45.12384413 34.94386039 47.21481133 37.04205704 C48.21290309 38.0433165 49.21158888 39.0439842 50.21089363 40.04403305 C51.61063652 41.44596037 53.00668391 42.85157444 54.40258789 44.25732422 C55.19580948 45.0543576 55.98903107 45.85139099 56.80628967 46.6725769 C59 49 59 49 61.11546326 51.65188599 C63.16275445 54.20279042 65.39045851 56.04284388 68 58 C66.81699845 62.14050543 65.01284546 64.01104658 61.64453125 66.6171875 C59.27892776 68.60631728 57.41069712 70.931917 55.4375 73.30078125 C52.76043916 76.46524175 49.91950353 79.29827362 46.625 81.8125 C44.48228919 83.59809234 42.90478441 85.20581641 41.125 87.3125 C35.69827909 93.67569045 29.63063254 99.44612665 23.69165039 105.32495117 C20.78767826 108.20042422 17.88895683 111.07897659 15.05078125 114.01953125 C14.47714844 114.61121094 13.90351562 115.20289063 13.3125 115.8125 C12.73113281 116.41707031 12.14976563 117.02164063 11.55078125 117.64453125 C10 119 10 119 8 119 C8 111.41 8 103.82 8 96 C7.34 96 6.68 96 6 96 C6 95.34 6 94.68 6 94 C4.68 94.33 3.36 94.66 2 95 C2 91.37 2 87.74 2 84 C1.67 95.88 1.34 107.76 1 120 C0.34 120 -0.32 120 -1 120 C-1 119.34 -1 118.68 -1 118 C-1.556875 117.773125 -2.11375 117.54625 -2.6875 117.3125 C-6.31799803 115.25194706 -9.22600435 112.59352047 -11.0625 108.8125 C-12.28932157 106.44064497 -13.60940779 106.08663282 -16 105 C-18.58727596 102.89184922 -19.43416161 101.28186266 -20 98 C-21.32 97.67 -22.64 97.34 -24 97 C-24 96.34 -24 95.68 -24 95 C-24.99 95 -25.98 95 -27 95 C-28.68359375 93.390625 -28.68359375 93.390625 -30.4375 91.25 C-32.37942147 88.92133993 -34.26236735 86.74436002 -36.4375 84.625 C-38 83 -38 83 -38 81 C-38.66 81 -39.32 81 -40 81 C-38.82548531 78.22387436 -37.33031986 76.1349731 -35.375 73.875 C-32.78770618 71.36453083 -32.78770618 71.36453083 -33 69 C-32.34 69 -31.68 69 -31 69 C-31.20625 68.278125 -31.4125 67.55625 -31.625 66.8125 C-32.05952211 63.55358415 -31.41680669 61.91695496 -30 59 C-34.70466746 62.82938049 -39.07395018 66.78212445 -43.0625 71.375 C-43.701875 71.91125 -44.34125 72.4475 -45 73 C-47.25 72.75 -47.25 72.75 -49 72 C-49 71.34 -49 70.68 -49 70 C-49.99 69.67 -50.98 69.34 -52 69 C-52 68.34 -52 67.68 -52 67 C-52.99 66.67 -53.98 66.34 -55 66 C-57.75 63.6875 -57.75 63.6875 -60 61 C-59.92261052 56.73018481 -56.63064518 54.22333877 -53.77758789 51.42114258 C-53.2344545 50.87596481 -52.69132111 50.33078705 -52.13172913 49.76908875 C-50.33587494 47.97022818 -48.52951204 46.18233565 -46.72265625 44.39453125 C-45.47276067 43.14769336 -44.22345507 41.9002638 -42.97471619 40.65226746 C-40.35722385 38.03937715 -37.73489771 35.43147469 -35.10864258 32.82739258 C-31.73785202 29.48491344 -28.37582618 26.1337908 -25.01693058 22.77936268 C-22.43785392 20.20443716 -19.8559579 17.63235562 -17.27300835 15.06131554 C-16.03215304 13.8261673 -14.79177145 12.59054297 -13.55186653 11.35444069 C-11.82111368 9.63054202 -10.08702247 7.91007867 -8.35180664 6.19067383 C-7.83692688 5.67691193 -7.32204712 5.16315002 -6.79156494 4.63381958 C-2.10106041 0 -2.10106041 0 0 0 Z " fill="#252526" transform="translate(109,53)"/>
<path d="M0 0 C3.78637092 2.09494057 6.67376111 4.4253619 9.72680664 7.48388672 C10.63447281 8.38847626 11.54213898 9.2930658 12.47731018 10.22506714 C13.45510559 11.20976183 14.43271647 12.19463979 15.41015625 13.1796875 C16.42439337 14.19511826 17.43900212 15.21017794 18.45396423 16.22488403 C20.57602224 18.3485025 22.69469049 20.47542587 24.81079102 22.60498047 C27.51458224 25.32574982 30.22489786 28.03990161 32.93756962 30.75181389 C35.03201849 32.84653557 37.12384413 34.94386039 39.21481133 37.04205704 C40.21290309 38.0433165 41.21158888 39.0439842 42.21089363 40.04403305 C43.61063652 41.44596037 45.00668391 42.85157444 46.40258789 44.25732422 C47.19580948 45.0543576 47.98903107 45.85139099 48.80628967 46.6725769 C51 49 51 49 53.11546326 51.65188599 C55.16275445 54.20279042 57.39045851 56.04284388 60 58 C58.81699845 62.14050543 57.01284546 64.01104658 53.64453125 66.6171875 C51.27892776 68.60631728 49.41069712 70.931917 47.4375 73.30078125 C44.76043916 76.46524175 41.91950353 79.29827362 38.625 81.8125 C36.48228919 83.59809234 34.90478441 85.20581641 33.125 87.3125 C27.69827909 93.67569045 21.63063254 99.44612665 15.69165039 105.32495117 C12.78767826 108.20042422 9.88895683 111.07897659 7.05078125 114.01953125 C6.47714844 114.61121094 5.90351562 115.20289063 5.3125 115.8125 C4.73113281 116.41707031 4.14976563 117.02164063 3.55078125 117.64453125 C2 119 2 119 0 119 C-2.14346792 109.94424693 -3.6850056 99.83017472 0 91 C7.67575904 78.83934362 20.11239442 69.18758481 31 60 C27.29713762 55.4555593 23.49682332 51.56167132 18.9453125 47.83203125 C-0.28282953 31.3420768 -0.28282953 31.3420768 -1.63671875 20.1328125 C-1.82515369 13.34020191 -1.2194242 6.68094377 0 0 Z " fill="#F8F8F8" transform="translate(117,53)"/>
<path d="M0 0 C0.17501567 4.52034057 0.28110321 9.03980447 0.375 13.5625 C0.42527344 14.83931641 0.47554687 16.11613281 0.52734375 17.43164062 C0.69310056 28.06770277 0.69310056 28.06770277 -2.83203125 32.23828125 C-4.40161133 33.7199707 -4.40161133 33.7199707 -6 35 C-6.51006592 35.44110107 -7.02013184 35.88220215 -7.5456543 36.33666992 C-9.01089059 37.58116564 -10.50507084 38.79133387 -12 40 C-14.49850776 42.3795312 -16.77121745 44.70258268 -18.875 47.4375 C-21.13270268 50.16002381 -23.56518194 52.27089833 -26.26953125 54.53125 C-29.64929993 57.39985727 -32.5901697 60.49310463 -35.375 63.9375 C-37.30097694 66.27054463 -39.33642721 68.38704489 -41.5625 70.4375 C-42.12066406 70.95183594 -42.67882812 71.46617188 -43.25390625 71.99609375 C-45 73 -45 73 -47.21484375 72.66015625 C-48.09849609 72.33337891 -48.09849609 72.33337891 -49 72 C-49 71.34 -49 70.68 -49 70 C-49.99 69.67 -50.98 69.34 -52 69 C-52 68.34 -52 67.68 -52 67 C-52.99 66.67 -53.98 66.34 -55 66 C-57.75 63.6875 -57.75 63.6875 -60 61 C-59.92261052 56.73018481 -56.63064518 54.22333877 -53.77758789 51.42114258 C-53.2344545 50.87596481 -52.69132111 50.33078705 -52.13172913 49.76908875 C-50.33587494 47.97022818 -48.52951204 46.18233565 -46.72265625 44.39453125 C-45.47276067 43.14769336 -44.22345507 41.9002638 -42.97471619 40.65226746 C-40.35722385 38.03937715 -37.73489771 35.43147469 -35.10864258 32.82739258 C-31.73785202 29.48491344 -28.37582618 26.1337908 -25.01693058 22.77936268 C-22.43785392 20.20443716 -19.8559579 17.63235562 -17.27300835 15.06131554 C-16.03215304 13.8261673 -14.79177145 12.59054297 -13.55186653 11.35444069 C-11.82111368 9.63054202 -10.08702247 7.91007867 -8.35180664 6.19067383 C-7.83692688 5.67691193 -7.32204712 5.16315002 -6.79156494 4.63381958 C-2.10106041 0 -2.10106041 0 0 0 Z " fill="#F8F8F8" transform="translate(109,53)"/>
<path d="M0 0 C0.04946866 4.07507572 0.08575189 8.15003497 0.10986328 12.2253418 C0.1199157 13.61144048 0.1335597 14.99751799 0.15087891 16.38354492 C0.17515952 18.3766975 0.18542031 20.37000533 0.1953125 22.36328125 C0.21102295 24.16212769 0.21102295 24.16212769 0.22705078 25.99731445 C0 29 0 29 -2 32 C-2.66 32 -3.32 32 -4 32 C-4.38671875 32.87398437 -4.38671875 32.87398437 -4.78125 33.765625 C-6.09834017 36.1802903 -7.55088384 37.81740177 -9.5 39.75 C-10.41265625 40.67039062 -10.41265625 40.67039062 -11.34375 41.609375 C-13 43 -13 43 -15 43 C-15.268125 43.639375 -15.53625 44.27875 -15.8125 44.9375 C-17 47 -17 47 -20 48 C-20 48.66 -20 49.32 -20 50 C-21.62626404 51.38232443 -23.2925002 52.71937515 -25 54 C-30.17887923 51.41056039 -34.26250946 47.36813411 -38 43 C-38 42.34 -38 41.68 -38 41 C-38.66 41 -39.32 41 -40 41 C-38.58234925 37.7797803 -36.87664194 35.62827427 -34.39233398 33.14941406 C-33.65494492 32.40894836 -32.91755585 31.66848267 -32.15782166 30.90557861 C-31.36195145 30.11689392 -30.56608124 29.32820923 -29.74609375 28.515625 C-28.93004166 27.70003113 -28.11398956 26.88443726 -27.27320862 26.04412842 C-25.54982011 24.3237585 -23.8240043 22.6058172 -22.09594727 20.89013672 C-19.43902715 18.25151663 -16.79023958 15.60493838 -14.14257812 12.95703125 C-12.46922215 11.28858882 -10.79540975 9.62060402 -9.12109375 7.953125 C-7.92425209 6.75795258 -7.92425209 6.75795258 -6.70323181 5.53863525 C-5.9689949 4.8107782 -5.234758 4.08292114 -4.47827148 3.33300781 C-3.82922348 2.68777161 -3.18017548 2.0425354 -2.51145935 1.37774658 C-1 0 -1 0 0 0 Z " fill="#F7F7F7" transform="translate(109,93)"/>
<path d="M0 0 C0 12.21 0 24.42 0 37 C-4.61264293 34.23241424 -8.66039068 31.75801918 -11.0625 26.8125 C-12.28932157 24.44064497 -13.60940779 24.08663282 -16 23 C-17.75 21.5625 -17.75 21.5625 -19 20 C-19 19.01 -19 18.02 -19 17 C-17.57594702 15.74153457 -16.14229938 14.49115679 -14.6484375 13.31640625 C-11.1260955 10.50354072 -8.15342261 7.23054554 -5.3125 3.75 C-2.15909091 0 -2.15909091 0 0 0 Z " fill="#F8F8F8" transform="translate(109,135)"/>
<path d="M0 0 C0.66 0.33 1.32 0.66 2 1 C2 1.99 2 2.98 2 4 C1.34 4 0.68 4 0 4 C-0.33 5.32 -0.66 6.64 -1 8 C0.32 8.33 1.64 8.66 3 9 C2.67 9.66 2.34 10.32 2 11 C1.91413191 13.32416296 1.89288957 15.65083307 1.90234375 17.9765625 C1.90446617 19.00443375 1.90446617 19.00443375 1.90663147 20.05307007 C1.91223325 22.24375761 1.92478594 24.4343433 1.9375 26.625 C1.94251478 28.10937352 1.94707772 29.59374865 1.95117188 31.078125 C1.96220323 34.71878315 1.97946901 38.35938164 2 42 C1.34 41.67 0.68 41.34 0 41 C0 31.76 0 22.52 0 13 C-3.45425403 16.65180979 -3.45425403 16.65180979 -6.87988281 20.33032227 C-8.203125 21.69140625 -8.203125 21.69140625 -11 24 C-13.359375 23.83984375 -13.359375 23.83984375 -15 23 C-15 22.34 -15 21.68 -15 21 C-14.34 21 -13.68 21 -13 21 C-13 19.68 -13 18.36 -13 17 C-13.66 16.34 -14.32 15.68 -15 15 C-14.01 14.67 -13.02 14.34 -12 14 C-11.29848848 12.6846659 -10.63474075 11.34882408 -10 10 C-8.5 8.25 -8.5 8.25 -7 7 C-6.34 7 -5.68 7 -5 7 C-4.731875 6.401875 -4.46375 5.80375 -4.1875 5.1875 C-3.01506533 3.02775192 -1.80630718 1.64209744 0 0 Z " fill="#2A2A2A" transform="translate(108,81)"/>
<path d="M0 0 C0.66 0.33 1.32 0.66 2 1 C2 1.99 2 2.98 2 4 C1.34 4 0.68 4 0 4 C-0.33 5.32 -0.66 6.64 -1 8 C0.32 8.33 1.64 8.66 3 9 C2.67 9.66 2.34 10.32 2 11 C1.91413191 13.32416296 1.89288957 15.65083307 1.90234375 17.9765625 C1.90446617 19.00443375 1.90446617 19.00443375 1.90663147 20.05307007 C1.91223325 22.24375761 1.92478594 24.4343433 1.9375 26.625 C1.94251478 28.10937352 1.94707772 29.59374865 1.95117188 31.078125 C1.96220323 34.71878315 1.97946901 38.35938164 2 42 C1.34 41.67 0.68 41.34 0 41 C0 31.43 0 21.86 0 12 C-1.98 11.34 -3.96 10.68 -6 10 C-6.33 9.01 -6.66 8.02 -7 7 C-6.34 7 -5.68 7 -5 7 C-4.731875 6.401875 -4.46375 5.80375 -4.1875 5.1875 C-3.01506533 3.02775192 -1.80630718 1.64209744 0 0 Z " fill="#4B4B4C" transform="translate(108,81)"/>
<path d="M0 0 C0.33 0.99 0.66 1.98 1 3 C2.32 3 3.64 3 5 3 C3.62059852 6.33355357 2.27312543 8.36343728 -1 10 C-4.25 9.1875 -4.25 9.1875 -7 8 C-7 7.34 -7 6.68 -7 6 C-7.99 6 -8.98 6 -10 6 C-9.67 5.34 -9.34 4.68 -9 4 C-8.01 4 -7.02 4 -6 4 C-5.67 3.01 -5.34 2.02 -5 1 C-3 0 -3 0 0 0 Z " fill="#2E2E2F" transform="translate(92,142)"/>
<path d="M0 0 C1.33332095 2.6666419 0.67102033 4.16680303 0 7 C-1.32 7 -2.64 7 -4 7 C-6.31140296 9.76148156 -6.31140296 9.76148156 -5.6875 12.5625 C-5.08760162 14.98114611 -5.08760162 14.98114611 -4 17 C-8.75 16.25 -8.75 16.25 -11 14 C-10.86126348 9.74541334 -7.84182675 7.54403586 -4.9375 4.75 C-4.01839844 3.85796875 -3.09929688 2.9659375 -2.15234375 2.046875 C-1.44207031 1.37140625 -0.73179688 0.6959375 0 0 Z " fill="#E4E4E4" transform="translate(60,100)"/>
<path d="M0 0 C2.475 0.99 2.475 0.99 5 2 C5 6.61590466 3.55971281 8.4136342 0.375 11.75 C-0.40875 12.4925 -1.1925 13.235 -2 14 C-2.99 13.67 -3.98 13.34 -5 13 C-4.34 11.68 -3.68 10.36 -3 9 C-2.34 9 -1.68 9 -1 9 C-1.020625 7.88625 -1.04125 6.7725 -1.0625 5.625 C-1 2 -1 2 0 0 Z " fill="#202020" transform="translate(86,104)"/>
<path d="M0 0 C0 0.66 0 1.32 0 2 C0.061875 2.99 0.12375 3.98 0.1875 5 C0.125625 5.99 0.06375 6.98 0 8 C-0.99 8.66 -1.98 9.32 -3 10 C-3.33 9.01 -3.66 8.02 -4 7 C-4.99 6.67 -5.98 6.34 -7 6 C-6.01 5.34 -5.02 4.68 -4 4 C-4.99 3.67 -5.98 3.34 -7 3 C-6.01 2.67 -5.02 2.34 -4 2 C-4.66 1.34 -5.32 0.68 -6 0 C-2.25 -1.125 -2.25 -1.125 0 0 Z " fill="#282828" transform="translate(175,98)"/>
<path d="M0 0 C1.14926266 0.95421808 2.29430541 1.91352045 3.4375 2.875 C4.07558594 3.40867187 4.71367187 3.94234375 5.37109375 4.4921875 C7 6 7 6 8 8 C7.0625 10.125 7.0625 10.125 6 12 C5.34 12 4.68 12 4 12 C3.690625 11.21625 3.38125 10.4325 3.0625 9.625 C2.07124962 7.07669872 2.07124962 7.07669872 1 5 C0.33333333 3.66666667 -0.33333333 2.33333333 -1 1 C-0.67 0.67 -0.34 0.34 0 0 Z " fill="#29292A" transform="translate(134,98)"/>
<path d="M0 0 C1.5 1.375 1.5 1.375 3 3 C3 3.66 3 4.32 3 5 C3.33 5.66 3.66 6.32 4 7 C0.49064814 7 -2.56484998 6.62457273 -6 6 C-6 5.34 -6 4.68 -6 4 C-4.36368108 2.95107762 -2.69514137 1.95093297 -1 1 C-0.67 0.67 -0.34 0.34 0 0 Z " fill="#2F2F30" transform="translate(122,168)"/>
<path d="M0 0 C1.98 0.66 3.96 1.32 6 2 C6 2.66 6 3.32 6 4 C6.66 4.33 7.32 4.66 8 5 C6.824375 4.9690625 6.824375 4.9690625 5.625 4.9375 C3.01885039 4.81315937 3.01885039 4.81315937 1 6 C-0.67654729 5.72057545 -2.34608154 5.39171753 -4 5 C-2.68 3.35 -1.36 1.7 0 0 Z " fill="#1D1D1E" transform="translate(103,128)"/>
<path d="M0 0 C0.598125 0.33 1.19625 0.66 1.8125 1 C4.05386471 2.20787988 4.05386471 2.20787988 7 2 C6.75 3.875 6.75 3.875 6 6 C3.9375 7.25 3.9375 7.25 2 8 C0.93224776 6.03533587 -0.06553465 4.03144641 -1 2 C-0.67 1.34 -0.34 0.68 0 0 Z " fill="#212121" transform="translate(101,89)"/>
<path d="M0 0 C1.98 0 3.96 0 6 0 C4.35 1.98 2.7 3.96 1 6 C-0.32 5.67 -1.64 5.34 -3 5 C-2.34 4.01 -1.68 3.02 -1 2 C-0.67 1.34 -0.34 0.68 0 0 Z " fill="#EEEEEE" transform="translate(63,120)"/>
<path d="M0 0 C1.04449911 3.13349732 0.93423645 3.98968256 0 7 C-0.99 7 -1.98 7 -3 7 C-3 7.66 -3 8.32 -3 9 C-3.66 8.67 -4.32 8.34 -5 8 C-4.34 6.68 -3.68 5.36 -3 4 C-3.66 4 -4.32 4 -5 4 C-5 3.34 -5 2.68 -5 2 C-3.35 1.34 -1.7 0.68 0 0 Z " fill="#2E2E30" transform="translate(181,105)"/>
<path d="M0 0 C1.17539996 0.92652701 2.34010577 1.86663387 3.5 2.8125 C4.1496875 3.33457031 4.799375 3.85664062 5.46875 4.39453125 C7 6 7 6 7 9 C6.01 9 5.02 9 4 9 C2.98133771 7.34467377 1.98189187 5.67739862 1 4 C0.01 3.67 -0.98 3.34 -2 3 C-1.34 2.01 -0.68 1.02 0 0 Z " fill="#2B2B2B" transform="translate(120,84)"/>
<path d="M0 0 C0 2.31 0 4.62 0 7 C-0.99 6.34 -1.98 5.68 -3 5 C-4.32 6.32 -5.64 7.64 -7 9 C-6.63229616 5.6906654 -3.81323709 0 0 0 Z " fill="#ECECED" transform="translate(109,135)"/>
<path d="M0 0 C-0.33 0.66 -0.66 1.32 -1 2 C-0.67 2.33 -0.34 2.66 0 3 C-0.33 3.66 -0.66 4.32 -1 5 C-2.98 5 -4.96 5 -7 5 C-6.67 3.35 -6.34 1.7 -6 0 C-2.25 -1.125 -2.25 -1.125 0 0 Z " fill="#292929" transform="translate(111,125)"/>
<path d="M0 0 C2.475 0.495 2.475 0.495 5 1 C5.625 2.875 5.625 2.875 6 5 C5.34 5.66 4.68 6.32 4 7 C2 5.1875 2 5.1875 0 3 C0 2.01 0 1.02 0 0 Z " fill="#DCDCDD" transform="translate(90,152)"/>
<path d="M0 0 C0.66 0 1.32 0 2 0 C2.33 0.99 2.66 1.98 3 3 C1.35 4.32 -0.3 5.64 -2 7 C-2.99 6.34 -3.98 5.68 -5 5 C-4.67 4.34 -4.34 3.68 -4 3 C-3.34 3 -2.68 3 -2 3 C-1.34 2.01 -0.68 1.02 0 0 Z " fill="#2A2A2B" transform="translate(121,135)"/>
<path d="M0 0 C2.97 0.495 2.97 0.495 6 1 C4.35 2.98 2.7 4.96 1 7 C0.34 6.67 -0.32 6.34 -1 6 C-0.67 4.02 -0.34 2.04 0 0 Z " fill="#3B3B3C" transform="translate(99,137)"/>
<path d="M0 0 C0.99 0.33 1.98 0.66 3 1 C2.04578192 2.14926266 1.08647955 3.29430541 0.125 4.4375 C-0.40867187 5.07558594 -0.94234375 5.71367187 -1.4921875 6.37109375 C-3 8 -3 8 -5 9 C-5 8.01 -5 7.02 -5 6 C-4.34 6 -3.68 6 -3 6 C-2.690625 5.195625 -2.38125 4.39125 -2.0625 3.5625 C-1 1 -1 1 0 0 Z " fill="#D2D2D2" transform="translate(102,125)"/>
<path d="M0 0 C1.33332095 2.6666419 0.67102033 4.16680303 0 7 C-2.33333333 7 -4.66666667 7 -7 7 C-4.69 4.69 -2.38 2.38 0 0 Z " fill="#D1D1D2" transform="translate(60,100)"/>
<path d="M0 0 C1.65 0 3.3 0 5 0 C5 1.32 5 2.64 5 4 C3.68 4.33 2.36 4.66 1 5 C0.67 3.35 0.34 1.7 0 0 Z " fill="#1E1E1F" transform="translate(94,137)"/>
<path d="M0 0 C0.99 0 1.98 0 3 0 C3.33 0.66 3.66 1.32 4 2 C4.66 2.33 5.32 2.66 6 3 C4.68 3.99 3.36 4.98 2 6 C1.01 4.68 0.02 3.36 -1 2 C-0.67 1.34 -0.34 0.68 0 0 Z " fill="#29292A" transform="translate(162,93)"/>
<path d="M0 0 C0.33 0.66 0.66 1.32 1 2 C-1.84936103 5.00765886 -4.23511958 7.27845212 -8 9 C-7.04270084 7.87411986 -6.08412105 6.7493285 -5.125 5.625 C-4.59132812 4.99851562 -4.05765625 4.37203125 -3.5078125 3.7265625 C-2.38567993 2.44163349 -1.20628025 1.20628025 0 0 Z " fill="#E2E2E3" transform="translate(146,115)"/>
<path d="M0 0 C0 3.25811062 -0.5522078 5.10441559 -2 8 C-2.99 8.33 -3.98 8.66 -5 9 C-5.33 8.01 -5.66 7.02 -6 6 C-5.34 6 -4.68 6 -4 6 C-3.71125 5.38125 -3.4225 4.7625 -3.125 4.125 C-2 2 -2 2 0 0 Z " fill="#353536" transform="translate(92,97)"/>
<path d="M0 0 C0.99 0.33 1.98 0.66 3 1 C2.67 2.32 2.34 3.64 2 5 C1.01 5 0.02 5 -1 5 C-1 4.34 -1 3.68 -1 3 C-1.99 2.67 -2.98 2.34 -4 2 C-3.34 1.67 -2.68 1.34 -2 1 C-1.34 1.33 -0.68 1.66 0 2 C0 1.34 0 0.68 0 0 Z " fill="#3A3A3A" transform="translate(172,102)"/>
<path d="M0 0 C2.0625 0.4375 2.0625 0.4375 4 1 C4.33 2.32 4.66 3.64 5 5 C4.01 5 3.02 5 2 5 C0.3125 3 0.3125 3 -1 1 C-0.67 0.67 -0.34 0.34 0 0 Z " fill="#ECECEC" transform="translate(129,90)"/>
<path d="M0 0 C0.33 1.32 0.66 2.64 1 4 C-0.98 5.32 -2.96 6.64 -5 8 C-5.66 7.67 -6.32 7.34 -7 7 C-4.69 4.69 -2.38 2.38 0 0 Z " fill="#CECECE" transform="translate(85,75)"/>
<path d="M0 0 C0.598125 0.185625 1.19625 0.37125 1.8125 0.5625 C4.16408762 1.22093687 4.16408762 1.22093687 7 0 C6.34 1.32 5.68 2.64 5 4 C2.03 3.505 2.03 3.505 -1 3 C-0.67 2.01 -0.34 1.02 0 0 Z " fill="#1C1C1D" transform="translate(100,134)"/>
<path d="M0 0 C0.33 1.32 0.66 2.64 1 4 C0.01 4.66 -0.98 5.32 -2 6 C-2.99 5.34 -3.98 4.68 -5 4 C-3.35 2.68 -1.7 1.36 0 0 Z " fill="#E2E2E3" transform="translate(108,53)"/>
</svg>
