<?xml version="1.0" encoding="UTF-8"?>
<svg version="1.1" xmlns="http://www.w3.org/2000/svg" width="225" height="225">
<path d="M0 0 C74.25 0 148.5 0 225 0 C225 74.25 225 148.5 225 225 C150.75 225 76.5 225 0 225 C0 150.75 0 76.5 0 0 Z " fill="#020112" transform="translate(0,0)"/>
<path d="M0 0 C13.97772279 -0.1169045 27.95536956 -0.2046901 41.93348122 -0.25906086 C48.42408833 -0.28515599 54.91436705 -0.32055384 61.40478516 -0.37719727 C67.66824955 -0.43151802 73.93139804 -0.46142117 80.1950798 -0.47438622 C82.58492379 -0.48362582 84.97475046 -0.50166859 87.36445999 -0.52865028 C90.71161531 -0.56493977 94.05746481 -0.56994515 97.40478516 -0.56762695 C98.39309326 -0.58560333 99.38140137 -0.60357971 100.3996582 -0.62210083 C104.89485156 -0.5884065 108.00388898 -0.48811513 111.57235718 2.41828918 C114.9698871 6.03144004 116.03035156 7.36101586 115.9375 12.375 C114.76861104 16.89470397 113.23428701 18.68682794 110 22 C106.8376795 23.58116025 103.44158293 23.12937122 99.97021484 23.11352539 C99.14086929 23.11367142 98.31152374 23.11381744 97.45704651 23.1139679 C94.70831715 23.11326971 91.95965506 23.10548171 89.2109375 23.09765625 C87.30807533 23.09579174 85.40521268 23.09436799 83.50234985 23.09336853 C78.48818644 23.08954599 73.47405189 23.07971793 68.4598999 23.06866455 C63.34566641 23.05844479 58.23142826 23.0538697 53.1171875 23.04882812 C43.07811231 23.03809545 33.03905855 23.02102216 23 23 C23.02094727 24.11971191 23.04189453 25.23942383 23.06347656 26.39306641 C23.13610426 30.56383377 23.18188211 34.73454568 23.21972656 38.90576172 C23.23979033 40.70794081 23.26704813 42.51005521 23.30175781 44.31201172 C23.35050829 46.90869136 23.37302082 49.50450729 23.390625 52.1015625 C23.41127014 52.9017984 23.43191528 53.7020343 23.45318604 54.52651978 C23.45529321 59.8295001 22.48478507 62.7717397 19 67 C16.03458068 69.32997232 12.76362166 69.47425413 9.03515625 69.390625 C5.34208047 68.68178128 3.56356018 66.68861189 1 64 C-0.07619365 60.77141906 -0.12052496 58.45460721 -0.11352539 55.05981445 C-0.11344986 53.83877518 -0.11337433 52.6177359 -0.11329651 51.35969543 C-0.10813522 50.04087875 -0.10297394 48.72206207 -0.09765625 47.36328125 C-0.0957908 45.99993441 -0.0943675 44.63658689 -0.09336853 43.27323914 C-0.08955332 39.68771509 -0.07973155 36.10223165 -0.06866455 32.51672363 C-0.05842901 28.8568578 -0.05386632 25.1969854 -0.04882812 21.53710938 C-0.03810838 14.35805442 -0.02104393 7.1790329 0 0 Z " fill="#FDFDFD" transform="translate(55,101)"/>
<path d="M0 0 C1.28505936 -0.00960754 2.57011871 -0.01921509 3.89411926 -0.02911377 C5.30400414 -0.03396202 6.71389107 -0.03824079 8.1237793 -0.04199219 C9.56625877 -0.04774422 11.00873822 -0.05350195 12.45121765 -0.05926514 C15.47838701 -0.06977667 18.5055298 -0.07561805 21.53271484 -0.07910156 C25.40650507 -0.08458076 29.27994281 -0.10859544 33.15362263 -0.13707352 C36.13481155 -0.15572534 39.1159161 -0.16090688 42.09715843 -0.16243744 C43.52487295 -0.16545976 44.95258613 -0.17347413 46.3802433 -0.18662262 C48.38102865 -0.20373114 50.38195938 -0.19995111 52.3828125 -0.1953125 C53.52039505 -0.19895813 54.6579776 -0.20260376 55.83003235 -0.20635986 C59.92640525 0.28632675 62.35343713 2.06680359 65.63549805 4.41113281 C67.66814274 7.25683538 67.76854904 9.71113722 67.88549805 13.16113281 C66.21381854 17.89755807 64.03697631 20.3981032 59.88549805 23.16113281 C56.81898499 23.67579651 56.81898499 23.67579651 53.35449219 23.69458008 C52.05286636 23.71041641 50.75124054 23.72625275 49.41017151 23.74256897 C47.99699545 23.73872713 46.5838222 23.73368788 45.1706543 23.72753906 C43.71243392 23.73277764 42.25421693 23.73905498 40.79600525 23.74632263 C37.74372382 23.75671624 34.69190888 23.7521814 31.63964844 23.73754883 C27.73762617 23.72036915 23.8370776 23.74384909 19.93521976 23.77903843 C16.92474197 23.80105313 13.91461455 23.79956122 10.90408134 23.79127312 C9.46603212 23.79045566 8.02795664 23.7972797 6.58998299 23.81204414 C-6.03933367 23.92183743 -6.03933367 23.92183743 -9.97998047 20.74682617 C-13.182026 16.86796717 -13.50560654 14.40734316 -13.47387695 9.48925781 C-12.86905917 5.57109045 -10.94573438 3.85754465 -8.11450195 1.16113281 C-5.34921388 -0.22151123 -3.09460462 0.0186135 0 0 Z " fill="#FDFDFC" transform="translate(103.114501953125,54.8388671875)"/>
<path d="M0 0 C3.25887865 1.32945887 6.21939101 2.79394138 8.18212891 5.82641602 C9.76423519 10.03104056 9.3692367 14.49687398 9.375 18.9375 C9.39949219 19.92685547 9.42398438 20.91621094 9.44921875 21.93554688 C9.47862132 29.22248454 9.47862132 29.22248454 7.0859375 33.109375 C3.23582225 36.59899257 0.36861891 37.51616986 -4.96875 37.38671875 C-8.68051579 36.68005565 -10.41650543 34.70651812 -13 32 C-15.61962894 27.64364996 -15.36744465 23.58130758 -15.375 18.625 C-15.39949219 17.78710938 -15.42398438 16.94921875 -15.44921875 16.0859375 C-15.47532818 10.5507386 -14.69869091 7.37859733 -11 3 C-7.32088652 0.09543673 -4.64919083 -0.65088672 0 0 Z " fill="#F8F7F8" transform="translate(115,133)"/>
<path d="M0 0 C3.75212276 2.01502889 5.63644095 3.45466142 8 7 C8.46972834 11.77557141 8.47049228 14.05901543 6.3125 18.375 C2.92409134 22.22130173 0.56285842 22.80109075 -4.4375 23.4375 C-9.22048092 22.85011638 -10.66254597 21.41691722 -14 18 C-15.24300105 14.27099684 -15.6711674 10.86650786 -15 7 C-11.40114174 0.74228377 -7.02725359 -0.96657391 0 0 Z " fill="#F7F8F8" transform="translate(70,55)"/>
<path d="M0 0 C1.9375 1.0625 1.9375 1.0625 3 3 C3.39281877 6.09344778 3.63008105 8.04575205 3 11 C0.42627616 14.02791041 -1.15246594 14.86162709 -5.0625 15.5 C-8.74049726 14.87395791 -9.84918889 14.02706748 -12 11 C-13 8.0625 -13 8.0625 -13 5 C-9.16642876 -0.94864503 -6.81284355 -1.43428285 0 0 Z " fill="#CECDD5" transform="translate(147,155)"/>
<path d="M0 0 C1.65 0.33 3.3 0.66 5 1 C5 1.66 5 2.32 5 3 C6.0725 2.814375 7.145 2.62875 8.25 2.4375 C11.40391546 2.0695432 13.09818492 1.95534657 16 3 C16 3.99 16 4.98 16 6 C16.99 6 17.98 6 19 6 C19 6.66 19 7.32 19 8 C20.65 8 22.3 8 24 8 C22.68 8.99 21.36 9.98 20 11 C19.175 10.505 18.35 10.01 17.5 9.5 C13.07929734 7.60541315 10.77916512 7.46898165 6 8 C3.1899654 9.79363911 1.49059532 11.01880935 0 14 C-0.66 14 -1.32 14 -2 14 C-2.66 15.32 -3.32 16.64 -4 18 C-4.33 17.01 -4.66 16.02 -5 15 C-5.99 15.495 -5.99 15.495 -7 16 C-7.93065133 13.39417629 -8.14917407 12.35801776 -7.0625 9.75 C-6.711875 9.1725 -6.36125 8.595 -6 8 C-5.071875 8.0825 -4.14375 8.165 -3.1875 8.25 C0.06378457 8.34224813 0.06378457 8.34224813 1.875 6.125 C3.15596257 4.1061412 3.15596257 4.1061412 3 2 C2.01 2.33 1.02 2.66 0 3 C0 2.01 0 1.02 0 0 Z " fill="#050735" transform="translate(56,48)"/>
<path d="M0 0 C0.99 1.32 1.98 2.64 3 4 C-0.58516028 6.39010685 -2.14266967 6.24326602 -6.39916992 6.22705078 C-7.04334366 6.22734283 -7.6875174 6.22763489 -8.35121155 6.22793579 C-10.47776823 6.22654384 -12.60397337 6.21098938 -14.73046875 6.1953125 C-16.20591541 6.19158188 -17.68136455 6.18873514 -19.15681458 6.18673706 C-23.03830822 6.17910442 -26.91965196 6.15945917 -30.80108643 6.1373291 C-34.76255261 6.11686269 -38.72404305 6.10773365 -42.68554688 6.09765625 C-50.45709956 6.07621286 -58.22852877 6.04208145 -66 6 C-66 5.67 -66 5.34 -66 5 C-65.20264435 4.98969254 -64.4052887 4.97938507 -63.58377075 4.96876526 C-56.0790848 4.87089432 -48.57448326 4.76839487 -41.06993294 4.66066074 C-37.21152754 4.60543434 -33.35311456 4.55201481 -29.49462891 4.50268555 C-25.77281878 4.45503779 -22.05110191 4.40269486 -18.32940292 4.34705925 C-16.90762522 4.32663755 -15.48582194 4.30792415 -14.06399918 4.29092598 C-12.07662369 4.26687819 -10.08933095 4.23626002 -8.10205078 4.20532227 C-6.96953888 4.18977798 -5.83702698 4.1742337 -4.67019653 4.15821838 C-2.02672207 4.17732998 -2.02672207 4.17732998 0 3 C0 2.01 0 1.02 0 0 Z " fill="#E8E7EE" transform="translate(163,72)"/>
<path d="M0 0 C0.66 0 1.32 0 2 0 C2.22397733 2.04000973 2.42848537 4.08216189 2.625 6.125 C2.74101563 7.26195313 2.85703125 8.39890625 2.9765625 9.5703125 C3.00120277 13.1760048 2.17514426 15.62743152 1 19 C1.33 19.99 1.66 20.98 2 22 C0.02 22 -1.96 22 -4 22 C-3.505 20.515 -3.505 20.515 -3 19 C-3 18.01 -3 17.02 -3 16 C-2.67128906 15.39542969 -2.34257813 14.79085937 -2.00390625 14.16796875 C-0.72547635 11.40715709 -0.83651101 9.33813021 -0.9375 6.3125 C-0.99142463 4.5423653 -1.02048903 2.77083735 -1 1 C-0.67 0.67 -0.34 0.34 0 0 Z " fill="#060726" transform="translate(78,58)"/>
<path d="M0 0 C3.63 0 7.26 0 11 0 C9.7260411 2.03833424 8.38938077 4.03852126 7 6 C6.34 6 5.68 6 5 6 C4.34 7.32 3.68 8.64 3 10 C2.67 9.01 2.34 8.02 2 7 C1.01 7.495 1.01 7.495 0 8 C-1.08174162 4.63458162 -0.92538169 3.70152678 0 0 Z " fill="#040529" transform="translate(49,56)"/>
<path d="M0 0 C3.125 0.375 3.125 0.375 5.5625 2 C7.125 4.375 7.125 4.375 7 7.5625 C6.566875 8.9546875 6.566875 8.9546875 6.125 10.375 C5.135 10.87 5.135 10.87 4.125 11.375 C4.125 8.405 4.125 5.435 4.125 2.375 C1.815 2.375 -0.495 2.375 -2.875 2.375 C-2.875 5.345 -2.875 8.315 -2.875 11.375 C-3.865 10.385 -4.855 9.395 -5.875 8.375 C-5.58270666 3.60087541 -5.19176967 0.67718735 0 0 Z " fill="#36353E" transform="translate(141.875,155.625)"/>
<path d="M0 0 C2.31 0 4.62 0 7 0 C7 2.97 7 5.94 7 9 C6.34 9 5.68 9 5 9 C5 7.68 5 6.36 5 5 C4.01 5 3.02 5 2 5 C2 6.32 2 7.64 2 9 C1.34 9 0.68 9 0 9 C0 6.03 0 3.06 0 0 Z " fill="#C4C3CC" transform="translate(139,158)"/>
<path d="M0 0 C0.33 0 0.66 0 1 0 C1.16435547 0.90492187 1.16435547 0.90492187 1.33203125 1.828125 C2.50797128 7.93684987 2.50797128 7.93684987 6 13 C4.75 14.5625 4.75 14.5625 3 16 C0.8125 15.6875 0.8125 15.6875 -1 15 C-0.67 14.01 -0.34 13.02 0 12 C-0.165 11.443125 -0.33 10.88625 -0.5 10.3125 C-1.26889731 6.75634992 -0.53790842 3.5860561 0 0 Z " fill="#141531" transform="translate(89,64)"/>
<path d="M0 0 C0.53625 0.268125 1.0725 0.53625 1.625 0.8125 C0.635 1.1425 -0.355 1.4725 -1.375 1.8125 C-1.705 3.4625 -2.035 5.1125 -2.375 6.8125 C-3.365 6.8125 -4.355 6.8125 -5.375 6.8125 C-7.56277466 8.7500006 -7.56277466 8.7500006 -9.375 10.8125 C-9.23763203 7.85908865 -9.02332501 5.60735048 -7.11328125 3.265625 C-3.19065494 -0.25189381 -3.19065494 -0.25189381 0 0 Z " fill="#E0DFE7" transform="translate(64.375,55.1875)"/>
<path d="M0 0 C0.66 0 1.32 0 2 0 C2.05429959 1.74965358 2.09292823 3.49979787 2.125 5.25 C2.14820312 6.22453125 2.17140625 7.1990625 2.1953125 8.203125 C1.99862781 11.0196498 1.44568916 12.60949036 0 15 C-0.66 14.67 -1.32 14.34 -2 14 C-1.67 13.34 -1.34 12.68 -1 12 C-0.95485864 10.14638292 -0.96132958 8.29126337 -1 6.4375 C-1.03770315 4.62539219 -1.04653361 2.81190256 -1 1 C-0.67 0.67 -0.34 0.34 0 0 Z " fill="#10102B" transform="translate(78,58)"/>
<path d="M0 0 C2.64 0 5.28 0 8 0 C8 0.66 8 1.32 8 2 C9.65 2 11.3 2 13 2 C11.68 2.99 10.36 3.98 9 5 C4.545 3.02 4.545 3.02 0 1 C0 0.67 0 0.34 0 0 Z " fill="#0C0E2D" transform="translate(67,54)"/>
<path d="M0 0 C0.33 0 0.66 0 1 0 C1 3.3 1 6.6 1 10 C0.01 9.01 -0.98 8.02 -2 7 C-1.56521739 1.56521739 -1.56521739 1.56521739 0 0 Z " fill="#111118" transform="translate(138,157)"/>
<path d="M0 0 C-1.6415049 3.2830098 -4.82902851 4.27037919 -8 6 C-8.66 5.34 -9.32 4.68 -10 4 C-4.5 0 -4.5 0 0 0 Z " fill="#100F16" transform="translate(80,165)"/>
<path d="M0 0 C0.33 0.66 0.66 1.32 1 2 C-1.64 2.33 -4.28 2.66 -7 3 C-7.66 2.01 -8.32 1.02 -9 0 C-2.25 -1.125 -2.25 -1.125 0 0 Z " fill="#0C0B11" transform="translate(118,170)"/>
<path d="M0 0 C0.99 0 1.98 0 3 0 C3 1.32 3 2.64 3 4 C3.66 4.33 4.32 4.66 5 5 C2.69 5 0.38 5 -2 5 C-1.34 4.67 -0.68 4.34 0 4 C0 2.68 0 1.36 0 0 Z " fill="#08080F" transform="translate(141,163)"/>
<path d="M0 0 C0.99 0.33 1.98 0.66 3 1 C1.68 2.65 0.36 4.3 -1 6 C-1.66 4.68 -2.32 3.36 -3 2 C-2.01 1.34 -1.02 0.68 0 0 Z " fill="#121327" transform="translate(91,56)"/>
<path d="M0 0 C0.391875 0.474375 0.78375 0.94875 1.1875 1.4375 C3.40808374 3.35179633 5.13375709 3.61266988 8 4 C7.01 4.66 6.02 5.32 5 6 C2.375 5.3125 2.375 5.3125 0 4 C-0.33 3.01 -0.66 2.02 -1 1 C-0.67 0.67 -0.34 0.34 0 0 Z " fill="#A6A5AE" transform="translate(136,164)"/>
<path d="M0 0 C0.66 0.33 1.32 0.66 2 1 C1.625 3.9375 1.625 3.9375 1 7 C0.01 7.495 0.01 7.495 -1 8 C-1.125 2.25 -1.125 2.25 0 0 Z " fill="#12101A" transform="translate(147,159)"/>
<path d="M0 0 C1.32 0.99 2.64 1.98 4 3 C3.67 3.99 3.34 4.98 3 6 C1.68 5.34 0.36 4.68 -1 4 C-0.67 2.68 -0.34 1.36 0 0 Z " fill="#0D0C1C" transform="translate(57,74)"/>
</svg>
