<?xml version="1.0" encoding="UTF-8"?>
<svg version="1.1" xmlns="http://www.w3.org/2000/svg" width="225" height="225">
<path d="M0 0 C74.25 0 148.5 0 225 0 C225 74.25 225 148.5 225 225 C150.75 225 76.5 225 0 225 C0 150.75 0 76.5 0 0 Z " fill="#FD7702" transform="translate(0,0)"/>
<path d="M0 0 C0 34.98 0 69.96 0 106 C-18.48 106 -36.96 106 -56 106 C-56 75.31 -56 44.62 -56 13 C-50.72 11.02 -45.44 9.04 -40 7 C-35.26805243 5.05662822 -35.26805243 5.05662822 -30.55078125 3.078125 C-18.59117057 -1.97677936 -18.48525915 0 0 0 Z " fill="#FEFEFD" transform="translate(180,38)"/>
<path d="M0 0 C0 28.05 0 56.1 0 85 C-8.25 85 -16.5 85 -25 85 C-25 59.92 -25 34.84 -25 9 C-19.72 7.02 -14.44 5.04 -9 3 C-2 0 -2 0 0 0 Z " fill="#FDFEFD" transform="translate(110,58)"/>
<path d="M0 0 C0 23.1 0 46.2 0 70 C-8.58 70 -17.16 70 -26 70 C-26 50.2 -26 30.4 -26 10 C-19.73 7.36 -13.46 4.72 -7 2 C-3 0 -3 0 0 0 Z " fill="#FEFEFE" transform="translate(71,74)"/>
<path d="M0 0 C0 23.1 0 46.2 0 70 C-8.58 70 -17.16 70 -26 70 C-26 50.2 -26 30.4 -26 10 C-19.73 7.36 -13.46 4.72 -7 2 C-3 0 -3 0 0 0 Z M-15 6 C-15 6.66 -15 7.32 -15 8 C-15.66 8 -16.32 8 -17 8 C-17 9.32 -17 10.64 -17 12 C-18.98 12.66 -20.96 13.32 -23 14 C-23 29.84 -23 45.68 -23 62 C-17.72 62.33 -12.44 62.66 -7 63 C-7 44.19 -7 25.38 -7 6 C-9.64 6 -12.28 6 -15 6 Z " fill="#FAFDFA" transform="translate(71,74)"/>
<path d="M0 0 C2.31 0 4.62 0 7 0 C7.45439453 1.21623047 7.45439453 1.21623047 7.91796875 2.45703125 C11.55864631 15.22888922 11.55864631 15.22888922 19 25 C19.11601563 24.13246094 19.23203125 23.26492187 19.3515625 22.37109375 C20.00222457 18.98843492 21.00730076 16.21649733 22.375 13.0625 C22.81972656 12.02738281 23.26445313 10.99226562 23.72265625 9.92578125 C24.14417969 8.96027344 24.56570312 7.99476563 25 7 C25.6049636 5.58367346 26.20930308 4.16707984 26.8125 2.75 C27.204375 1.8425 27.59625 0.935 28 0 C29.98 0 31.96 0 34 0 C34 10.89 34 21.78 34 33 C32.35 33 30.7 33 29 33 C28.67 27.06 28.34 21.12 28 15 C25.36 20.94 22.72 26.88 20 33 C18.35 33 16.7 33 15 33 C13.87327825 30.60496313 12.74857442 28.2090129 11.625 25.8125 C11.30789062 25.13896484 10.99078125 24.46542969 10.6640625 23.77148438 C10.2 22.78051758 10.2 22.78051758 9.7265625 21.76953125 C9.44377441 21.16729736 9.16098633 20.56506348 8.86962891 19.94458008 C7.84710049 17.6581009 6.9302244 15.325561 6 13 C5.67 19.6 5.34 26.2 5 33 C3.35 33 1.7 33 0 33 C0 22.11 0 11.22 0 0 Z " fill="#F9EDCF" transform="translate(45,153)"/>
<path d="M0 0 C0.7734375 0.495 0.7734375 0.495 1.5625 1 C1.5625 1.66 1.5625 2.32 1.5625 3 C2.2225 3 2.8825 3 3.5625 3 C3.5625 2.01 3.5625 1.02 3.5625 0 C4.8825 0 6.2025 0 7.5625 0 C7.5625 7.92 7.5625 15.84 7.5625 24 C6.2425 24 4.9225 24 3.5625 24 C3.5625 23.01 3.5625 22.02 3.5625 21 C2.923125 21.495 2.28375 21.99 1.625 22.5 C-2.48558761 24.51334903 -5.93545718 24.7353609 -10.4375 24 C-13.5600042 22.20622099 -14.98466303 20.79785562 -16.75 17.6875 C-17.95306289 12.98461778 -17.92110428 9.32354857 -16.25 4.75 C-12.34025299 -1.18202995 -6.65705817 -2.73110079 0 0 Z " fill="#F9EFD9" transform="translate(98.4375,162)"/>
<path d="M0 0 C7.59 0 15.18 0 23 0 C23 34.98 23 69.96 23 106 C4.52 106 -13.96 106 -33 106 C-33 75.31 -33 44.62 -33 13 C-32.01 13.495 -32.01 13.495 -31 14 C-31.33 43.7 -31.66 73.4 -32 104 C-14.51 104 2.98 104 21 104 C21 70.01 21 36.02 21 1 C14.07 1 7.14 1 0 1 C0 0.67 0 0.34 0 0 Z " fill="#FBEACC" transform="translate(157,38)"/>
<path d="M0 0 C3.31217963 1.34940652 5.4792773 2.4792773 8 5 C8.57730175 8.32220821 8.74099012 11.63287151 9 15 C3.06 15 -2.88 15 -9 15 C-8.34 16.65 -7.68 18.3 -7 20 C-2.9899066 20.17864631 -2.9899066 20.17864631 1 20 C1.66 19.34 2.32 18.68 3 18 C5.625 17.875 5.625 17.875 8 18 C7.07870137 21.09891358 6.32841931 22.72788114 3.8125 24.8125 C-0.88886418 26.79752043 -4.49644952 26.54937422 -9.25 24.8125 C-12.50300759 22.66847227 -13.62748086 21.66005104 -15 18 C-15.61262631 13.54144183 -16.08862095 9.07644366 -13.9453125 4.98828125 C-9.87017405 0.0088961 -6.20563212 -0.66900867 0 0 Z " fill="#F9F6E6" transform="translate(147,161)"/>
<path d="M0 0 C0 28.05 0 56.1 0 85 C-8.25 85 -16.5 85 -25 85 C-25 59.92 -25 34.84 -25 9 C-22.36 8.34 -19.72 7.68 -17 7 C-17.33 8.32 -17.66 9.64 -18 11 C-18.99 11.495 -18.99 11.495 -20 12 C-19.34 12.66 -18.68 13.32 -18 14 C-19.98 14 -21.96 14 -24 14 C-24 35.12 -24 56.24 -24 78 C-17.73 78 -11.46 78 -5 78 C-5 79.98 -5 81.96 -5 84 C-3.68 84 -2.36 84 -1 84 C-1 58.26 -1 32.52 -1 6 C-1.66 6 -2.32 6 -3 6 C-3 5.34 -3 4.68 -3 4 C-3.66 3.67 -4.32 3.34 -5 3 C-5.33 3.99 -5.66 4.98 -6 6 C-8.97 5.505 -8.97 5.505 -12 5 C-8.51164396 2.04831412 -4.66588377 0 0 0 Z " fill="#FAFAF2" transform="translate(110,58)"/>
<path d="M0 0 C0.33 0 0.66 0 1 0 C1 10.56 1 21.12 1 32 C2.65 32 4.3 32 6 32 C6 25.07 6 18.14 6 11 C8.54450112 13.54450112 9.48683549 14.62978762 10.82421875 17.72265625 C11.13037109 18.42583984 11.43652344 19.12902344 11.75195312 19.85351562 C12.06068359 20.58248047 12.36941406 21.31144531 12.6875 22.0625 C13.00783203 22.79533203 13.32816406 23.52816406 13.65820312 24.28320312 C16 29.72076559 16 29.72076559 16 32 C17.65 32 19.3 32 21 32 C21.391875 30.741875 21.78375 29.48375 22.1875 28.1875 C24.03884094 22.59787448 26.48545526 17.31731793 29 12 C29.33 12 29.66 12 30 12 C30 18.6 30 25.2 30 32 C29.67 32 29.34 32 29 32 C28.505 27.545 28.505 27.545 28 23 C27.67 23.66 27.34 24.32 27 25 C26.34 25 25.68 25 25 25 C25.33 27.97 25.66 30.94 26 34 C24.0085944 34.38133299 22.00720923 34.71325582 20 35 C19.505 34.505 19.505 34.505 19 34 C17.00041636 33.95919217 14.99954746 33.95745644 13 34 C13 34.66 13 35.32 13 36 C12.360625 35.649375 11.72125 35.29875 11.0625 34.9375 C6.8569733 33.65009387 3.28535237 34.3091153 -1 35 C-1.33 33.68 -1.66 32.36 -2 31 C-2.66 31.33 -3.32 31.66 -4 32 C-3.67 28.7 -3.34 25.4 -3 22 C-2.01 22 -1.02 22 0 22 C0 14.74 0 7.48 0 0 Z " fill="#F0780C" transform="translate(44,154)"/>
<path d="M0 0 C0.7734375 0.06445312 1.546875 0.12890625 2.34375 0.1953125 C5.23071874 1.10533525 5.93209499 2.31909626 7.5 4.875 C7.84057617 7.16503906 7.84057617 7.16503906 7.79296875 9.640625 C7.78330078 10.53007812 7.77363281 11.41953125 7.76367188 12.3359375 C7.73853516 13.25632813 7.71339844 14.17671875 7.6875 15.125 C7.66719727 16.52878906 7.66719727 16.52878906 7.64648438 17.9609375 C7.61119954 20.26621327 7.56190281 22.5703106 7.5 24.875 C5.85 24.875 4.2 24.875 2.5 24.875 C2.43941406 23.58722656 2.37882813 22.29945313 2.31640625 20.97265625 C2.23201753 19.29425841 2.1473687 17.61587364 2.0625 15.9375 C2.02318359 15.08736328 1.98386719 14.23722656 1.94335938 13.36132812 C1.88051758 12.14799805 1.88051758 12.14799805 1.81640625 10.91015625 C1.77974854 10.1612915 1.74309082 9.41242676 1.70532227 8.64086914 C1.68228937 6.85038674 1.68228937 6.85038674 0.5 5.875 C-3 5.70833333 -3 5.70833333 -6.5 5.875 C-8.01421001 7.38921001 -7.71309856 8.79972768 -7.81640625 10.91015625 C-7.85830078 11.71904297 -7.90019531 12.52792969 -7.94335938 13.36132812 C-7.98267578 14.21146484 -8.02199219 15.06160156 -8.0625 15.9375 C-8.10568359 16.79150391 -8.14886719 17.64550781 -8.19335938 18.52539062 C-8.29976702 20.64172037 -8.40041731 22.75833813 -8.5 24.875 C-10.15 24.875 -11.8 24.875 -13.5 24.875 C-13.5 16.955 -13.5 9.035 -13.5 0.875 C-10.53 1.37 -10.53 1.37 -7.5 1.875 C-4.26372698 -0.28251534 -3.66421162 -0.3786352 0 0 Z " fill="#FAFBF1" transform="translate(172.5,161.125)"/>
<path d="M0 0 C0.99 0 1.98 0 3 0 C3 23.1 3 46.2 3 70 C-5.58 70 -14.16 70 -23 70 C-23 50.2 -23 30.4 -23 10 C-14 6 -14 6 -12 6 C-12 6.66 -12 7.32 -12 8 C-12.66 8 -13.32 8 -14 8 C-13.67 9.32 -13.34 10.64 -13 12 C-14.98 12.66 -16.96 13.32 -19 14 C-19.33 29.84 -19.66 45.68 -20 62 C-20.33 62 -20.66 62 -21 62 C-21.495 64.97 -21.495 64.97 -22 68 C-14.08 68 -6.16 68 2 68 C2 45.89 2 23.78 2 1 C1.34 0.67 0.68 0.34 0 0 Z " fill="#FBEDCB" transform="translate(68,74)"/>
<path d="M0 0 C0.66 0 1.32 0 2 0 C2.33 0.66 2.66 1.32 3 2 C3.33 1.34 3.66 0.68 4 0 C6.31 0 8.62 0 11 0 C11 0.66 11 1.32 11 2 C11.66 2.33 12.32 2.66 13 3 C10 3 10 3 6 2 C6 9.92 6 17.84 6 26 C7.65 26 9.3 26 11 26 C11 26.66 11 27.32 11 28 C5.25 28.125 5.25 28.125 3 27 C2.67 27.99 2.34 28.98 2 30 C2 29.01 2 28.02 2 27 C0.95779297 27.24556641 0.95779297 27.24556641 -0.10546875 27.49609375 C-3.2352816 28.04095996 -6.13798083 28.09738483 -9.3125 28.0625 C-10.38113281 28.05347656 -11.44976562 28.04445312 -12.55078125 28.03515625 C-13.35902344 28.02355469 -14.16726562 28.01195312 -15 28 C-15 27.34 -15 26.68 -15 26 C-14.32453125 26.02320313 -13.6490625 26.04640625 -12.953125 26.0703125 C-12.06109375 26.08835938 -11.1690625 26.10640625 -10.25 26.125 C-9.36828125 26.14820313 -8.4865625 26.17140625 -7.578125 26.1953125 C-4.83092531 25.98719131 -3.29866432 25.49211544 -1 24 C0.75322937 21.46811352 0.75322937 21.46811352 2 19 C-1.79547921 19.96776098 -1.79547921 19.96776098 -5 22 C-10.73611111 22.27314815 -10.73611111 22.27314815 -13 22 C-13.66 21.34 -14.32 20.68 -15 20 C-15 18.68 -15 17.36 -15 16 C-9.06 16 -3.12 16 3 16 C2.71125 14.411875 2.4225 12.82375 2.125 11.1875 C1.96257812 10.29417969 1.80015625 9.40085938 1.6328125 8.48046875 C1.08811551 5.77272154 1.08811551 5.77272154 -1 3 C-0.34 3 0.32 3 1 3 C0.67 2.01 0.34 1.02 0 0 Z " fill="#EC7D1C" transform="translate(153,160)"/>
<path d="M0 0 C1.65 0 3.3 0 5 0 C5.42152344 1.07121094 5.84304687 2.14242187 6.27734375 3.24609375 C6.83059319 4.64328302 7.38398602 6.04041551 7.9375 7.4375 C8.21529297 8.14455078 8.49308594 8.85160156 8.77929688 9.58007812 C9.96222034 13.04673881 9.96222034 13.04673881 12 16 C12.26554687 15.26394531 12.53109375 14.52789062 12.8046875 13.76953125 C13.15789062 12.79371094 13.51109375 11.81789062 13.875 10.8125 C14.22304687 9.84957031 14.57109375 8.88664063 14.9296875 7.89453125 C15.90990488 5.24365141 16.93720434 2.6186902 18 0 C19.65 0 21.3 0 23 0 C21.43889635 8.74218041 18.21518143 16.75983375 15 25 C12.69 25 10.38 25 8 25 C1.48063781 8.29157175 1.48063781 8.29157175 0 0 Z " fill="#F8F7E7" transform="translate(109,161)"/>
<path d="M0 0 C0.66 0 1.32 0 2 0 C5.23076923 18.92307692 5.23076923 18.92307692 2 27 C1.21625 26.525625 0.4325 26.05125 -0.375 25.5625 C-1.88948678 24.66101977 -3.4235897 23.78820515 -5 23 C-5 18.05 -5 13.1 -5 8 C-5.99 8 -6.98 8 -8 8 C-8.19916016 9.10408203 -8.19916016 9.10408203 -8.40234375 10.23046875 C-8.66724609 11.69419922 -8.66724609 11.69419922 -8.9375 13.1875 C-9.11152344 14.15042969 -9.28554687 15.11335937 -9.46484375 16.10546875 C-9.9523735 18.74239972 -10.46671105 21.3719905 -11 24 C-11.33 24 -11.66 24 -12 24 C-12.33 20.04 -12.66 16.08 -13 12 C-13.33 14.97 -13.66 17.94 -14 21 C-14.33 21 -14.66 21 -15 21 C-15.05379226 18.04142591 -15.09357093 15.08382279 -15.125 12.125 C-15.14175781 11.28324219 -15.15851563 10.44148437 -15.17578125 9.57421875 C-15.18222656 8.76855469 -15.18867188 7.96289062 -15.1953125 7.1328125 C-15.21102295 6.01737061 -15.21102295 6.01737061 -15.22705078 4.87939453 C-15 3 -15 3 -13 1 C-9.5 0.75 -9.5 0.75 -6 1 C-4 3 -4 3 -3.77294922 4.87939453 C-3.78865967 5.99483643 -3.78865967 5.99483643 -3.8046875 7.1328125 C-3.81435547 8.34130859 -3.81435547 8.34130859 -3.82421875 9.57421875 C-3.84097656 10.41597656 -3.85773438 11.25773438 -3.875 12.125 C-3.88402344 12.97449219 -3.89304688 13.82398438 -3.90234375 14.69921875 C-3.92594353 16.79959884 -3.96181517 18.89983444 -4 21 C-2.35 21 -0.7 21 1 21 C0.67 14.07 0.34 7.14 0 0 Z " fill="#F5780C" transform="translate(179,165)"/>
<path d="M0 0 C3.31217963 1.34940652 5.4792773 2.4792773 8 5 C8.57730175 8.32220821 8.74099012 11.63287151 9 15 C3.06 15 -2.88 15 -9 15 C-9.33 15.99 -9.66 16.98 -10 18 C-10 16.68 -10 15.36 -10 14 C-4.06 14 1.88 14 8 14 C8 12.68 8 11.36 8 10 C7.01 10.33 6.02 10.66 5 11 C2.26134713 11.07051114 -0.45027588 11.09357765 -3.1875 11.0625 C-3.93708984 11.05798828 -4.68667969 11.05347656 -5.45898438 11.04882812 C-7.30602383 11.03706354 -9.15302213 11.01912865 -11 11 C-10.67 8.69 -10.34 6.38 -10 4 C-10.66 3.67 -11.32 3.34 -12 3 C-8.46432068 -0.53567932 -4.74514055 -0.69352054 0 0 Z " fill="#F5D6AD" transform="translate(147,161)"/>
<path d="M0 0 C1.69140625 1.171875 1.69140625 1.171875 3 3 C3.3984375 5.62890625 3.3984375 5.62890625 3.375 8.5625 C3.38273437 9.53316406 3.39046875 10.50382813 3.3984375 11.50390625 C3.26695313 12.32761719 3.13546875 13.15132812 3 14 C-0.77530854 16.51687236 -3.564137 16.74085395 -8 16 C-10.56516732 13.84856935 -10.94050285 12.2379886 -11.75 9 C-12.13043478 4.43478261 -12.13043478 4.43478261 -11 2 C-7.63734238 -0.58665971 -4.09305121 -0.37209556 0 0 Z " fill="#FA7605" transform="translate(98,166)"/>
<path d="M0 0 C1.67056149 0.31323028 3.33605325 0.65334443 5 1 C5.65097656 1.04125 6.30195312 1.0825 6.97265625 1.125 C9.38127095 1.41313335 10.91306474 1.73651101 13 3 C15.20443663 6.94219587 17 11.42972532 17 16 C16.34 16 15.68 16 15 16 C15 15.01 15 14.02 15 13 C14.34 13 13.68 13 13 13 C13 19.27 13 25.54 13 32 C10.36 31.34 7.72 30.68 5 30 C5 29.34 5 28.68 5 28 C4.01 28.33 3.02 28.66 2 29 C0.27204648 29.06802967 -1.45835365 29.08495645 -3.1875 29.0625 C-4.08855469 29.05347656 -4.98960938 29.04445312 -5.91796875 29.03515625 C-6.60503906 29.02355469 -7.29210937 29.01195312 -8 29 C-8 28.67 -8 28.34 -8 28 C-7.40832031 27.95101562 -6.81664063 27.90203125 -6.20703125 27.8515625 C-1.80895528 27.43543133 1.96928897 26.95034405 6 25 C6 25.99 6 26.98 6 28 C7.32 28 8.64 28 10 28 C10 20.08 10 12.16 10 4 C8.68 4 7.36 4 6 4 C6 4.99 6 5.98 6 7 C5.34 7 4.68 7 4 7 C3.67 6.34 3.34 5.68 3 5 C0.11788698 4.03929566 -1.69850044 3.89418117 -4.6875 3.9375 C-5.49574219 3.94652344 -6.30398437 3.95554688 -7.13671875 3.96484375 C-7.75160156 3.97644531 -8.36648437 3.98804688 -9 4 C-8.67 3.34 -8.34 2.68 -8 2 C-5.36 2 -2.72 2 0 2 C0 1.34 0 0.68 0 0 Z " fill="#E7913B" transform="translate(96,158)"/>
<path d="M0 0 C1.32 0 2.64 0 4 0 C4 7.92 4 15.84 4 24 C2.68 24 1.36 24 0 24 C0 23.01 0 22.02 0 21 C-0.680625 21.495 -1.36125 21.99 -2.0625 22.5 C-5.59465009 24.30365111 -8.08636991 24.23021353 -12 24 C-12.33 23.01 -12.66 22.02 -13 21 C-12.06027344 20.80083984 -12.06027344 20.80083984 -11.1015625 20.59765625 C-10.28429687 20.42105469 -9.46703125 20.24445313 -8.625 20.0625 C-7.81289062 19.88847656 -7.00078125 19.71445313 -6.1640625 19.53515625 C-3.970537 19.07669307 -3.970537 19.07669307 -2 18 C-1.94608007 16.20866022 -1.90724429 14.41686101 -1.875 12.625 C-1.85179688 11.62726563 -1.82859375 10.62953125 -1.8046875 9.6015625 C-1.72783152 6.83737827 -1.72783152 6.83737827 -4 5 C-4 4.01 -4 3.02 -4 2 C-2.68 2.33 -1.36 2.66 0 3 C0 2.01 0 1.02 0 0 Z " fill="#FAFAEC" transform="translate(102,162)"/>
<path d="M0 0 C1 2 1 2 -0.109375 5.44921875 C-0.64845533 6.86497179 -1.19571414 8.2776307 -1.75 9.6875 C-2.01554687 10.38294922 -2.28109375 11.07839844 -2.5546875 11.79492188 C-4.26603481 16.24359412 -6.09831881 20.62957004 -8 25 C-8.99 24.67 -9.98 24.34 -11 24 C-11.94921875 21.93359375 -11.94921875 21.93359375 -12.6875 19.4375 C-12.93886719 18.61121094 -13.19023438 17.78492188 -13.44921875 16.93359375 C-13.63097656 16.29550781 -13.81273437 15.65742188 -14 15 C-13.34 15 -12.68 15 -12 15 C-10.58622659 12.36095629 -9.62759865 9.92879371 -9 7 C-8.34 7 -7.68 7 -7 7 C-7 5.35 -7 3.7 -7 2 C-6.67 2.99 -6.34 3.98 -6 5 C-5.01 5 -4.02 5 -3 5 C-2.87625 4.360625 -2.7525 3.72125 -2.625 3.0625 C-2.41875 2.381875 -2.2125 1.70125 -2 1 C-1.34 0.67 -0.68 0.34 0 0 Z " fill="#F87507" transform="translate(72,153)"/>
<path d="M0 0 C2.31 0 4.62 0 7 0 C6.3503125 0.56654297 6.3503125 0.56654297 5.6875 1.14453125 C1.99668019 4.79263324 0.54428319 7.36414799 0.4375 12.625 C0.74473974 18.08787238 2.13767138 21.13767138 6 25 C2.84859577 24.65930765 1.39218439 24.41923159 -0.8125 22.0625 C-2 20 -2 20 -2 18 C-2.66 18 -3.32 18 -4 18 C-3.67 19.65 -3.34 21.3 -3 23 C-4.65 23.66 -6.3 24.32 -8 25 C-7.3440206 19.36412069 -5.43967159 14.39011658 -3.4375 9.125 C-3.10814453 8.24585938 -2.77878906 7.36671875 -2.43945312 6.4609375 C-1.63113386 4.30541947 -0.81787706 2.15190559 0 0 Z " fill="#EB811F" transform="translate(132,161)"/>
<path d="M0 0 C1.65 0 3.3 0 5 0 C6 1 6 1 6.0625 3.5625 C6.041875 4.366875 6.02125 5.17125 6 6 C5.34 6 4.68 6 4 6 C3.67 14.25 3.34 22.5 3 31 C2.01 31 1.02 31 0 31 C0 20.77 0 10.54 0 0 Z " fill="#F9FCF6" transform="translate(46,154)"/>
<path d="M0 0 C0.33 0 0.66 0 1 0 C1 6.6 1 13.2 1 20 C0.67 20 0.34 20 0 20 C-0.33 17.03 -0.66 14.06 -1 11 C-1.33 11.66 -1.66 12.32 -2 13 C-2.66 13 -3.32 13 -4 13 C-3.67 15.97 -3.34 18.94 -3 22 C-4.9914056 22.38133299 -6.99279077 22.71325582 -9 23 C-9.33 22.67 -9.66 22.34 -10 22 C-11.51469448 21.76807135 -13.03754562 21.58784762 -14.5625 21.4375 C-15.38878906 21.35371094 -16.21507812 21.26992187 -17.06640625 21.18359375 C-18.02353516 21.09271484 -18.02353516 21.09271484 -19 21 C-18.505 19.515 -18.505 19.515 -18 18 C-18 18.66 -18 19.32 -18 20 C-17.34 19.67 -16.68 19.34 -16 19 C-16 17.35 -16 15.7 -16 14 C-13 17.75 -13 17.75 -13 20 C-11.35 20 -9.7 20 -8 20 C-7.4121875 18.1128125 -7.4121875 18.1128125 -6.8125 16.1875 C-4.96115906 10.59787448 -2.51454474 5.31731793 0 0 Z " fill="#EF8424" transform="translate(73,166)"/>
<path d="M0 0 C2.31 0 4.62 0 7 0 C7 0.66 7 1.32 7 2 C7.66 2.33 8.32 2.66 9 3 C6 3 6 3 2 2 C2 9.92 2 17.84 2 26 C3.65 26 5.3 26 7 26 C7 26.66 7 27.32 7 28 C1.25 28.125 1.25 28.125 -1 27 C-1.33 27.99 -1.66 28.98 -2 30 C-2 29.01 -2 28.02 -2 27 C-3.04220703 27.24556641 -3.04220703 27.24556641 -4.10546875 27.49609375 C-7.2352816 28.04095996 -10.13798083 28.09738483 -13.3125 28.0625 C-14.38113281 28.05347656 -15.44976562 28.04445312 -16.55078125 28.03515625 C-17.35902344 28.02355469 -18.16726562 28.01195312 -19 28 C-19 27.34 -19 26.68 -19 26 C-18.32453125 26.02320313 -17.6490625 26.04640625 -16.953125 26.0703125 C-16.06109375 26.08835938 -15.1690625 26.10640625 -14.25 26.125 C-13.36828125 26.14820313 -12.4865625 26.17140625 -11.578125 26.1953125 C-8.82009905 25.98637114 -7.30096477 25.51063339 -5 24 C-4.34 23.01 -3.68 22.02 -3 21 C-2.01 21 -1.02 21 0 21 C0 14.07 0 7.14 0 0 Z " fill="#EC7F1D" transform="translate(157,160)"/>
<path d="M0 0 C1.65 0 3.3 0 5 0 C6.03479213 2.41151557 7.0529372 4.82794469 8.0625 7.25 C8.35705078 7.93191406 8.65160156 8.61382812 8.95507812 9.31640625 C10.48321625 13.01989395 11.24129373 15.1840347 10 19 C9.67 17.68 9.34 16.36 9 15 C8.34 15 7.68 15 7 15 C7.33 15.7425 7.66 16.485 8 17.25 C9 20 9 20 9 24 C10.98 23.67 12.96 23.34 15 23 C15 23.66 15 24.32 15 25 C12.69 25 10.38 25 8 25 C1.48063781 8.29157175 1.48063781 8.29157175 0 0 Z " fill="#F7F2DA" transform="translate(109,161)"/>
<path d="M0 0 C2.875 -0.125 2.875 -0.125 6 0 C6.66 0.66 7.32 1.32 8 2 C8.66 1.67 9.32 1.34 10 1 C9.25 5.75 9.25 5.75 7 8 C9.08486562 8.21439736 9.08486562 8.21439736 10.5625 6.6875 C12.22493787 4.94929146 12.22493787 4.94929146 13 2 C13.66 2.33 14.32 2.66 15 3 C14.37691903 4.8964649 13.75145015 6.79214535 13.125 8.6875 C12.77695313 9.74324219 12.42890625 10.79898438 12.0703125 11.88671875 C11.12668634 14.63149994 10.10508711 17.31692815 9 20 C7.30227564 16.70768407 5.82023388 13.34774486 4.375 9.9375 C3.70597656 8.37322266 3.70597656 8.37322266 3.0234375 6.77734375 C2 4 2 4 2 1 C1.34 0.67 0.68 0.34 0 0 Z " fill="#F27910" transform="translate(112,160)"/>
<path d="M0 0 C0.66 0.33 1.32 0.66 2 1 C1 4 1 4 -1 5 C-0.34 5.66 0.32 6.32 1 7 C-0.98 7 -2.96 7 -5 7 C-5 28.12 -5 49.24 -5 71 C-4.34 71.33 -3.68 71.66 -3 72 C-3.66 72 -4.32 72 -5 72 C-5.33 73.32 -5.66 74.64 -6 76 C-6 51.58 -6 27.16 -6 2 C-4.02 1.34 -2.04 0.68 0 0 Z " fill="#FEFEEB" transform="translate(91,65)"/>
<path d="M0 0 C1.32 0 2.64 0 4 0 C4 10.23 4 20.46 4 31 C3.01 31 2.02 31 1 31 C0.97113249 26.85418113 0.95324673 22.70838784 0.9375 18.5625 C0.92912109 17.37849609 0.92074219 16.19449219 0.91210938 14.97460938 C0.90888672 13.84990234 0.90566406 12.72519531 0.90234375 11.56640625 C0.89710693 10.52427979 0.89187012 9.48215332 0.88647461 8.40844727 C1 6 1 6 2 5 C1.01 4.67 0.02 4.34 -1 4 C-0.67 2.68 -0.34 1.36 0 0 Z " fill="#F9FCF8" transform="translate(74,154)"/>
<path d="M0 0 C-0.33 1.65 -0.66 3.3 -1 5 C-2.32 5 -3.64 5 -5 5 C-5 23.81 -5 42.62 -5 62 C-5.33 62 -5.66 62 -6 62 C-6 43.19 -6 24.38 -6 5 C-8.64 5 -11.28 5 -14 5 C-11.56585763 3.37723842 -9.68680554 2.38255208 -7 1.375 C-6.319375 1.11460938 -5.63875 0.85421875 -4.9375 0.5859375 C-3 0 -3 0 0 0 Z " fill="#FDFEF0" transform="translate(70,75)"/>
<path d="M0 0 C0.33 0 0.66 0 1 0 C1 3.63 1 7.26 1 11 C1.66 11 2.32 11 3 11 C3.33 10.34 3.66 9.68 4 9 C4.66 9.66 5.32 10.32 6 11 C5.505 11.845625 5.01 12.69125 4.5 13.5625 C2.59500789 17.92810691 2.12075865 21.41280705 3.6796875 26 C4.39605125 27.69198296 5.19179418 29.34991312 6 31 C4.68 31 3.36 31 2 31 C1.01 33.475 1.01 33.475 0 36 C-1.65 35.34 -3.3 34.68 -5 34 C-5 33.67 -5 33.34 -5 33 C-3.35 33 -1.7 33 0 33 C0 22.11 0 11.22 0 0 Z " fill="#E77C1E" transform="translate(79,153)"/>
<path d="M0 0 C2.31 0 4.62 0 7 0 C6.67 0.66 6.34 1.32 6 2 C4.35 1.67 2.7 1.34 1 1 C1 11.23 1 21.46 1 32 C1.99 32 2.98 32 4 32 C3.99476318 31.31373535 3.98952637 30.6274707 3.98413086 29.92041016 C3.96339044 26.82194936 3.95034924 23.72350314 3.9375 20.625 C3.92912109 19.54476562 3.92074219 18.46453125 3.91210938 17.3515625 C3.90888672 16.3203125 3.90566406 15.2890625 3.90234375 14.2265625 C3.89710693 13.27346191 3.89187012 12.32036133 3.88647461 11.33837891 C4 9 4 9 5 7 C5.66 7 6.32 7 7 7 C7.33 5.68 7.66 4.36 8 3 C8.33 4.98 8.66 6.96 9 9 C8.34 9 7.68 9 7 9 C7.33 10.98 7.66 12.96 8 15 C7.34 14.34 6.68 13.68 6 13 C5.67 19.6 5.34 26.2 5 33 C3.35 33 1.7 33 0 33 C0 22.11 0 11.22 0 0 Z " fill="#FCE8BD" transform="translate(45,153)"/>
<path d="M0 0 C0.66 0 1.32 0 2 0 C5.23076923 18.92307692 5.23076923 18.92307692 2 27 C1.21625 26.525625 0.4325 26.05125 -0.375 25.5625 C-1.88948678 24.66101977 -3.4235897 23.78820515 -5 23 C-5 16.4 -5 9.8 -5 3 C-4.67 3 -4.34 3 -4 3 C-4 8.94 -4 14.88 -4 21 C-2.35 21 -0.7 21 1 21 C0.67 14.07 0.34 7.14 0 0 Z " fill="#F07C12" transform="translate(179,165)"/>
<path d="M0 0 C2.31 0.33 4.62 0.66 7 1 C6.34 1.66 5.68 2.32 5 3 C4.01 3 3.02 3 2 3 C2 22.47 2 41.94 2 62 C1.67 62 1.34 62 1 62 C0.67 41.54 0.34 21.08 0 0 Z " fill="#EC8736" transform="translate(43,81)"/>
<path d="M0 0 C0.78375 0.04125 1.5675 0.0825 2.375 0.125 C1.45370137 3.22391358 0.70341931 4.85288114 -1.8125 6.9375 C-6.28745665 8.82692614 -9.99491915 8.67992114 -14.5625 7.125 C-15.243125 6.795 -15.92375 6.465 -16.625 6.125 C-15.305 5.795 -13.985 5.465 -12.625 5.125 C-12.625 4.465 -12.625 3.805 -12.625 3.125 C-11.34625 3.00125 -10.0675 2.8775 -8.75 2.75 C-5.00475673 2.3875571 -3.52964598 0.16807838 0 0 Z " fill="#F9F0D9" transform="translate(152.625,178.875)"/>
<path d="M0 0 C2.4375 1 2.4375 1 4 2 C3.01 2.495 3.01 2.495 2 3 C2 3.66 2 4.32 2 5 C-2.76003097 5.71849524 -7.19007134 6 -12 6 C-12 5.01 -12 4.02 -12 3 C-8.10201805 -0.18925796 -4.92901385 -0.44809217 0 0 Z " fill="#F6E6C8" transform="translate(96,161)"/>
<path d="M0 0 C3.96 0 7.92 0 12 0 C11 5 11 5 10 6 C4.26388889 6.27314815 4.26388889 6.27314815 2 6 C1.34 5.34 0.68 4.68 0 4 C0 2.68 0 1.36 0 0 Z " fill="#F07C13" transform="translate(138,176)"/>
<path d="M0 0 C4.17986964 0.5737076 5.5459902 2.25214994 8.1875 5.4375 C8.1875 5.7675 8.1875 6.0975 8.1875 6.4375 C3.5675 6.4375 -1.0525 6.4375 -5.8125 6.4375 C-4.37319364 0.68027457 -4.37319364 0.68027457 0 0 Z " fill="#EE760F" transform="translate(142.8125,164.5625)"/>
<path d="M0 0 C1.984375 1.359375 1.984375 1.359375 4 4 C4.51270905 7.42513915 4.37576221 10.79637621 4.25 14.25 C4.23195312 15.18585938 4.21390625 16.12171875 4.1953125 17.0859375 C4.14825673 19.39167015 4.08253713 21.69530945 4 24 C2.35 24 0.7 24 -1 24 C-1.06058594 22.72382813 -1.12117187 21.44765625 -1.18359375 20.1328125 C-1.26799568 18.46352984 -1.35264386 16.79425963 -1.4375 15.125 C-1.47681641 14.28324219 -1.51613281 13.44148437 -1.55664062 12.57421875 C-1.59853516 11.76855469 -1.64042969 10.96289062 -1.68359375 10.1328125 C-1.73858032 9.01737061 -1.73858032 9.01737061 -1.79467773 7.87939453 C-1.89955865 5.91135688 -1.89955865 5.91135688 -3 4 C-2.01 4.33 -1.02 4.66 0 5 C0 10.94 0 16.88 0 23 C0.99 23 1.98 23 3 23 C3 17.39 3 11.78 3 6 C2.34 6 1.68 6 1 6 C0.67 4.02 0.34 2.04 0 0 Z " fill="#FBECC1" transform="translate(176,162)"/>
<path d="M0 0 C3.37992169 0.53771481 6.68737889 1.14303932 10 2 C7.8205518 2.9735857 5.6398764 3.9442043 3.45703125 4.91015625 C1.95145377 5.57797201 0.44823756 6.25118328 -1.05078125 6.93359375 C-3.89300626 8.20559595 -5.84668936 9 -9 9 C-9 8.34 -9 7.68 -9 7 C-7.02 6.01 -5.04 5.02 -3 4 C-3 3.34 -3 2.68 -3 2 C-2.01 2 -1.02 2 0 2 C0 1.34 0 0.68 0 0 Z " fill="#EB821E" transform="translate(139,40)"/>
<path d="M0 0 C2.02196167 2.02196167 2.67551358 3.25864486 3.6875 5.875 C3.95949219 6.55304688 4.23148437 7.23109375 4.51171875 7.9296875 C5.07336741 10.31107782 4.76694846 11.70430191 4 14 C3.67 12.68 3.34 11.36 3 10 C2.34 10 1.68 10 1 10 C1.33 10.7425 1.66 11.485 2 12.25 C3 15 3 15 3 19 C4.98 18.67 6.96 18.34 9 18 C9 18.66 9 19.32 9 20 C6.69 20 4.38 20 2 20 C-1.25601751 11.14223195 -1.25601751 11.14223195 -0.1875 6.375 C0.204375 5.59125 0.59625 4.8075 1 4 C0.34 4 -0.32 4 -1 4 C-0.67 2.68 -0.34 1.36 0 0 Z " fill="#F6DEB7" transform="translate(115,166)"/>
<path d="M0 0 C0.66 0.33 1.32 0.66 2 1 C1.37691903 2.8964649 0.75145015 4.79214535 0.125 6.6875 C-0.22304687 7.74324219 -0.57109375 8.79898438 -0.9296875 9.88671875 C-1.87331366 12.63149994 -2.89491289 15.31692815 -4 18 C-5.70097842 15.39850359 -6.01268885 14.15226623 -5.75 11 C-5.08814656 8.35258625 -4.44798687 6.29974386 -3 4 C-2.34 3.67 -1.68 3.34 -1 3 C-0.67 2.01 -0.34 1.02 0 0 Z " fill="#EA8221" transform="translate(125,162)"/>
<path d="M0 0 C1.32 0 2.64 0 4 0 C4 1.98 4 3.96 4 6 C2.68 6 1.36 6 0 6 C0 8.64 0 11.28 0 14 C-0.33 14 -0.66 14 -1 14 C-1.12375 12.88625 -1.2475 11.7725 -1.375 10.625 C-1.6465813 6.96896323 -1.6465813 6.96896323 -4 5 C-4 4.01 -4 3.02 -4 2 C-2.68 2.33 -1.36 2.66 0 3 C0 2.01 0 1.02 0 0 Z " fill="#F8EFDC" transform="translate(102,162)"/>
<path d="M0 0 C2.31 0.66 4.62 1.32 7 2 C6.67 3.98 6.34 5.96 6 8 C4.35 8 2.7 8 1 8 C1 7.01 1 6.02 1 5 C0.34 5 -0.32 5 -1 5 C-0.67 3.35 -0.34 1.7 0 0 Z " fill="#FA7604" transform="translate(81,183)"/>
<path d="M0 0 C0.33 0 0.66 0 1 0 C1 11.55 1 23.1 1 35 C0.01 35.495 0.01 35.495 -1 36 C-3.125 35.0625 -3.125 35.0625 -5 34 C-5 33.67 -5 33.34 -5 33 C-3.35 33 -1.7 33 0 33 C0 22.11 0 11.22 0 0 Z " fill="#E59245" transform="translate(79,153)"/>
<path d="M0 0 C-2.93828597 2.50298434 -5.17902761 3.46930939 -9 4 C-9.33 5.65 -9.66 7.3 -10 9 C-10.99 8.67 -11.98 8.34 -13 8 C-12.67 7.34 -12.34 6.68 -12 6 C-13.98 6 -15.96 6 -18 6 C-15.56805106 3.56805106 -13.28581221 2.66106169 -10.125 1.3125 C-8.55105469 0.62607422 -8.55105469 0.62607422 -6.9453125 -0.07421875 C-3.99799572 -1.00062999 -2.81395287 -1.12150295 0 0 Z " fill="#F9F5E3" transform="translate(146,45)"/>
<path d="M0 0 C0.33 0.66 0.66 1.32 1 2 C1.66 2 2.32 2 3 2 C2.21302675 5.41021743 1.12880057 8.68885166 0 12 C-0.99 11.67 -1.98 11.34 -3 11 C-3.94921875 8.93359375 -3.94921875 8.93359375 -4.6875 6.4375 C-4.93886719 5.61121094 -5.19023438 4.78492188 -5.44921875 3.93359375 C-5.63097656 3.29550781 -5.81273437 2.65742188 -6 2 C-5.34 2 -4.68 2 -4 2 C-3.01 3.485 -3.01 3.485 -2 5 C-1.34 3.35 -0.68 1.7 0 0 Z " fill="#E9801E" transform="translate(64,166)"/>
<path d="M0 0 C2.31 0 4.62 0 7 0 C7 0.66 7 1.32 7 2 C7.66 2.33 8.32 2.66 9 3 C6 3 6 3 2 2 C2 9.92 2 17.84 2 26 C1.67 26 1.34 26 1 26 C0.67 17.42 0.34 8.84 0 0 Z " fill="#E7A55E" transform="translate(157,160)"/>
<path d="M0 0 C1.33333333 2 2.66666667 4 4 6 C7.06556598 6.73343428 7.06556598 6.73343428 10 7 C10 7.33 10 7.66 10 8 C8.02 8.33 6.04 8.66 4 9 C4 9.66 4 10.32 4 11 C0.34683329 9.75023244 -0.78065836 9.32901247 -3 6 C-2.01 6 -1.02 6 0 6 C0 4.02 0 2.04 0 0 Z " fill="#F9E9CC" transform="translate(86,175)"/>
<path d="M0 0 C0.99 0 1.98 0 3 0 C5.32590854 3.63423209 5.16265833 6.77088331 5 11 C4.01 11 3.02 11 2 11 C0 3.375 0 3.375 0 0 Z " fill="#F9F5E9" transform="translate(52,162)"/>
<path d="M0 0 C0.66 0.33 1.32 0.66 2 1 C1.67 1.33 1.34 1.66 1 2 C2.32 2.66 3.64 3.32 5 4 C3.02 4.66 1.04 5.32 -1 6 C-1.33 11.94 -1.66 17.88 -2 24 C-2.33 24 -2.66 24 -3 24 C-3.22655901 20.91772291 -3.42803465 17.8342984 -3.625 14.75 C-3.68945312 13.87730469 -3.75390625 13.00460938 -3.8203125 12.10546875 C-3.871875 11.26113281 -3.9234375 10.41679687 -3.9765625 9.546875 C-4.02893066 8.77182617 -4.08129883 7.99677734 -4.13525391 7.19824219 C-3.97849388 4.6504674 -3.36022598 3.14735284 -2 1 C-1.34 0.67 -0.68 0.34 0 0 Z " fill="#F2D6AF" transform="translate(166,162)"/>
<path d="M0 0 C-0.33 1.65 -0.66 3.3 -1 5 C-5.29 5 -9.58 5 -14 5 C-11.56585763 3.37723842 -9.68680554 2.38255208 -7 1.375 C-6.319375 1.11460938 -5.63875 0.85421875 -4.9375 0.5859375 C-3 0 -3 0 0 0 Z " fill="#F7F1DF" transform="translate(70,75)"/>
<path d="M0 0 C0.66 0 1.32 0 2 0 C2.33 1.32 2.66 2.64 3 4 C4.65 4 6.3 4 8 4 C7.67 5.65 7.34 7.3 7 9 C5.35 9 3.7 9 2 9 C1.34 6.03 0.68 3.06 0 0 Z " fill="#F7FBF5" transform="translate(116,176)"/>
<path d="M0 0 C2.31 0 4.62 0 7 0 C6.57847656 0.40089844 6.15695313 0.80179688 5.72265625 1.21484375 C1.19826322 5.90956687 0.02938503 9.52060152 0 16 C-0.33 16 -0.66 16 -1 16 C-1.22384382 14.27277272 -1.42839969 12.54303993 -1.625 10.8125 C-1.74101562 9.84957031 -1.85703125 8.88664063 -1.9765625 7.89453125 C-2.00194942 4.75924677 -1.34359283 2.80513465 0 0 Z " fill="#E78224" transform="translate(132,161)"/>
<path d="M0 0 C0.33 0 0.66 0 1 0 C1.08086147 1.79093191 1.13912702 3.58289628 1.1875 5.375 C1.22230469 6.37273437 1.25710937 7.37046875 1.29296875 8.3984375 C1.19628906 9.25695312 1.09960938 10.11546875 1 11 C-3.08430208 13.72286806 -5.14590877 13.38524534 -10 13 C-10.66 12.01 -11.32 11.02 -12 10 C-8.33333333 10 -4.66666667 10 -1 10 C-0.67 6.7 -0.34 3.4 0 0 Z " fill="#E5903B" transform="translate(100,169)"/>
<path d="M0 0 C1.65 0 3.3 0 5 0 C4.34 2.97 3.68 5.94 3 9 C1.68 8.34 0.36 7.68 -1 7 C-0.67 4.69 -0.34 2.38 0 0 Z " fill="#F6EBD1" transform="translate(127,161)"/>
<path d="M0 0 C0.721875 0.144375 1.44375 0.28875 2.1875 0.4375 C3.5796875 0.7159375 3.5796875 0.7159375 5 1 C6.66666667 1.33333333 8.33333333 1.66666667 10 2 C10 2.33 10 2.66 10 3 C8.35 3 6.7 3 5 3 C4.67 3.99 4.34 4.98 4 6 C3.43796875 5.67257813 2.8759375 5.34515625 2.296875 5.0078125 C-0.26859964 3.88214506 -1.96842277 3.7931889 -4.75 3.875 C-5.94882813 3.90207031 -5.94882813 3.90207031 -7.171875 3.9296875 C-8.07679687 3.96449219 -8.07679687 3.96449219 -9 4 C-8.67 3.34 -8.34 2.68 -8 2 C-5.36 2 -2.72 2 0 2 C0 1.34 0 0.68 0 0 Z " fill="#EA8023" transform="translate(96,158)"/>
<path d="M0 0 C1.65 0.33 3.3 0.66 5 1 C4.67 2.98 4.34 4.96 4 7 C2.35 7 0.7 7 -1 7 C-0.67 4.69 -0.34 2.38 0 0 Z " fill="#F6F6E7" transform="translate(61,179)"/>
<path d="M0 0 C9.27272727 0.92727273 9.27272727 0.92727273 12 3 C12.75 5.125 12.75 5.125 13 7 C10.625 6.6875 10.625 6.6875 8 6 C7.34 5.01 6.68 4.02 6 3 C2.43230448 2.26393501 2.43230448 2.26393501 -1 2 C-0.67 1.34 -0.34 0.68 0 0 Z " fill="#F5F7ED" transform="translate(141,162)"/>
<path d="M0 0 C0.66 0 1.32 0 2 0 C2.67057887 1.7902061 3.3363469 3.58221489 4 5.375 C4.556875 6.87160156 4.556875 6.87160156 5.125 8.3984375 C6 11 6 11 6 13 C5.34 13 4.68 13 4 13 C4 12.01 4 11.02 4 10 C3.34 10 2.68 10 2 10 C1.67 10.66 1.34 11.32 1 12 C1.33 10.35 1.66 8.7 2 7 C1.34 7 0.68 7 0 7 C0 4.69 0 2.38 0 0 Z " fill="#E98020" transform="translate(107,161)"/>
<path d="M0 0 C5.75 -0.125 5.75 -0.125 8 1 C8 1.66 8 2.32 8 3 C7.34 3 6.68 3 6 3 C6 3.66 6 4.32 6 5 C3.36 4.67 0.72 4.34 -2 4 C-1.34 2.68 -0.68 1.36 0 0 Z " fill="#F9F7EA" transform="translate(168,161)"/>
<path d="M0 0 C2.97 0.495 2.97 0.495 6 1 C3.03171001 2.97885999 0.22552946 4.25864997 -3.0625 5.625 C-4.12597656 6.07101563 -5.18945312 6.51703125 -6.28515625 6.9765625 C-9 8 -9 8 -11 8 C-11 7.01 -11 6.02 -11 5 C-7.12315913 3.80712589 -4.08378077 3 0 3 C0 2.01 0 1.02 0 0 Z " fill="#E88323" transform="translate(105,56)"/>
<path d="M0 0 C0.66 1.32 1.32 2.64 2 4 C2.33 3.01 2.66 2.02 3 1 C3.66 1.33 4.32 1.66 5 2 C4.01 4.64 3.02 7.28 2 10 C1.01 9.34 0.02 8.68 -1 8 C-1.99 7.67 -2.98 7.34 -4 7 C-3.67 6.34 -3.34 5.68 -3 5 C-2.34 5.33 -1.68 5.66 -1 6 C-0.67 4.02 -0.34 2.04 0 0 Z " fill="#F6E5C2" transform="translate(65,172)"/>
<path d="M0 0 C0.33 0 0.66 0 1 0 C1 5.94 1 11.88 1 18 C2.65 18 4.3 18 6 18 C5.67 18.99 5.34 19.98 5 21 C3.35 20.67 1.7 20.34 0 20 C0 13.4 0 6.8 0 0 Z " fill="#E1862D" transform="translate(174,168)"/>
<path d="M0 0 C3.08669204 3.08669204 3.44855089 3.91927658 4 8 C3.34 7.67 2.68 7.34 2 7 C1.67 11.62 1.34 16.24 1 21 C0.67 21 0.34 21 0 21 C0 14.07 0 7.14 0 0 Z " fill="#D68838" transform="translate(50,165)"/>
<path d="M0 0 C2.31 0 4.62 0 7 0 C6.67 1.65 6.34 3.3 6 5 C3.36 5 0.72 5 -2 5 C-1.01 4.67 -0.02 4.34 1 4 C0.67 2.68 0.34 1.36 0 0 Z " fill="#F37509" transform="translate(143,176)"/>
<path d="M0 0 C3 0.25 3 0.25 5 2.25 C2.36 2.58 -0.28 2.91 -3 3.25 C-3 4.24 -3 5.23 -3 6.25 C-3.99 6.25 -4.98 6.25 -6 6.25 C-5.17995097 2.14975484 -4.49516759 0.3745973 0 0 Z " fill="#E9882E" transform="translate(143,164.75)"/>
<path d="M0 0 C-0.33 1.65 -0.66 3.3 -1 5 C-2.32 4.34 -3.64 3.68 -5 3 C-5.33 3.99 -5.66 4.98 -6 6 C-8.97 5.505 -8.97 5.505 -12 5 C-8.51164396 2.04831412 -4.66588377 0 0 0 Z " fill="#FAECD2" transform="translate(110,58)"/>
<path d="M0 0 C2.31 0 4.62 0 7 0 C5.515 1.485 5.515 1.485 4 3 C5.32 3.66 6.64 4.32 8 5 C3.45194365 5.17835515 0.1205746 4.99785435 -4 3 C-2.68 2.67 -1.36 2.34 0 2 C0 1.34 0 0.68 0 0 Z " fill="#F7DEBB" transform="translate(140,182)"/>
<path d="M0 0 C-0.99 1.32 -1.98 2.64 -3 4 C-5.35171131 3.40138258 -7.6859378 2.73075648 -10 2 C-10.33 1.34 -10.66 0.68 -11 0 C-3.375 -1.125 -3.375 -1.125 0 0 Z " fill="#F47809" transform="translate(101,187)"/>
<path d="M0 0 C0.66 1.32 1.32 2.64 2 4 C3.31542376 6.01182457 4.6459068 8.01399663 6 10 C3.69 9.67 1.38 9.34 -1 9 C-0.67 6.03 -0.34 3.06 0 0 Z " fill="#F6ECD4" transform="translate(136,175)"/>
<path d="M0 0 C-0.639375 0.886875 -1.27875 1.77375 -1.9375 2.6875 C-3.80829757 5.69211428 -4.59423966 7.5510371 -5 11 C-7 8 -7 8 -6.875 4.4375 C-6 1 -6 1 -4.0625 -0.5 C-2 -1 -2 -1 0 0 Z " fill="#EA8326" transform="translate(93,167)"/>
<path d="M0 0 C1.65 0 3.3 0 5 0 C5 1.98 5 3.96 5 6 C3.68 6 2.36 6 1 6 C0.67 4.02 0.34 2.04 0 0 Z " fill="#F8EBD1" transform="translate(109,161)"/>
<path d="M0 0 C0.33 0 0.66 0 1 0 C1 6.6 1 13.2 1 20 C0.67 20 0.34 20 0 20 C0 15.38 0 10.76 0 6 C-0.66 6 -1.32 6 -2 6 C-1.34 4.02 -0.68 2.04 0 0 Z " fill="#DD7A1A" transform="translate(73,166)"/>
<path d="M0 0 C1.32 0.66 2.64 1.32 4 2 C2.35830472 4.02054804 0.69088222 6.02043058 -1 8 C-1.33 8 -1.66 8 -2 8 C-2.125 5.125 -2.125 5.125 -2 2 C-1.34 1.34 -0.68 0.68 0 0 Z " fill="#F8FBF1" transform="translate(85,165)"/>
<path d="M0 0 C0 0.99 0 1.98 0 3 C1.32 3.33 2.64 3.66 4 4 C-1.94 4 -7.88 4 -14 4 C-14 3.67 -14 3.34 -14 3 C-13.38511719 2.95101562 -12.77023438 2.90203125 -12.13671875 2.8515625 C-11.32847656 2.77679688 -10.52023438 2.70203125 -9.6875 2.625 C-8.88699219 2.55539063 -8.08648437 2.48578125 -7.26171875 2.4140625 C-4.40085313 1.89031163 -2.90947141 0 0 0 Z " fill="#E7A865" transform="translate(102,183)"/>
<path d="M0 0 C0.98120464 3.05263664 0.98120464 4.94736336 0 8 C0.66 8 1.32 8 2 8 C1.34 9.32 0.68 10.64 0 12 C0 11.34 0 10.68 0 10 C-0.99 10 -1.98 10 -3 10 C-2.39009109 6.44219804 -1.4216319 3.3171411 0 0 Z " fill="#FCF1D5" transform="translate(124,170)"/>
<path d="M0 0 C0.99 0 1.98 0 3 0 C3 1.65 3 3.3 3 5 C2.34 5 1.68 5 1 5 C0.67 6.65 0.34 8.3 0 10 C-0.33 10 -0.66 10 -1 10 C-1.125 3.375 -1.125 3.375 0 0 Z " fill="#FBF8EE" transform="translate(67,168)"/>
<path d="M0 0 C2.15377564 2.62198774 3.40072174 4.64404172 4 8 C3.34 8 2.68 8 2 8 C2 7.34 2 6.68 2 6 C1.34 6 0.68 6 0 6 C0.33 6.99 0.66 7.98 1 9 C0.01 8.67 -0.98 8.34 -2 8 C-2 7.01 -2 6.02 -2 5 C-1.34 5 -0.68 5 0 5 C0 3.35 0 1.7 0 0 Z " fill="#FBE6C3" transform="translate(57,168)"/>
<path d="M0 0 C2.33294775 -0.04241723 4.66702567 -0.04092937 7 0 C8 1 8 1 8.0625 4.0625 C8.041875 5.031875 8.02125 6.00125 8 7 C7.01 7 6.02 7 5 7 C5 5.35 5 3.7 5 2 C3.35 1.67 1.7 1.34 0 1 C0 0.67 0 0.34 0 0 Z " fill="#EF7F1F" transform="translate(166,166)"/>
<path d="M0 0 C1.32 0 2.64 0 4 0 C4.6875 1.8125 4.6875 1.8125 5 4 C3.6875 5.75 3.6875 5.75 2 7 C1.34 7 0.68 7 0 7 C0 4.69 0 2.38 0 0 Z " fill="#FDFAEC" transform="translate(159,162)"/>
<path d="M0 0 C-1 3 -1 3 -3 5 C-4.32 5 -5.64 5 -7 5 C-7.33 3.68 -7.66 2.36 -8 1 C-2.25 -1.125 -2.25 -1.125 0 0 Z " fill="#F7EDD8" transform="translate(93,66)"/>
<path d="M0 0 C0.99 0 1.98 0 3 0 C3 0.99 3 1.98 3 3 C-1.95 3 -6.9 3 -12 3 C-12 2.67 -12 2.34 -12 2 C-11.21753906 1.93941406 -10.43507812 1.87882813 -9.62890625 1.81640625 C-8.61699219 1.73261719 -7.60507813 1.64882812 -6.5625 1.5625 C-5.55316406 1.48128906 -4.54382813 1.40007812 -3.50390625 1.31640625 C-1.06359221 1.26788532 -1.06359221 1.26788532 0 0 Z " fill="#F6FDFA" transform="translate(152,171)"/>
<path d="M0 0 C0.78375 0.04125 1.5675 0.0825 2.375 0.125 C2.375 1.115 2.375 2.105 2.375 3.125 C0.5625 3.75 0.5625 3.75 -1.625 4.125 C-2.615 3.465 -3.605 2.805 -4.625 2.125 C-2.625 0.125 -2.625 0.125 0 0 Z " fill="#F0790F" transform="translate(95.625,165.875)"/>
<path d="M0 0 C1 2 1 2 0.22265625 4.3828125 C-0.16019531 5.28773438 -0.54304688 6.19265625 -0.9375 7.125 C-1.31777344 8.03507813 -1.69804688 8.94515625 -2.08984375 9.8828125 C-2.39019531 10.58148438 -2.69054687 11.28015625 -3 12 C-5 9 -5 9 -5 7 C-4.34 7 -3.68 7 -3 7 C-2.87625 6.030625 -2.7525 5.06125 -2.625 4.0625 C-2.41875 3.051875 -2.2125 2.04125 -2 1 C-1.34 0.67 -0.68 0.34 0 0 Z " fill="#E88227" transform="translate(72,153)"/>
<path d="M0 0 C3.92300495 2.35380297 4.83857315 4.64464931 6 9 C3.525 8.01 3.525 8.01 1 7 C0.67 4.69 0.34 2.38 0 0 Z " fill="#EC801F" transform="translate(51,170)"/>
<path d="M0 0 C-2.71182212 2.60334924 -3.89133813 2.99456691 -7.75 3.1875 C-8.8225 3.125625 -9.895 3.06375 -11 3 C-4.23255814 -1.51162791 -4.23255814 -1.51162791 0 0 Z " fill="#FAEDD0" transform="translate(146,45)"/>
<path d="M0 0 C0.99 0.33 1.98 0.66 3 1 C2.67 1.99 2.34 2.98 2 4 C1.34 2.68 0.68 1.36 0 0 Z M-3 4 C-0.525 4.495 -0.525 4.495 2 5 C2 5.66 2 6.32 2 7 C0.35 7 -1.3 7 -3 7 C-3 6.01 -3 5.02 -3 4 Z " fill="#F27E14" transform="translate(85,184)"/>
<path d="M0 0 C1.9078584 3.1749094 2.1609041 5.10585211 1.625 8.75 C1.51414063 9.54921875 1.40328125 10.3484375 1.2890625 11.171875 C1.19367188 11.77515625 1.09828125 12.3784375 1 13 C0.67 13 0.34 13 0 13 C-0.19466332 11.20909747 -0.38051213 9.41723495 -0.5625 7.625 C-0.66691406 6.62726563 -0.77132812 5.62953125 -0.87890625 4.6015625 C-1 2 -1 2 0 0 Z " fill="#E8A158" transform="translate(131,164)"/>
</svg>
