<?xml version="1.0" encoding="UTF-8"?>
<svg version="1.1" xmlns="http://www.w3.org/2000/svg" width="225" height="225">
<path d="M0 0 C74.25 0 148.5 0 225 0 C225 74.25 225 148.5 225 225 C150.75 225 76.5 225 0 225 C0 150.75 0 76.5 0 0 Z " fill="#F37B3F" transform="translate(0,0)"/>
<path d="M0 0 C6.93 0 13.86 0 21 0 C19.86683364 5.09924861 18.80612308 9.87205442 17.3125 14.8125 C14.79010049 23.46072688 12.67827595 32.20978759 10.55004883 40.9621582 C9.14167548 46.69367026 7.62786524 52.295597 5.69018555 57.86938477 C4.4222377 61.78356266 3.58656808 65.80083304 2.6875 69.8125 C0.94546186 77.33921511 -0.98857141 84.78090285 -3.1875 92.1875 C-3.43733643 93.04255127 -3.68717285 93.89760254 -3.94458008 94.77856445 C-4.18329834 95.56706787 -4.4220166 96.35557129 -4.66796875 97.16796875 C-4.87703857 97.86172607 -5.0861084 98.5554834 -5.30151367 99.27026367 C-6 101 -6 101 -8 103 C-12.39453125 86.88671875 -12.39453125 86.88671875 -13.18994141 83.94287109 C-13.73104686 81.97708292 -14.29074063 80.01631936 -14.86865234 78.06103516 C-17.65950954 68.47105261 -16.88425983 61.48761059 -14.375 51.9375 C-14.10574707 50.88763916 -13.83649414 49.83777832 -13.55908203 48.75610352 C-11.25504141 39.82844814 -8.84191331 30.93010441 -6.38671875 22.04296875 C-4.7940559 16.27627967 -3.272612 10.49169493 -1.76171875 4.703125 C-1 2 -1 2 0 0 Z " fill="#47D281" transform="translate(115,81)"/>
<path d="M0 0 C6.93 0 13.86 0 21 0 C24.09629611 10.17354437 26.89420631 20.31030172 29.21166992 30.69018555 C30.2737306 35.3484331 31.55915853 39.73438021 33.30859375 44.17993164 C34.30470646 46.80211394 35.00852795 49.46801937 35.6875 52.1875 C36.06455078 53.66283203 36.06455078 53.66283203 36.44921875 55.16796875 C37 58 37 58 37 63 C30.4 63 23.8 63 17 63 C14.93397417 58.17927307 13.40686648 54.24393352 12.16796875 49.2734375 C11.68650391 47.36848511 11.68650391 47.36848511 11.1953125 45.42504883 C11.03063477 44.76324615 10.86595703 44.10144348 10.69628906 43.41958618 C9.83415996 39.95509101 8.95508996 36.49492678 8.07421875 33.03515625 C7.89958099 32.34836288 7.72494324 31.66156952 7.54501343 30.95396423 C5.76626291 24.00475859 3.79494533 17.11425518 1.72729492 10.24560547 C1.4976001 9.46975098 1.26790527 8.69389648 1.03125 7.89453125 C0.83080078 7.23300049 0.63035156 6.57146973 0.42382812 5.88989258 C0 4 0 4 0 0 Z " fill="#FCFCFB" transform="translate(70,122)"/>
<path d="M0 0 C6.93 0 13.86 0 21 0 C19.87551543 8.99587658 19.87551543 8.99587658 18.58203125 13.4765625 C18.15881592 14.96168335 18.15881592 14.96168335 17.72705078 16.47680664 C17.42524902 17.51571045 17.12344727 18.55461426 16.8125 19.625 C16.18049556 21.84491149 15.54899544 24.06496662 14.91796875 26.28515625 C14.59876465 27.40164551 14.27956055 28.51813477 13.95068359 29.66845703 C12.48802856 34.79413516 11.04788492 39.92565175 9.625 45.0625 C9.24952026 46.38918701 9.24952026 46.38918701 8.86645508 47.74267578 C8.51877075 49.00120361 8.51877075 49.00120361 8.1640625 50.28515625 C7.86169678 51.36615601 7.86169678 51.36615601 7.55322266 52.46899414 C6.79552813 55.9354633 6.44011379 59.47908971 6 63 C-1.26 63 -8.52 63 -16 63 C-14.46073816 56.07332172 -12.84628611 49.19327294 -11.125 42.3125 C-10.85961426 41.2503125 -10.59422852 40.188125 -10.32080078 39.09375 C-8.65271295 32.46590799 -6.87200762 25.8931772 -4.9453125 19.3359375 C-3.13085572 12.93285447 -1.58731877 6.46265498 0 0 Z " fill="#44D281" transform="translate(152,50)"/>
<path d="M0 0 C6.93 0 13.86 0 21 0 C31 34.54545455 31 34.54545455 31 40 C24.4 40 17.8 40 11 40 C8.67917717 35.35835434 7.14593943 31.42406574 5.95703125 26.484375 C5.78370773 25.78733459 5.61038422 25.09029419 5.43180847 24.37213135 C5.06978784 22.91069035 4.71113369 21.44841164 4.35571289 19.98535156 C3.81030031 17.74094817 3.25468977 15.49925978 2.69726562 13.2578125 C2.34576345 11.83347898 1.99483151 10.40900459 1.64453125 8.984375 C1.47895218 8.31355896 1.31337311 7.64274292 1.14277649 6.95159912 C0 2.23457263 0 2.23457263 0 0 Z " fill="#FCFCF9" transform="translate(37,107)"/>
<path d="M0 0 C0.66 1.32 1.32 2.64 2 4 C2.66 4 3.32 4 4 4 C4.33 4.99 4.66 5.98 5 7 C5.33 6.01 5.66 5.02 6 4 C6.99 4.33 7.98 4.66 9 5 C8.01 5.495 8.01 5.495 7 6 C7.4168103 7.40693115 7.4168103 7.40693115 7.84204102 8.84228516 C8.87420091 12.33862231 9.88960897 15.83964335 10.90014648 19.34228516 C11.33898158 20.85467297 11.78228832 22.36577101 12.23022461 23.87548828 C12.87506473 26.05173403 13.50343013 28.23218361 14.12890625 30.4140625 C14.33093155 31.08305573 14.53295685 31.75204895 14.74110413 32.4413147 C15.9247704 36.6451667 16.03583514 39.75910158 15 44 C13.68 44 12.36 44 11 44 C11.04125 42.7625 11.0825 41.525 11.125 40.25 C11.13658291 36.98362038 10.8568702 34.7853053 9 32 C9 32.66 9 33.32 9 34 C8.34 34 7.68 34 7 34 C7 34.66 7 35.32 7 36 C6.34 36 5.68 36 5 36 C5 34.68 5 33.36 5 32 C-1.93 32 -8.86 32 -16 32 C-15.67 31.34 -15.34 30.68 -15 30 C-8.4 30.33 -1.8 30.66 5 31 C4.55527344 29.4325 4.11054687 27.865 3.65234375 26.25 C3.07995473 24.16687931 2.50838322 22.08353386 1.9375 20 C1.64294922 18.97003906 1.34839844 17.94007813 1.04492188 16.87890625 C-0.60530119 10.7827881 -1.30509733 6.20480558 0 0 Z " fill="#EE8046" transform="translate(63,116)"/>
<path d="M0 0 C0.66 0.33 1.32 0.66 2 1 C2.63817067 3.3045052 3.02037323 5.61496323 3.4375 7.96875 C3.623125 8.6390625 3.80875 9.309375 4 10 C4.66 10.33 5.32 10.66 6 11 C5.68872484 12.58357459 5.37592711 14.16684993 5.0625 15.75 C4.80146484 17.07257813 4.80146484 17.07257813 4.53515625 18.421875 C4.07631512 20.63235053 3.56663926 22.81512068 3 25 C2.34 25 1.68 25 1 25 C0.67 25.66 0.34 26.32 0 27 C0.33 25.35 0.66 23.7 1 22 C-0.65 23.32 -2.3 24.64 -4 26 C-4.66 25.67 -5.32 25.34 -6 25 C-5.34228573 20.51247034 -4.28665317 16.2846848 -3 11.9375 C-1.82901167 7.97249907 -0.73847659 4.06931373 0 0 Z " fill="#EB8045" transform="translate(134,85)"/>
<path d="M0 0 C0.66 0.33 1.32 0.66 2 1 C2.6328125 3.50390625 2.6328125 3.50390625 3.125 6.5625 C3.29257813 7.57441406 3.46015625 8.58632812 3.6328125 9.62890625 C3.75398438 10.41136719 3.87515625 11.19382813 4 12 C4.33 12 4.66 12 5 12 C5 13.98 5 15.96 5 18 C4.34 18 3.68 18 3 18 C3.33 18.99 3.66 19.98 4 21 C4.66 21.33 5.32 21.66 6 22 C6 22.66 6 23.32 6 24 C5.34 24 4.68 24 4 24 C4 24.66 4 25.32 4 26 C3.34 26 2.68 26 2 26 C2 24.68 2 23.36 2 22 C-4.93 22 -11.86 22 -19 22 C-18.67 21.34 -18.34 20.68 -18 20 C-11.4 20.33 -4.8 20.66 2 21 C0.68 15.72 -0.64 10.44 -2 5 C-1.34 5 -0.68 5 0 5 C0 3.35 0 1.7 0 0 Z " fill="#EF8B58" transform="translate(66,126)"/>
<path d="M0 0 C6.93 0 13.86 0 21 0 C19.78890831 5.44991262 18.5849657 10.67904372 17 16 C14.68925793 14.19159316 14.01423382 13.04927091 13.1875 10.1875 C13 7 13 7 15 1 C10.05 1 5.1 1 0 1 C0 0.67 0 0.34 0 0 Z " fill="#77BD73" transform="translate(115,81)"/>
<path d="M0 0 C6.93 0 13.86 0 21 0 C20.67 1.32 20.34 2.64 20 4 C19.01 3.67 18.02 3.34 17 3 C17.33 3.99 17.66 4.98 18 6 C17.01 6.495 17.01 6.495 16 7 C16 6.01 16 5.02 16 4 C10.72 4 5.44 4 0 4 C0 2.68 0 1.36 0 0 Z " fill="#54CD7D" transform="translate(152,50)"/>
<path d="M0 0 C0.33 0 0.66 0 1 0 C1.06058594 0.81984375 1.12117188 1.6396875 1.18359375 2.484375 C1.26738281 3.56203125 1.35117188 4.6396875 1.4375 5.75 C1.51871094 6.81734375 1.59992188 7.8846875 1.68359375 8.984375 C1.88834097 11.8692558 1.88834097 11.8692558 2.625 14.03125 C3.1672784 16.8782116 2.38252695 18.99470945 1.5625 21.75 C1.27503906 22.73484375 0.98757812 23.7196875 0.69140625 24.734375 C0.46324219 25.48203125 0.23507813 26.2296875 0 27 C-2.29946417 23.55080374 -2.80769035 20.8618978 -3.625 16.8125 C-4.01558594 14.90404297 -4.01558594 14.90404297 -4.4140625 12.95703125 C-4.60742188 11.98121094 -4.80078125 11.00539062 -5 10 C-4.01 10.33 -3.02 10.66 -2 11 C-1.34 7.37 -0.68 3.74 0 0 Z " fill="#EA8043" transform="translate(98,120)"/>
<path d="M0 0 C6.93 0 13.86 0 21 0 C21.33 1.98 21.66 3.96 22 6 C21.5877417 5.51104248 21.1754834 5.02208496 20.75073242 4.51831055 C18.62846375 2.67778776 17.75064629 2.64472226 14.98828125 2.70703125 C14.23095703 2.71669922 13.47363281 2.72636719 12.69335938 2.73632812 C11.90767578 2.76146484 11.12199219 2.78660156 10.3125 2.8125 C9.51521484 2.82603516 8.71792969 2.83957031 7.89648438 2.85351562 C5.93070033 2.88882911 3.96526418 2.94263553 2 3 C1.67 3.99 1.34 4.98 1 6 C0.67 4.02 0.34 2.04 0 0 Z " fill="#FBEDE2" transform="translate(70,122)"/>
<path d="M0 0 C2.91562667 4.37344001 3.68432959 8.91672797 5 14 C11.6 14.33 18.2 14.66 25 15 C25 15.33 25 15.66 25 16 C17.74 16 10.48 16 3 16 C2.34 14.68 1.68 13.36 1 12 C0.34 13.32 -0.32 14.64 -1 16 C-2.46322678 13.07354643 -1.88789453 10.67394481 -1.625 7.4375 C-1.53476563 6.26058594 -1.44453125 5.08367187 -1.3515625 3.87109375 C-1 1 -1 1 0 0 Z " fill="#EE9363" transform="translate(82,170)"/>
<path d="M0 0 C0.33 1.32 0.66 2.64 1 4 C7.93 4 14.86 4 22 4 C20.68 4.33 19.36 4.66 18 5 C18 5.66 18 6.32 18 7 C16.31970703 6.98259766 16.31970703 6.98259766 14.60546875 6.96484375 C13.13281417 6.95546378 11.66015778 6.9463638 10.1875 6.9375 C9.44951172 6.92912109 8.71152344 6.92074219 7.95117188 6.91210938 C4.70077932 6.89740172 2.10595105 6.96468298 -1 8 C-0.67 5.36 -0.34 2.72 0 0 Z " fill="#EC7E46" transform="translate(46,144)"/>
<path d="M0 0 C0.99 0.66 1.98 1.32 3 2 C3 2.99 3 3.98 3 5 C2.01 5 1.02 5 0 5 C0 5.66 0 6.32 0 7 C0.99 7.33 1.98 7.66 3 8 C3 8.66 3 9.32 3 10 C1.35 10.33 -0.3 10.66 -2 11 C0.475 11.495 0.475 11.495 3 12 C3 12.33 3 12.66 3 13 C0.36 13 -2.28 13 -5 13 C-5 12.01 -5 11.02 -5 10 C-10.28 10 -15.56 10 -21 10 C-21 9.67 -21 9.34 -21 9 C-15.06 9 -9.12 9 -3 9 C-2.01 6.03 -1.02 3.06 0 0 Z " fill="#EF8044" transform="translate(109,179)"/>
<path d="M0 0 C0.33 0 0.66 0 1 0 C2.125 7.625 2.125 7.625 1 11 C6.61 11 12.22 11 18 11 C18.33 10.01 18.66 9.02 19 8 C19 9.32 19 10.64 19 12 C11.74 12 4.48 12 -3 12 C-1 3 -1 3 0 0 Z " fill="#6BC26C" transform="translate(139,101)"/>
<path d="M0 0 C0.33 0.99 0.66 1.98 1 3 C1.66 3 2.32 3 3 3 C3 3.99 3 4.98 3 6 C2.67 6.33 2.34 6.66 2 7 C2 7.99 2 8.98 2 10 C1.34 10 0.68 10 0 10 C0.33 11.32 0.66 12.64 1 14 C0.34 14 -0.32 14 -1 14 C-1.33 14.99 -1.66 15.98 -2 17 C-2.66 17 -3.32 17 -4 17 C-2.76123355 11.30694567 -1.43723997 5.64629987 0 0 Z " fill="#E98245" transform="translate(116,154)"/>
<path d="M0 0 C0.66 0 1.32 0 2 0 C3.125 7.75 3.125 7.75 2 10 C1.34 10 0.68 10 0 10 C-0.33 8.68 -0.66 7.36 -1 6 C-1.66 6 -2.32 6 -3 6 C-3.33 7.32 -3.66 8.64 -4 10 C-3.67 7.03 -3.34 4.06 -3 1 C-2.34 1.33 -1.68 1.66 -1 2 C-0.67 1.34 -0.34 0.68 0 0 Z " fill="#E98142" transform="translate(109,88)"/>
<path d="M0 0 C0.99 0.99 1.98 1.98 3 3 C3.99 2.34 4.98 1.68 6 1 C5.67 4.63 5.34 8.26 5 12 C3.02 12.33 1.04 12.66 -1 13 C-1 12.34 -1 11.68 -1 11 C-0.34 11 0.32 11 1 11 C0.43260132 6.87026372 0.43260132 6.87026372 -1 3 C-0.67 2.01 -0.34 1.02 0 0 Z " fill="#E68341" transform="translate(162,91)"/>
<path d="M0 0 C0.66 0.33 1.32 0.66 2 1 C2.63817067 3.3045052 3.02037323 5.61496323 3.4375 7.96875 C3.623125 8.6390625 3.80875 9.309375 4 10 C4.66 10.33 5.32 10.66 6 11 C5.67 13.64 5.34 16.28 5 19 C4.67 19 4.34 19 4 19 C3.67 17.35 3.34 15.7 3 14 C2.01 14.495 2.01 14.495 1 15 C1.04125 14.0925 1.0825 13.185 1.125 12.25 C1.23338185 9.09548812 1.23338185 9.09548812 -0.0625 6.9375 C-1.32763276 4.3228923 -0.7591193 2.73282949 0 0 Z " fill="#E3844B" transform="translate(134,85)"/>
<path d="M0 0 C1.5625 1.5625 1.5625 1.5625 3 4 C2.68177461 9.40983171 1.23174645 14.72621182 0 20 C-0.33 20 -0.66 20 -1 20 C-1.02703562 17.41659616 -1.04685611 14.83347692 -1.0625 12.25 C-1.07087891 11.52039063 -1.07925781 10.79078125 -1.08789062 10.0390625 C-1.10391684 6.51329442 -0.95292713 3.38965084 0 0 Z " fill="#E78246" transform="translate(146,58)"/>
<path d="M0 0 C2.27700057 2.27700057 2.52101692 3.41313098 3.1875 6.5 C3.36667969 7.2940625 3.54585937 8.088125 3.73046875 8.90625 C4 11 4 11 3 13 C2.01 13 1.02 13 0 13 C-1.76462683 9.91190305 -2 8.76687864 -2 5 C-1.34 5 -0.68 5 0 5 C0 3.35 0 1.7 0 0 Z " fill="#F38755" transform="translate(36,107)"/>
<path d="M0 0 C1.32 0 2.64 0 4 0 C3.34 3.63 2.68 7.26 2 11 C1.34 11 0.68 11 0 11 C-1.26026798 8.47946405 -0.91874445 7.1457902 -0.5625 4.375 C-0.46066406 3.55773437 -0.35882813 2.74046875 -0.25390625 1.8984375 C-0.17011719 1.27195312 -0.08632812 0.64546875 0 0 Z " fill="#44D37C" transform="translate(131,82)"/>
<path d="M0 0 C2 3 2 3 1.5390625 5.48046875 C1.23742187 6.37378906 0.93578125 7.26710937 0.625 8.1875 C0.32851562 9.08855469 0.03203125 9.98960937 -0.2734375 10.91796875 C-0.63308594 11.94857422 -0.63308594 11.94857422 -1 13 C-1.99 12.67 -2.98 12.34 -4 12 C-3.49143107 8.27049451 -2.87204577 5.27608009 -1 2 C-0.67 1.34 -0.34 0.68 0 0 Z " fill="#E88141" transform="translate(125,126)"/>
<path d="M0 0 C2.00293347 3.00440021 2.49271626 4.70993945 3.125 8.1875 C3.29257813 9.08855469 3.46015625 9.98960937 3.6328125 10.91796875 C3.75398438 11.60503906 3.87515625 12.29210937 4 13 C2.02 13.99 2.02 13.99 0 15 C-0.84888195 9.62374766 -1.0024305 5.34629602 0 0 Z " fill="#EEF9F6" transform="translate(98,151)"/>
<path d="M0 0 C2.64455995 3.96683992 3.28109187 7.15282485 2.5625 11.875 C2.376875 12.57625 2.19125 13.2775 2 14 C-0.63091471 10.05362794 -1.40815007 6.27397897 -0.5625 1.5625 C-0.376875 1.046875 -0.19125 0.53125 0 0 Z " fill="#54CA7A" transform="translate(140,95)"/>
<path d="M0 0 C0.66 0 1.32 0 2 0 C2.33 3.96 2.66 7.92 3 12 C2.01 12.495 2.01 12.495 1 13 C0.855625 12.236875 0.71125 11.47375 0.5625 10.6875 C0.0367406 7.91827092 0.0367406 7.91827092 -1 5 C-0.34 5 0.32 5 1 5 C0.67 3.35 0.34 1.7 0 0 Z " fill="#F27B3B" transform="translate(70,131)"/>
<path d="M0 0 C0.33 0 0.66 0 1 0 C1.144375 0.928125 1.28875 1.85625 1.4375 2.8125 C1.92100111 6.00725111 1.92100111 6.00725111 3 9 C2.01 9.66 1.02 10.32 0 11 C-0.66 10.67 -1.32 10.34 -2 10 C-1.46274105 6.62294375 -0.88935377 3.303314 0 0 Z " fill="#4CCE76" transform="translate(146,74)"/>
<path d="M0 0 C1.625 1.5625 1.625 1.5625 3 4 C2.1875 7.75 2.1875 7.75 1 11 C0.67 11 0.34 11 0 11 C-1.125 3.375 -1.125 3.375 0 0 Z " fill="#53CA79" transform="translate(114,83)"/>
<path d="M0 0 C0.33 0 0.66 0 1 0 C0.85923685 1.9587043 0.7122324 3.91696093 0.5625 5.875 C0.48128906 6.96554688 0.40007812 8.05609375 0.31640625 9.1796875 C0 12 0 12 -1 14 C-1.66 14 -2.32 14 -3 14 C-2.69024532 12.22868439 -2.37709575 10.45796222 -2.0625 8.6875 C-1.88847656 7.70136719 -1.71445313 6.71523437 -1.53515625 5.69921875 C-1 3 -1 3 0 0 Z " fill="#54CA6E" transform="translate(150,58)"/>
<path d="M0 0 C1.95216435 3.90432869 2.50639991 6.72213252 3 11 C1.68 10.67 0.36 10.34 -1 10 C-0.67 6.7 -0.34 3.4 0 0 Z " fill="#FCEEE4" transform="translate(65,136)"/>
<path d="M0 0 C1 3 1 3 0 6 C0.66 6 1.32 6 2 6 C1.67 8.31 1.34 10.62 1 13 C-1 11 -1 11 -1.23046875 8.90625 C-1.21628906 8.1121875 -1.20210938 7.318125 -1.1875 6.5 C-1.18105469 5.7059375 -1.17460938 4.911875 -1.16796875 4.09375 C-1 2 -1 2 0 0 Z " fill="#5DC67A" transform="translate(122,119)"/>
<path d="M0 0 C0.33 0 0.66 0 1 0 C0.979375 0.928125 0.95875 1.85625 0.9375 2.8125 C0.84230396 6.02286011 0.84230396 6.02286011 2 9 C1.34 9 0.68 9 0 9 C-0.33 9.66 -0.66 10.32 -1 11 C-2.60080151 6.99799622 -1.29279692 3.95443764 0 0 Z " fill="#D7894B" transform="translate(170,61)"/>
<path d="M0 0 C0.99 0.66 1.98 1.32 3 2 C3 2.99 3 3.98 3 5 C2.01 5 1.02 5 0 5 C-0.33 5.99 -0.66 6.98 -1 8 C-1.66 7.67 -2.32 7.34 -3 7 C-2.01 4.69 -1.02 2.38 0 0 Z " fill="#DB8D55" transform="translate(109,179)"/>
<path d="M0 0 C0.99 0 1.98 0 3 0 C3 3.63 3 7.26 3 11 C0.43383368 7.15075052 0.44902324 4.5650696 0 0 Z " fill="#FCF2E9" transform="translate(74,136)"/>
<path d="M0 0 C0.66 0 1.32 0 2 0 C2 0.66 2 1.32 2 2 C2.66 2 3.32 2 4 2 C4.33 1.34 4.66 0.68 5 0 C4.625 1.9375 4.625 1.9375 4 4 C3.01 4.495 3.01 4.495 2 5 C1.34 4.67 0.68 4.34 0 4 C-0.33 4.99 -0.66 5.98 -1 7 C-0.67 4.69 -0.34 2.38 0 0 Z " fill="#57C974" transform="translate(104,120)"/>
<path d="M0 0 C0.33 0 0.66 0 1 0 C1.33 3.3 1.66 6.6 2 10 C1.67 9.34 1.34 8.68 1 8 C0.34 8 -0.32 8 -1 8 C-0.67 5.36 -0.34 2.72 0 0 Z " fill="#50CC7C" transform="translate(115,144)"/>
<path d="M0 0 C2.83022097 3.99560608 1.76210446 7.42737323 1 12 C0.67 12 0.34 12 0 12 C-1.28571429 3.42857143 -1.28571429 3.42857143 0 0 Z " fill="#E68344" transform="translate(172,54)"/>
<path d="M0 0 C2.17766075 4.35532149 2.03039555 5.46625958 1 10 C0.34 9.67 -0.32 9.34 -1 9 C-0.67 6.03 -0.34 3.06 0 0 Z " fill="#EF8854" transform="translate(77,150)"/>
<path d="M0 0 C0.66 0.33 1.32 0.66 2 1 C1.34 3.64 0.68 6.28 0 9 C-2 6 -2 6 -1.6875 3.9375 C-1 2 -1 2 0 0 Z " fill="#DD8B55" transform="translate(98,138)"/>
</svg>
