<?xml version="1.0" encoding="UTF-8"?>
<svg version="1.1" xmlns="http://www.w3.org/2000/svg" width="225" height="225">
<path d="M0 0 C74.25 0 148.5 0 225 0 C225 74.25 225 148.5 225 225 C150.75 225 76.5 225 0 225 C0 150.75 0 76.5 0 0 Z " fill="#030202" transform="translate(0,0)"/>
<path d="M0 0 C14.68301107 11.83918017 24.74735468 27.09297702 28.25927734 45.72021484 C28.59958984 47.39083984 28.59958984 47.39083984 28.94677734 49.09521484 C30.75754695 70.10014231 25.49735522 88.6451271 12.26318359 105.22021484 C-0.79249978 120.48675369 -17.89792881 129.32437906 -37.78173828 130.87988281 C-58.70651893 132.08862494 -77.1081838 125.4087635 -92.90478516 111.86474609 C-94.61729666 110.21635947 -96.19291685 108.52324395 -97.74072266 106.72021484 C-98.22541016 106.17623047 -98.71009766 105.63224609 -99.20947266 105.07177734 C-107.20055778 95.33795557 -112.46281085 83.01340829 -114.74072266 70.72021484 C-114.92119141 69.92615234 -115.10166016 69.13208984 -115.28759766 68.31396484 C-118.13041035 52.04131287 -113.64703768 33.36913334 -104.73681641 19.63037109 C-94.83041326 5.96814902 -82.82879296 -4.5181406 -66.74072266 -10.27978516 C-65.93376953 -10.57755859 -65.12681641 -10.87533203 -64.29541016 -11.18212891 C-43.10639739 -17.73200892 -17.79922125 -13.08604737 0 0 Z " fill="#040303" transform="translate(155.74072265625,25.27978515625)"/>
<path d="M0 0 C34.98 0 69.96 0 106 0 C106 5.61 106 11.22 106 17 C89.17 17 72.34 17 55 17 C55 27.56 55 38.12 55 49 C55.99 49 56.98 49 58 49 C58 56.92 58 64.84 58 73 C57.01 73 56.02 73 55 73 C55 84.88 55 96.76 55 109 C53.35 109 51.7 109 50 109 C50 97.12 50 85.24 50 73 C49.01 73 48.02 73 47 73 C47 65.08 47 57.16 47 49 C47.99 49 48.98 49 50 49 C50 38.11 50 27.22 50 16 C33.5 16 17 16 0 16 C0 10.72 0 5.44 0 0 Z " fill="#FDFEFD" transform="translate(60,38)"/>
<path d="M0 0 C9.55933229 7.84596563 9.55933229 7.84596563 11.14648438 12.60742188 C-24.16351563 12.27742188 -59.47351563 11.94742188 -95.85351562 11.60742188 C-95.19351563 11.27742188 -94.53351563 10.94742188 -93.85351562 10.60742188 C-93.71171875 9.83011719 -93.56992188 9.0528125 -93.42382812 8.25195312 C-92.39304643 3.47223254 -88.7019957 1.32992743 -84.85351562 -1.39257812 C-58.91649077 -17.59184277 -25.25348164 -18.97337451 0 0 Z " fill="#030202" transform="translate(155.853515625,25.392578125)"/>
<path d="M0 0 C0.99064453 -0.01224609 1.98128906 -0.02449219 3.00195312 -0.03710938 C23.57416917 -0.07757931 41.43018713 8.63062057 56.25048828 22.60302734 C70.55053315 37.10869962 77.39106465 57.00249918 77.30249023 77.15209961 C76.54155528 99.1587107 66.14890993 117.64101511 50.6015625 132.765625 C33.63835913 147.49557751 12.59044598 151.71355182 -9.1875 150.1875 C-29.25923663 147.90216889 -45.71506482 136.36651719 -58.5 121.3125 C-72.63267805 102.62563255 -75.71425141 81.79192944 -72.90625 58.89404297 C-72.18019189 54.75324281 -70.86772166 51.02868663 -69.1875 47.1875 C-68.92437012 46.58437988 -68.66124023 45.98125977 -68.39013672 45.35986328 C-63.91863993 35.41729911 -57.96408289 27.757929 -50.1875 20.1875 C-49.50816406 19.51074219 -48.82882813 18.83398438 -48.12890625 18.13671875 C-34.88241982 5.71641651 -17.84429012 0.01138755 0 0 Z M-54.49609375 28.69140625 C-61.52828049 36.97316871 -66.36254984 46.71086365 -69.1875 57.1875 C-69.49494141 58.30125 -69.49494141 58.30125 -69.80859375 59.4375 C-74.37215007 78.57296375 -69.87074202 96.63868064 -60.1875 113.1875 C-49.53358362 130.13982386 -34.7253655 140.63359501 -15.4921875 145.9296875 C4.11651273 150.20262815 23.84905445 146.580463 40.8125 136.1875 C52.13451929 128.64974259 61.10453587 118.52174427 66.8125 106.1875 C67.19019531 105.37667969 67.56789062 104.56585938 67.95703125 103.73046875 C75.97773101 85.13566293 75.278883 66.51557707 68.6875 47.5625 C61.3570218 29.72865004 47.42740205 16.14957235 29.875 8.4375 C27.86408044 7.66131067 25.84322126 6.91029909 23.8125 6.1875 C22.93722656 5.86652344 22.06195313 5.54554687 21.16015625 5.21484375 C-7.38411817 -3.59006156 -35.13843675 7.69604562 -54.49609375 28.69140625 Z " fill="#C9BB89" transform="translate(111.1875,8.8125)"/>
<path d="M0 0 C34.98 0 69.96 0 106 0 C106 5.61 106 11.22 106 17 C89.17 17 72.34 17 55 17 C55 27.56 55 38.12 55 49 C55.99 49 56.98 49 58 49 C58 56.92 58 64.84 58 73 C57.01 73 56.02 73 55 73 C55 84.88 55 96.76 55 109 C53.35 109 51.7 109 50 109 C50 97.12 50 85.24 50 73 C49.01 73 48.02 73 47 73 C47 65.08 47 57.16 47 49 C47.99 49 48.98 49 50 49 C50 38.44 50 27.88 50 17 C50.66 17 51.32 17 52 17 C52.495 15.515 52.495 15.515 53 14 C53 14.66 53 15.32 53 16 C70.16 16 87.32 16 105 16 C105 11.05 105 6.1 105 1 C70.35 1 35.7 1 0 1 C0 0.67 0 0.34 0 0 Z " fill="#ECECEC" transform="translate(60,38)"/>
<path d="M0 0 C0 0.33 0 0.66 0 1 C2.97 1.33 5.94 1.66 9 2 C9 2.33 9 2.66 9 3 C7.63681641 3.03867188 7.63681641 3.03867188 6.24609375 3.078125 C-15.35029125 4.05273109 -33.22062849 11.18012676 -48 27 C-60.72749446 41.47556083 -66.79012405 58.98211231 -66.2734375 78.21875 C-64.83288494 98.13953391 -55.8599067 116.4645736 -41 130 C-29.89701799 138.88840711 -17.07748095 144.10983723 -3 146 C-5.38848494 148.29016958 -6.49048843 149.00836408 -9.85546875 148.953125 C-30.06212274 144.6891183 -46.35913079 132.9961719 -58 116 C-69.36516932 98.35714988 -71.98268675 77.32118224 -68.375 56.74609375 C-67.50114285 53.31698468 -66.41765977 50.24093891 -65 47 C-64.73687012 46.39687988 -64.47374023 45.79375977 -64.20263672 45.17236328 C-59.73113993 35.22979911 -53.77658289 27.570429 -46 20 C-45.32066406 19.32324219 -44.64132813 18.64648438 -43.94140625 17.94921875 C-32.37376843 7.10305522 -15.92556583 -0.312266 0 0 Z " fill="#8B7241" transform="translate(107,9)"/>
<path d="M0 0 C1.65 0 3.3 0 5 0 C5 2.64 5 5.28 5 8 C5.99 8 6.98 8 8 8 C8 15.92 8 23.84 8 32 C7.01 32 6.02 32 5 32 C5 45.86 5 59.72 5 74 C3.35 74 1.7 74 0 74 C0 60.14 0 46.28 0 32 C-0.99 32 -1.98 32 -3 32 C-3 24.08 -3 16.16 -3 8 C-2.01 8 -1.02 8 0 8 C0 5.36 0 2.72 0 0 Z " fill="#2F9E6C" transform="translate(135,62)"/>
<path d="M0 0 C4.62 0 9.24 0 14 0 C14 0.66 14 1.32 14 2 C10.37 2 6.74 2 3 2 C3.33 3.65 3.66 5.3 4 7 C5.6045556 6.85851011 7.20863767 6.71164314 8.8125 6.5625 C10.15248047 6.44068359 10.15248047 6.44068359 11.51953125 6.31640625 C14.12743559 6.06510233 14.12743559 6.06510233 17 5 C17 3.35 17 1.7 17 0 C19.10353495 -0.0810206 21.20795952 -0.13919907 23.3125 -0.1875 C24.48425781 -0.22230469 25.65601563 -0.25710937 26.86328125 -0.29296875 C30 0 30 0 31.90625 1.34375 C33.40545527 3.61397512 33.21562026 5.34068352 33 8 C31.02 8.99 31.02 8.99 29 10 C29.66 10.94875 30.32 11.8975 31 12.875 C33 16 33 16 33 18 C32.01 18 31.02 18 30 18 C29.401875 17.030625 28.80375 16.06125 28.1875 15.0625 C26.27963699 11.70660152 26.27963699 11.70660152 22.75 11.125 C21.38875 11.063125 21.38875 11.063125 20 11 C20 13.31 20 15.62 20 18 C19.360625 17.814375 18.72125 17.62875 18.0625 17.4375 C17.0415625 17.2209375 17.0415625 17.2209375 16 17 C15.67 17.33 15.34 17.66 15 18 C12.4672235 18.07320163 9.96896082 18.09227569 7.4375 18.0625 C4.983125 18.041875 2.52875 18.02125 0 18 C0 12.06 0 6.12 0 0 Z " fill="#0B0B0B" transform="translate(132,200)"/>
<path d="M0 0 C1.32 0 2.64 0 4 0 C4 13.2 4 26.4 4 40 C4.99 40 5.98 40 7 40 C7 47.59 7 55.18 7 63 C6.01 63.495 6.01 63.495 5 64 C4.53348793 66.12576782 4.53348793 66.12576782 4.375 68.5625 C4.30023438 69.38878906 4.22546875 70.21507812 4.1484375 71.06640625 C4.09945312 71.70449219 4.05046875 72.34257812 4 73 C2.68 73 1.36 73 0 73 C0 70.03 0 67.06 0 64 C-0.99 64 -1.98 64 -3 64 C-3 56.08 -3 48.16 -3 40 C-2.01 40 -1.02 40 0 40 C0 26.8 0 13.6 0 0 Z " fill="#D15340" transform="translate(86,63)"/>
<path d="M0 0 C3.12603632 1.24280551 3.79695509 2.17558345 6 5 C6.93136391 9.73443322 6.59840726 13.66718382 4.625 18.0625 C2.60600814 20.46975952 1.65917438 20.93617518 -1.4609375 21.23828125 C-9.36340942 21.43955064 -9.36340942 21.43955064 -12.625 19.1875 C-15.22936138 15.0441978 -15.70021953 10.78950157 -15 6 C-11.04580583 -0.1949042 -7.0171585 -0.98733889 0 0 Z " fill="#EEEEEE" transform="translate(155,171)"/>
<path d="M0 0 C34.98 0 69.96 0 106 0 C106 5.61 106 11.22 106 17 C89.17 17 72.34 17 55 17 C55 27.56 55 38.12 55 49 C51.535 49.495 51.535 49.495 48 50 C48 57.26 48 64.52 48 72 C48.99 72.495 48.99 72.495 50 73 C49.01 73 48.02 73 47 73 C47 65.08 47 57.16 47 49 C47.99 49 48.98 49 50 49 C50 38.44 50 27.88 50 17 C50.66 17 51.32 17 52 17 C52.495 15.515 52.495 15.515 53 14 C53 14.66 53 15.32 53 16 C70.16 16 87.32 16 105 16 C105 11.05 105 6.1 105 1 C70.35 1 35.7 1 0 1 C0 0.67 0 0.34 0 0 Z " fill="#C6C6C6" transform="translate(60,38)"/>
<path d="M0 0 C13.83475027 -0.41923486 13.83475027 -0.41923486 18 3 C18.3125 6.6875 18.3125 6.6875 18 10 C16.02 10.99 16.02 10.99 14 12 C15.65 14.97 17.3 17.94 19 21 C17.35 21 15.7 21 14 21 C10 16.02702703 10 16.02702703 10 13 C8.02 13 6.04 13 4 13 C4 15.64 4 18.28 4 21 C2.68 21 1.36 21 0 21 C0 14.07 0 7.14 0 0 Z " fill="#EEEEEE" transform="translate(119,171)"/>
<path d="M0 0 C0.70745361 0.00942627 1.41490723 0.01885254 2.14379883 0.02856445 C3.23301636 0.03980347 3.23301636 0.03980347 4.34423828 0.05126953 C24.43402372 0.45141102 42.72428396 10.04581759 56.64379883 24.27856445 C58.68542864 26.63214596 60.56754078 29.06755664 62.39379883 31.59106445 C63.02125 32.45248047 63.02125 32.45248047 63.66137695 33.33129883 C66.13138732 36.93809907 67.24923788 39.93181805 67.64379883 44.27856445 C63.83282117 43.00823857 63.50372008 41.75953994 61.51879883 38.34106445 C50.43905739 20.40907202 35.01332801 10.18514082 14.72192383 5.09106445 C7.46038235 3.53037494 0.03238332 2.92178601 -7.35620117 2.27856445 C-4.87223886 -0.20539785 -3.3940099 0.02182246 0 0 Z " fill="#CBC3AA" transform="translate(112.356201171875,8.721435546875)"/>
<path d="M0 0 C2.0625 -0.04125 4.125 -0.0825 6.25 -0.125 C7.99023438 -0.15980469 7.99023438 -0.15980469 9.765625 -0.1953125 C12.85490276 -0.00876191 14.52123058 0.18813759 17 2 C18.21404424 6.02152154 18.41909763 8.10465506 16.625 11.9375 C12.85903748 14.89647055 9.62142741 14.44436802 5 14 C5 16.31 5 18.62 5 21 C3.35 21 1.7 21 0 21 C0 14.07 0 7.14 0 0 Z " fill="#D0D0D0" transform="translate(98,171)"/>
<path d="M0 0 C10.06312625 -0.60621242 10.06312625 -0.60621242 14.1875 2.0625 C16.46398727 5.75197936 16.61008934 7.72937462 16 12 C13.8 16.6 13.8 16.6 11 18 C7.32984725 18.1377685 3.67388652 18.04271961 0 18 C0 12.06 0 6.12 0 0 Z " fill="#DFDFDF" transform="translate(113,200)"/>
<path d="M0 0 C0.99 0 1.98 0 3 0 C-0.9028305 9.07307503 -11.44537914 14.95867911 -20 19 C-30.49662221 23.00923234 -40.45364239 25.17988383 -51.6875 25.1875 C-52.64978516 25.19974609 -53.61207031 25.21199219 -54.60351562 25.22460938 C-55.52197266 25.22654297 -56.44042969 25.22847656 -57.38671875 25.23046875 C-58.64295044 25.23663208 -58.64295044 25.23663208 -59.92456055 25.24291992 C-62 25 -62 25 -64 23 C-62.13699346 21.13699346 -59.45841672 21.79408319 -56.9699707 21.71069336 C-34.72994505 20.95813875 -16.15802724 16.15802724 0 0 Z " fill="#CFC7A8" transform="translate(164,134)"/>
<path d="M0 0 C11.48312994 -0.37042355 11.48312994 -0.37042355 13.875 1.34375 C15.41566389 3.61194961 15.21715415 5.32176545 15 8 C13.02 8.99 13.02 8.99 11 10 C11.66 10.94875 12.32 11.8975 13 12.875 C15 16 15 16 15 18 C14.01 18 13.02 18 12 18 C11.401875 17.030625 10.80375 16.06125 10.1875 15.0625 C8.27963699 11.70660152 8.27963699 11.70660152 4.75 11.125 C3.8425 11.08375 2.935 11.0425 2 11 C2 13.31 2 15.62 2 18 C1.34 18 0.68 18 0 18 C0 12.06 0 6.12 0 0 Z " fill="#DDDDDD" transform="translate(150,200)"/>
<path d="M0 0 C11.46294938 -0.36977256 11.46294938 -0.36977256 13.90625 1.3125 C15 3 15 3 14.6875 6.1875 C14.460625 7.115625 14.23375 8.04375 14 9 C13.01 9.33 12.02 9.66 11 10 C12.32 12.64 13.64 15.28 15 18 C13.68 17.67 12.36 17.34 11 17 C10.319375 15.7625 10.319375 15.7625 9.625 14.5 C8.18277122 11.66308297 8.18277122 11.66308297 4.8125 11.1875 C3.884375 11.125625 2.95625 11.06375 2 11 C2 13.31 2 15.62 2 18 C1.34 18 0.68 18 0 18 C0 12.06 0 6.12 0 0 Z " fill="#F0F0F0" transform="translate(77,200)"/>
<path d="M0 0 C1.32 0 2.64 0 4 0 C6.64 6.6 9.28 13.2 12 20 C11.01 20.33 10.02 20.66 9 21 C7 18 7 18 7 15 C3.7 15 0.4 15 -3 15 C-3.66 16.98 -4.32 18.96 -5 21 C-5.99 21 -6.98 21 -8 21 C-7.301897 16.49723568 -5.71324524 12.44421829 -4 8.25 C-3.59007812 7.22326172 -3.59007812 7.22326172 -3.171875 6.17578125 C-1.13600498 1.13600498 -1.13600498 1.13600498 0 0 Z " fill="#E8E8E8" transform="translate(44,171)"/>
<path d="M0 0 C0 0.33 0 0.66 0 1 C2.97 1.33 5.94 1.66 9 2 C9 2.33 9 2.66 9 3 C8.09121094 3.02578125 7.18242188 3.0515625 6.24609375 3.078125 C-14.21752951 4.00161159 -30.97405115 10.24255702 -45.51171875 24.6796875 C-47.66395572 26.68664003 -49.30562752 27.90205899 -52 29 C-48.29768151 18.47380038 -37.53014197 11.97531198 -28 7 C-18.89991098 2.85806416 -10.08920281 -0.19782751 0 0 Z " fill="#9E8559" transform="translate(107,9)"/>
<path d="M0 0 C4.95 0 9.9 0 15 0 C15 1.32 15 2.64 15 4 C11.37 4 7.74 4 4 4 C4 5.98 4 7.96 4 10 C7.63 10 11.26 10 15 10 C15 11.32 15 12.64 15 14 C11.37 14 7.74 14 4 14 C4 16.31 4 18.62 4 21 C2.68 21 1.36 21 0 21 C0 14.07 0 7.14 0 0 Z " fill="#F3F2F3" transform="translate(165,171)"/>
<path d="M0 0 C0.33 0.99 0.66 1.98 1 3 C34.99 3.33 68.98 3.66 104 4 C104 4.33 104 4.66 104 5 C69.35 5 34.7 5 -1 5 C-1 10.28 -1 15.56 -1 21 C-1.33 21 -1.66 21 -2 21 C-2.33 18.03 -2.66 15.06 -3 12 C-3.78375 12.185625 -4.5675 12.37125 -5.375 12.5625 C-8 13 -8 13 -10 12 C-8.70984254 10.37380152 -7.41782303 8.74908017 -6.125 7.125 C-5.04605469 5.76761719 -5.04605469 5.76761719 -3.9453125 4.3828125 C-2 2 -2 2 0 0 Z M-7 10 C-6 12 -6 12 -6 12 Z " fill="#232322" transform="translate(61,33)"/>
<path d="M0 0 C5.28 0 10.56 0 16 0 C16 0.99 16 1.98 16 3 C11.71 3 7.42 3 3 3 C3 4.98 3 6.96 3 9 C6.96 9 10.92 9 15 9 C15 9.99 15 10.98 15 12 C11.04 12 7.08 12 3 12 C3 14.31 3 16.62 3 19 C7.29 19 11.58 19 16 19 C16 19.66 16 20.32 16 21 C10.72 21 5.44 21 0 21 C0 14.07 0 7.14 0 0 Z " fill="#E0E0E0" transform="translate(79,171)"/>
<path d="M0 0 C0 0.66 0 1.32 0 2 C1.32 2 2.64 2 4 2 C4 2.99 4 3.98 4 5 C3.01 5.495 3.01 5.495 2 6 C1.67 18.21 1.34 30.42 1 43 C1.66 43.33 2.32 43.66 3 44 C2.01 44 1.02 44 0 44 C0 30.8 0 17.6 0 4 C-1.32 4 -2.64 4 -4 4 C-4 17.2 -4 30.4 -4 44 C-4.99 44 -5.98 44 -7 44 C-7.07401579 38.05520371 -7.12853813 32.11067407 -7.16479492 26.16552734 C-7.17990526 24.14204234 -7.20039437 22.1185902 -7.22631836 20.09521484 C-7.26260328 17.19099835 -7.27970355 14.28721385 -7.29296875 11.3828125 C-7.30845261 10.47443634 -7.32393646 9.56606018 -7.33988953 8.63015747 C-7.34011612 7.78943695 -7.34034271 6.94871643 -7.34057617 6.08251953 C-7.34723801 5.34083527 -7.35389984 4.599151 -7.36076355 3.83499146 C-7.24171158 3.22944427 -7.12265961 2.62389709 -7 2 C-4 0 -4 0 0 0 Z " fill="#3E110A" transform="translate(90,59)"/>
<path d="M0 0 C0.66 0.33 1.32 0.66 2 1 C2.70491267 3.32206525 3.37212429 5.65593068 4 8 C4.33 8.33 4.66 8.66 5 9 C5.07205511 10.68608966 5.08386068 12.37500659 5.0625 14.0625 C5.05347656 14.98160156 5.04445312 15.90070313 5.03515625 16.84765625 C5.02355469 17.55792969 5.01195312 18.26820312 5 19 C4.34 19 3.68 19 3 19 C3.66 20.65 4.32 22.3 5 24 C4.01 24.33 3.02 24.66 2 25 C1.67 25.99 1.34 26.98 1 28 C-0.984375 27.10546875 -0.984375 27.10546875 -3 25 C-3.52614217 21.76609364 -3.37422316 18.57813563 -3.25 15.3125 C-3.23195312 14.41982422 -3.21390625 13.52714844 -3.1953125 12.60742188 C-3.14817759 10.40386496 -3.08240657 8.20247399 -3 6 C-2.01 6 -1.02 6 0 6 C0 4.02 0 2.04 0 0 Z " fill="#26BE78" transform="translate(136,65)"/>
<path d="M0 0 C3.65766864 0.57709883 5.28050214 1.98314512 7.875 4.5625 C19.13910082 14.83108291 32.06677581 19.68355107 47 22 C44.61151506 24.29016958 43.50951157 25.00836408 40.14453125 24.953125 C24.49601318 21.65097582 10.6608424 14.01655646 0 2 C0 1.34 0 0.68 0 0 Z " fill="#B49E6E" transform="translate(57,133)"/>
<path d="M0 0 C0.99 0 1.98 0 3 0 C3.33 2.97 3.66 5.94 4 9 C4.61488281 8.3503125 5.22976562 7.700625 5.86328125 7.03125 C7.07564453 5.77828125 7.07564453 5.77828125 8.3125 4.5 C9.11300781 3.6646875 9.91351563 2.829375 10.73828125 1.96875 C13 0 13 0 16 0 C14.33248852 3.94139078 11.77289351 6.7892812 9 10 C9.5775 10.62648437 10.155 11.25296875 10.75 11.8984375 C11.4925 12.71570313 12.235 13.53296875 13 14.375 C14.11375 15.59316406 14.11375 15.59316406 15.25 16.8359375 C17 19 17 19 17 21 C13.40044503 20.44801641 12.11009074 19.30531978 9.9375 16.4375 C8.53807132 14.50825272 8.53807132 14.50825272 7 13 C6.01 13 5.02 13 4 13 C3.67 15.64 3.34 18.28 3 21 C2.01 21 1.02 21 0 21 C0 14.07 0 7.14 0 0 Z " fill="#DFDFDF" transform="translate(58,171)"/>
<path d="M0 0 C3.5625 0.3125 3.5625 0.3125 5.29296875 1.546875 C6.96426606 3.87126387 6.79818799 5.06810754 6.4375 7.875 C6.35242188 8.66003906 6.26734375 9.44507813 6.1796875 10.25390625 C5.5625 12.3125 5.5625 12.3125 2.5625 14.3125 C-2.88194444 13.86805556 -2.88194444 13.86805556 -5.4375 11.3125 C-5.703125 9.21875 -5.703125 9.21875 -5.6875 6.8125 C-5.69265625 6.0184375 -5.6978125 5.224375 -5.703125 4.40625 C-5.21500819 0.55874106 -3.66379154 0.33307196 0 0 Z " fill="#0A0A0A" transform="translate(150.4375,174.6875)"/>
<path d="M0 0 C5.94 0 11.88 0 18 0 C18 1.32 18 2.64 18 4 C15.69 4 13.38 4 11 4 C11 9.61 11 15.22 11 21 C9.68 21 8.36 21 7 21 C7 15.39 7 9.78 7 4 C4.69 4 2.38 4 0 4 C0 2.68 0 1.36 0 0 Z " fill="#F7F7F7" transform="translate(190,171)"/>
<path d="M0 0 C2.34303118 2.19318616 3.88460638 3.92879432 4.23632812 7.19384766 C4.16910967 9.74967677 3.98916908 12.26705767 3.75 14.8125 C3.68425781 15.69615234 3.61851563 16.57980469 3.55078125 17.49023438 C3.3864541 19.66170028 3.19581403 21.83114674 3 24 C1.125 24.625 1.125 24.625 -1 25 C-4.45868195 21.54131805 -3.89997817 16.50306742 -4.11328125 11.80078125 C-3.96300314 6.75869167 -2.78429573 4.1342573 0 0 Z " fill="#F04C33" transform="translate(88,100)"/>
<path d="M0 0 C1.796875 0.03515625 1.796875 0.03515625 4 1 C5.29029101 3.50659744 6.29819657 5.80790021 7.25 8.4375 C7.518125 9.13166016 7.78625 9.82582031 8.0625 10.54101562 C10 15.64672353 10 15.64672353 10 18 C9.01 18 8.02 18 7 18 C6.67 16.35 6.34 14.7 6 13 C3.03 13 0.06 13 -3 13 C-3.33 14.65 -3.66 16.3 -4 18 C-4.99 18 -5.98 18 -7 18 C-5.26375242 11.5811453 -3.14819255 5.86215164 0 0 Z " fill="#DADADA" transform="translate(101,200)"/>
<path d="M0 0 C0.33 0 0.66 0 1 0 C1.02886984 3.97915159 1.04675406 7.95827653 1.0625 11.9375 C1.07087891 13.07380859 1.07925781 14.21011719 1.08789062 15.38085938 C1.09272461 17.00024414 1.09272461 17.00024414 1.09765625 18.65234375 C1.10551147 20.15269165 1.10551147 20.15269165 1.11352539 21.68334961 C1 24 1 24 0 25 C-0.16053815 26.87321948 -0.16053815 26.87321948 -0.125 29 C-0.12757812 29.721875 -0.13015625 30.44375 -0.1328125 31.1875 C-0.19695276 33.02089415 -0.19695276 33.02089415 1 34 C1.1328125 35.8125 1.1328125 35.8125 1.125 38 C1.12886719 39.0828125 1.12886719 39.0828125 1.1328125 40.1875 C1 42 1 42 0 43 C-2.32817964 43.36760731 -4.6618385 43.70241581 -7 44 C-7 45.32 -7 46.64 -7 48 C-10.77545388 46.90931332 -13.47043472 46.0916909 -16 43 C-13.36 43 -10.72 43 -8 43 C-8 42.34 -8 41.68 -8 41 C-6.35 41 -4.7 41 -3 41 C-2.505 38.03 -2.505 38.03 -2 35 C-3.98 35 -5.96 35 -8 35 C-8 31.37 -8 27.74 -8 24 C-7.67 24 -7.34 24 -7 24 C-7 26.97 -7 29.94 -7 33 C-5.68 33 -4.36 33 -3 33 C-3 30.03 -3 27.06 -3 24 C-2.01 23.67 -1.02 23.34 0 23 C0 15.41 0 7.82 0 0 Z " fill="#04010B" transform="translate(93,103)"/>
<path d="M0 0 C7.75 0.75 7.75 0.75 10 3 C10.55239643 9.96019496 10.55239643 9.96019496 8.9375 13 C7 14 7 14 0 14 C0 9.38 0 4.76 0 0 Z " fill="#060505" transform="translate(116,202)"/>
<path d="M0 0 C3.63 0 7.26 0 11 0 C10.67 0.66 10.34 1.32 10 2 C8.02 2 6.04 2 4 2 C4 4.31 4 6.62 4 9 C7.3 8.67 10.6 8.34 14 8 C12.25 12.875 12.25 12.875 10 14 C10 13.34 10 12.68 10 12 C8.02 12 6.04 12 4 12 C4 14.64 4 17.28 4 20 C2.68 20 1.36 20 0 20 C0 13.4 0 6.8 0 0 Z " fill="#FAFAFA" transform="translate(119,172)"/>
<path d="M0 0 C4.62 0 9.24 0 14 0 C14 0.66 14 1.32 14 2 C10.37 2 6.74 2 3 2 C3 3.98 3 5.96 3 8 C6.3 8 9.6 8 13 8 C13 8.66 13 9.32 13 10 C9.7 10 6.4 10 3 10 C3 11.98 3 13.96 3 16 C6.96 16 10.92 16 15 16 C15 16.66 15 17.32 15 18 C10.05 18 5.1 18 0 18 C0 12.06 0 6.12 0 0 Z " fill="#F0F0F0" transform="translate(132,200)"/>
<path d="M0 0 C0.99 0 1.98 0 3 0 C3 1.98 3 3.96 3 6 C4.32 6 5.64 6 7 6 C7 13.92 7 21.84 7 30 C6.01 30 5.02 30 4 30 C4 43.86 4 57.72 4 72 C3.67 72 3.34 72 3 72 C2.97464582 65.66455947 2.95713134 59.32913203 2.94506836 52.99365234 C2.94003948 50.83837393 2.93321558 48.68309893 2.92456055 46.52783203 C2.91243179 43.43000446 2.90675722 40.33222199 2.90234375 37.234375 C2.89718246 36.27070007 2.89202118 35.30702515 2.88670349 34.31414795 C2.88662796 33.41351624 2.88655243 32.51288452 2.88647461 31.58496094 C2.884254 30.79442322 2.88203339 30.0038855 2.87974548 29.18939209 C3 27 3 27 3.56959534 24.90093994 C4.21911044 22.79413782 4.21911044 22.79413782 3 20 C3.66 20 4.32 20 5 20 C4.88557539 18.39504433 4.75805306 16.79101881 4.625 15.1875 C4.55539063 14.29417969 4.48578125 13.40085937 4.4140625 12.48046875 C4.13354964 9.75601501 4.13354964 9.75601501 2 7 C1.29187186 4.67891331 0.61975848 2.34622853 0 0 Z " fill="#26845A" transform="translate(136,64)"/>
<path d="M0 0 C3.3 0 6.6 0 10 0 C10 0.66 10 1.32 10 2 C8.02 2 6.04 2 4 2 C4 4.64 4 7.28 4 10 C5.670625 9.9690625 5.670625 9.9690625 7.375 9.9375 C11 10 11 10 13 11 C13 11.66 13 12.32 13 13 C10.03 13 7.06 13 4 13 C4 15.31 4 17.62 4 20 C2.68 20 1.36 20 0 20 C0 13.4 0 6.8 0 0 Z " fill="#F3F3F3" transform="translate(99,172)"/>
<path d="M0 0 C5.94 0 11.88 0 18 0 C18 0.99 18 1.98 18 3 C15.69 3 13.38 3 11 3 C11 8.94 11 14.88 11 21 C10.01 21 9.02 21 8 21 C8 15.06 8 9.12 8 3 C5.36 3 2.72 3 0 3 C0 2.01 0 1.02 0 0 Z " fill="#DCDCDC" transform="translate(17,171)"/>
<path d="M0 0 C3.42938916 1.71469458 3.85274106 5.44586108 5.046875 8.92578125 C8.35134856 19.58406276 8.21875096 29.95307667 8 41 C7.67 41 7.34 41 7 41 C6.95101562 40.08476563 6.90203125 39.16953125 6.8515625 38.2265625 C6.73941406 36.44378906 6.73941406 36.44378906 6.625 34.625 C6.55539063 33.44164062 6.48578125 32.25828125 6.4140625 31.0390625 C6.29782654 27.89437681 6.29782654 27.89437681 4 26 C3.44683848 23.68309312 2.9809105 21.34498993 2.5625 19 C1.42394126 12.85798907 -0.03032067 6.93697669 -2 1 C-1.34 0.67 -0.68 0.34 0 0 Z " fill="#C4B46E" transform="translate(180,52)"/>
<path d="M0 0 C1.65 0 3.3 0 5 0 C5 6.93 5 13.86 5 21 C3.35 21 1.7 21 0 21 C0 14.07 0 7.14 0 0 Z " fill="#E8E8E8" transform="translate(183,171)"/>
<path d="M0 0 C6.27554803 5.53724826 10.86357724 12.8815935 13 21 C12.01 20.67 11.02 20.34 10 20 C9.67 19.34 9.34 18.68 9 18 C8.01 18 7.02 18 6 18 C5.855625 17.38125 5.71125 16.7625 5.5625 16.125 C5.06847775 13.96741678 5.06847775 13.96741678 4 12 C1.97536745 11.34786708 1.97536745 11.34786708 0 11 C0 13.31 0 15.62 0 18 C-0.33 18 -0.66 18 -1 18 C-1.02684312 15.18743719 -1.04676188 12.37512759 -1.0625 9.5625 C-1.07087891 8.76005859 -1.07925781 7.95761719 -1.08789062 7.13085938 C-1.0965143 5.08704779 -1.0522815 3.04316098 -1 1 C-0.67 0.67 -0.34 0.34 0 0 Z " fill="#120F0D" transform="translate(167,37)"/>
<path d="M0 0 C0.33 0.99 0.66 1.98 1 3 C-5.77151867 4.74659438 -11.95798829 5.30885744 -18.9375 5.25 C-19.88173828 5.25773438 -20.82597656 5.26546875 -21.79882812 5.2734375 C-22.69923828 5.27085937 -23.59964844 5.26828125 -24.52734375 5.265625 C-25.33937256 5.26336914 -26.15140137 5.26111328 -26.98803711 5.25878906 C-29 5 -29 5 -31 3 C-29.4818882 1.4818882 -28.07344537 1.80394128 -25.95703125 1.71875 C-25.13009766 1.68136719 -24.30316406 1.64398438 -23.45117188 1.60546875 C-22.58041016 1.57066406 -21.70964844 1.53585938 -20.8125 1.5 C-13.86464728 1.21598482 -6.91148593 -0.203279 0 0 Z " fill="#C6B485" transform="translate(131,154)"/>
<path d="M0 0 C3.78198965 0.25576045 5.56708062 0.59551539 8.37890625 3.22265625 C20 18.33631485 20 18.33631485 20 24 C16.18902234 22.72967411 15.85992125 21.48097549 13.875 18.0625 C10.67585197 12.82628762 7.02514148 8.45036174 2.8203125 3.99609375 C1 2 1 2 0 0 Z " fill="#CDBF8E" transform="translate(160,29)"/>
<path d="M0 0 C1.92578125 0.59375 1.92578125 0.59375 4 2 C4.79296875 4.96875 4.79296875 4.96875 5.1875 8.5 C5.58353191 12.90053763 5.58353191 12.90053763 7 17 C6.01 17.33 5.02 17.66 4 18 C3.67 18.66 3.34 19.32 3 20 C0.69 20 -1.62 20 -4 20 C-3.67 19.34 -3.34 18.68 -3 18 C-1.68 18 -0.36 18 1 18 C0.34 17.05125 -0.32 16.1025 -1 15.125 C-3 12 -3 12 -3 10 C-2.01 9.34 -1.02 8.68 0 8 C0.36297936 6.02252878 0.36297936 6.02252878 0.1875 3.875 C0.125625 2.59625 0.06375 1.3175 0 0 Z " fill="#0A0A0A" transform="translate(136,173)"/>
<path d="M0 0 C0.33 0 0.66 0 1 0 C1.45368983 11.82114064 1.10677272 21.76137645 -3 33 C-3.33 32.34 -3.66 31.68 -4 31 C-4.66 31 -5.32 31 -6 31 C-5.72285156 29.83984375 -5.44570312 28.6796875 -5.16015625 27.484375 C-3.25919022 19.34572786 -1.57810623 11.46969823 -1.17578125 3.08984375 C-1 1 -1 1 0 0 Z " fill="#D6C179" transform="translate(186,79)"/>
<path d="M0 0 C0.33 0 0.66 0 1 0 C1 13.86 1 27.72 1 42 C0.01 42 -0.98 42 -2 42 C-1.88022766 37.78640153 -1.75591165 33.57296683 -1.62768555 29.35961914 C-1.5848206 27.93126918 -1.54312034 26.50288371 -1.50268555 25.07446289 C-1.26438617 16.68691332 -0.90414029 8.34804381 0 0 Z " fill="#39B680" transform="translate(138,94)"/>
<path d="M0 0 C0 0.33 0 0.66 0 1 C2.97 1.33 5.94 1.66 9 2 C9 2.33 9 2.66 9 3 C8.09121094 3.02578125 7.18242188 3.0515625 6.24609375 3.078125 C-2.25668962 3.46184035 -9.79221891 4.7411535 -17.953125 7.16015625 C-21 8 -21 8 -24 8 C-23.67 7.01 -23.34 6.02 -23 5 C-20.671875 3.8671875 -20.671875 3.8671875 -17.75 2.875 C-16.79609375 2.54242188 -15.8421875 2.20984375 -14.859375 1.8671875 C-9.768856 0.32334158 -5.32945349 -0.10449909 0 0 Z " fill="#AF9C68" transform="translate(107,9)"/>
<path d="M0 0 C4.95 0 9.9 0 15 0 C15 0.66 15 1.32 15 2 C13.02 2 11.04 2 9 2 C9 7.28 9 12.56 9 18 C8.01 18 7.02 18 6 18 C6 12.72 6 7.44 6 2 C4.02 2 2.04 2 0 2 C0 1.34 0 0.68 0 0 Z " fill="#E2E2E2" transform="translate(59,200)"/>
<path d="M0 0 C0.70640625 0.00902344 1.4128125 0.01804687 2.140625 0.02734375 C2.85734375 0.03121094 3.5740625 0.03507813 4.3125 0.0390625 C9.91706343 0.12978385 15.21648723 0.81699896 20.640625 2.27734375 C20.970625 3.59734375 21.300625 4.91734375 21.640625 6.27734375 C20.46886719 6.07238281 19.29710937 5.86742187 18.08984375 5.65625 C9.62323584 4.19708051 1.22586342 2.82574004 -7.359375 2.27734375 C-4.87473249 -0.20729876 -3.39506436 0.01973875 0 0 Z " fill="#C7BB94" transform="translate(112.359375,8.72265625)"/>
<path d="M0 0 C1.32 0.66 2.64 1.32 4 2 C4.99898916 6.76440982 5.18762827 9.24948692 4 14 C1.36 14.66 -1.28 15.32 -4 16 C-2.68 10.72 -1.36 5.44 0 0 Z " fill="#0A0608" transform="translate(186,98)"/>
<path d="M0 0 C9.1796875 -0.1953125 9.1796875 -0.1953125 12 0 C12.66 0.66 13.32 1.32 14 2 C13.625 4.125 13.625 4.125 13 6 C12.34 5.01 11.68 4.02 11 3 C8.80545319 2.42006301 8.80545319 2.42006301 6.375 2.3125 C5.55773437 2.24675781 4.74046875 2.18101562 3.8984375 2.11328125 C3.27195313 2.07589844 2.64546875 2.03851563 2 2 C2 4.31 2 6.62 2 9 C3.98 9 5.96 9 8 9 C8 9.33 8 9.66 8 10 C6.35 10.33 4.7 10.66 3 11 C2.67 13.31 2.34 15.62 2 18 C1.34 18 0.68 18 0 18 C0 12.06 0 6.12 0 0 Z " fill="#EFEFEF" transform="translate(150,200)"/>
<path d="M0 0 C0.99 0.33 1.98 0.66 3 1 C2.34 1 1.68 1 1 1 C0.87625 1.721875 0.7525 2.44375 0.625 3.1875 C0.0095069 5.95721894 -0.88444374 8.3970354 -2 11 C-0.02 11 1.96 11 4 11 C3.67 11.66 3.34 12.32 3 13 C1.02 13 -0.96 13 -3 13 C-3.66 14.98 -4.32 16.96 -5 19 C-5.99 19 -6.98 19 -8 19 C-7.34362284 15.01011188 -6.12232204 11.53848439 -4.5625 7.8125 C-4.13066406 6.76707031 -3.69882812 5.72164062 -3.25390625 4.64453125 C-2 2 -2 2 0 0 Z " fill="#EDEDED" transform="translate(44,173)"/>
<path d="M0 0 C3.78282423 0.57212014 5.58614168 2.202363 8.3125 4.8125 C12.01780114 8.22947473 15.52173878 10.71322831 20 13 C19.67 13.99 19.34 14.98 19 16 C11.54959762 13.33726816 5.21542778 7.88838621 0 2 C0 1.34 0 0.68 0 0 Z " fill="#A38B60" transform="translate(57,133)"/>
<path d="M0 0 C4.02020008 1.34006669 4.42959516 3.0830023 6.4375 6.75 C8.679943 10.82352062 11.00088262 14.44060795 14 18 C13.01 18.66 12.02 19.32 11 20 C9.72651788 18.27278316 8.45632943 16.54313762 7.1875 14.8125 C6.12595703 13.36810547 6.12595703 13.36810547 5.04296875 11.89453125 C0 4.74952199 0 4.74952199 0 0 Z " fill="#8F7B50" transform="translate(45,114)"/>
<path d="M0 0 C2.97 0 5.94 0 9 0 C9.625 2.375 9.625 2.375 10 5 C8 7 8 7 6.0546875 7.1953125 C4.03645833 7.13020833 2.01822917 7.06510417 0 7 C0 4.69 0 2.38 0 0 Z " fill="#1A1A1A" transform="translate(79,202)"/>
<path d="M0 0 C0.99 0 1.98 0 3 0 C3 3.63 3 7.26 3 11 C3.66 11.33 4.32 11.66 5 12 C4.67 12.33 4.34 12.66 4 13 C3.76924918 14.34747084 3.58846937 15.70377565 3.4375 17.0625 C3.293125 18.361875 3.14875 19.66125 3 21 C2.01 21 1.02 21 0 21 C0 14.07 0 7.14 0 0 Z " fill="#E2E2E2" transform="translate(58,171)"/>
<path d="M0 0 C0.33 0 0.66 0 1 0 C1.02886984 3.97915159 1.04675406 7.95827653 1.0625 11.9375 C1.07087891 13.07380859 1.07925781 14.21011719 1.08789062 15.38085938 C1.09111328 16.46044922 1.09433594 17.54003906 1.09765625 18.65234375 C1.10289307 19.65257568 1.10812988 20.65280762 1.11352539 21.68334961 C1 24 1 24 0 25 C-0.23192865 26.51469448 -0.41215238 28.03754562 -0.5625 29.5625 C-0.68818359 30.80193359 -0.68818359 30.80193359 -0.81640625 32.06640625 C-0.87699219 32.70449219 -0.93757813 33.34257812 -1 34 C-4.465 34.495 -4.465 34.495 -8 35 C-8 31.37 -8 27.74 -8 24 C-7.67 24 -7.34 24 -7 24 C-7 26.97 -7 29.94 -7 33 C-5.68 33 -4.36 33 -3 33 C-3 30.03 -3 27.06 -3 24 C-2.01 23.67 -1.02 23.34 0 23 C0 15.41 0 7.82 0 0 Z " fill="#52180E" transform="translate(93,103)"/>
<path d="M0 0 C-1.73248117 7.63866698 -3.86864309 14.81536384 -7 22 C-7.33 22 -7.66 22 -8 22 C-8 18.7 -8 15.4 -8 12 C-7.67 12 -7.34 12 -7 12 C-6.9175 10.7625 -6.835 9.525 -6.75 8.25 C-6.36472925 5.10083039 -6.07691917 4.09925054 -4.0625 1.5 C-2 0 -2 0 0 0 Z " fill="#170B06" transform="translate(184,96)"/>
<path d="M0 0 C0.33 0.99 0.66 1.98 1 3 C0.34 3 -0.32 3 -1 3 C-1 8.94 -1 14.88 -1 21 C-1.33 21 -1.66 21 -2 21 C-2.33 18.03 -2.66 15.06 -3 12 C-3.78375 12.185625 -4.5675 12.37125 -5.375 12.5625 C-8 13 -8 13 -10 12 C-8.70984254 10.37380152 -7.41782303 8.74908017 -6.125 7.125 C-5.04605469 5.76761719 -5.04605469 5.76761719 -3.9453125 4.3828125 C-2 2 -2 2 0 0 Z M-7 10 C-6 12 -6 12 -6 12 Z " fill="#201D18" transform="translate(61,33)"/>
<path d="M0 0 C2.93785297 0.32642811 4.81876259 0.8824406 7.3125 2.5 C9.8126123 6.20387008 9.33395379 9.65860068 9 14 C7.68 14 6.36 14 5 14 C4.87625 12.88625 4.7525 11.7725 4.625 10.625 C4.3534187 6.96896323 4.3534187 6.96896323 2 5 C2 3.68 2 2.36 2 1 C1.34 0.67 0.68 0.34 0 0 Z " fill="#E9E9E9" transform="translate(152,171)"/>
<path d="M0 0 C1.51400391 0.01740234 1.51400391 0.01740234 3.05859375 0.03515625 C4.07050781 0.04417969 5.08242187 0.05320313 6.125 0.0625 C7.29869141 0.07990234 7.29869141 0.07990234 8.49609375 0.09765625 C11.49609375 5.84765625 11.49609375 5.84765625 11.49609375 8.09765625 C10.50609375 8.09765625 9.51609375 8.09765625 8.49609375 8.09765625 C8.16609375 6.44765625 7.83609375 4.79765625 7.49609375 3.09765625 C4.52609375 3.09765625 1.55609375 3.09765625 -1.50390625 3.09765625 C-1.83390625 4.74765625 -2.16390625 6.39765625 -2.50390625 8.09765625 C-3.49390625 8.09765625 -4.48390625 8.09765625 -5.50390625 8.09765625 C-3.33088446 0.12990969 -3.33088446 0.12990969 0 0 Z " fill="#EBEBEB" transform="translate(99.50390625,209.90234375)"/>
<path d="M0 0 C2.97 0 5.94 0 9 0 C9.33 1.32 9.66 2.64 10 4 C8 6 8 6 6.0546875 6.1953125 C4.03645833 6.13020833 2.01822917 6.06510417 0 6 C0 4.02 0 2.04 0 0 Z " fill="#201F1F" transform="translate(123,175)"/>
<path d="M0 0 C6.15234375 -0.09765625 6.15234375 -0.09765625 8 0 C9 1 9 1 9.0625 3.5625 C9.041875 4.366875 9.02125 5.17125 9 6 C6.03 6 3.06 6 0 6 C0 4.02 0 2.04 0 0 Z " fill="#0A0A0A" transform="translate(153,202)"/>
<path d="M0 0 C0.66 0 1.32 0 2 0 C1.67 7.92 1.34 15.84 1 24 C0.34 23.67 -0.32 23.34 -1 23 C-1.02894547 19.54168414 -1.04678 16.08339928 -1.0625 12.625 C-1.07087891 11.64015625 -1.07925781 10.6553125 -1.08789062 9.640625 C-1.09111328 8.69960937 -1.09433594 7.75859375 -1.09765625 6.7890625 C-1.10289307 5.91975098 -1.10812988 5.05043945 -1.11352539 4.15478516 C-1 2 -1 2 0 0 Z " fill="#96783D" transform="translate(39,68)"/>
<path d="M0 0 C0.33 0 0.66 0 1 0 C1.33 3.3 1.66 6.6 2 10 C2.33 10 2.66 10 3 10 C3 11.98 3 13.96 3 16 C6.96 16 10.92 16 15 16 C15 16.66 15 17.32 15 18 C10.05 18 5.1 18 0 18 C0 12.06 0 6.12 0 0 Z " fill="#DADADA" transform="translate(132,200)"/>
<path d="M0 0 C0.66 0 1.32 0 2 0 C3.06309567 5.17317421 3.11693938 10.12369336 3.0625 15.375 C3.05798828 16.20644531 3.05347656 17.03789063 3.04882812 17.89453125 C3.03713164 19.92971897 3.01919935 21.96486923 3 24 C2.67 24 2.34 24 2 24 C1.95101562 23.08476563 1.90203125 22.16953125 1.8515625 21.2265625 C1.77679688 20.03804687 1.70203125 18.84953125 1.625 17.625 C1.55539063 16.44164063 1.48578125 15.25828125 1.4140625 14.0390625 C1.29782654 10.89437681 1.29782654 10.89437681 -1 9 C-1.32752234 6.28545044 -1.1308425 3.74769241 -1 1 C-0.67 0.67 -0.34 0.34 0 0 Z " fill="#B7A564" transform="translate(185,69)"/>
<path d="M0 0 C6.04433574 1.35997554 9.63494136 4.85651794 14 9 C13.67 9.66 13.34 10.32 13 11 C8.06945173 8.28316728 3.53715638 5.33342102 -1 2 C-0.67 1.34 -0.34 0.68 0 0 Z " fill="#D8CFB0" transform="translate(149,19)"/>
<path d="M0 0 C2.31 0 4.62 0 7 0 C7.38218767 1.65614657 7.71395102 3.32457024 8 5 C7 6 7 6 3.4375 6.0625 C2.303125 6.041875 1.16875 6.02125 0 6 C0 4.02 0 2.04 0 0 Z " fill="#040404" transform="translate(103,175)"/>
<path d="M0 0 C4.55384615 -0.36923077 4.55384615 -0.36923077 6.8125 1.5 C7.204375 1.995 7.59625 2.49 8 3 C7.34 4.65 6.68 6.3 6 8 C6.99 8.33 7.98 8.66 9 9 C6.36 9 3.72 9 1 9 C1.66 8.34 2.32 7.68 3 7 C2.505 6.21625 2.01 5.4325 1.5 4.625 C0 2 0 2 0 0 Z " fill="#1A1A1A" transform="translate(88,210)"/>
<path d="M0 0 C0.33 0.99 0.66 1.98 1 3 C-5.93 6.465 -5.93 6.465 -13 10 C-12 6 -12 6 -9.78515625 4.296875 C-8.88667969 3.78640625 -7.98820312 3.2759375 -7.0625 2.75 C-5.71865234 1.96882813 -5.71865234 1.96882813 -4.34765625 1.171875 C-2 0 -2 0 0 0 Z " fill="#A79161" transform="translate(83,15)"/>
<path d="M0 0 C5.33333333 5.33333333 10.66666667 10.66666667 16 16 C12.66666667 15.33333333 9.33333333 14.66666667 6 14 C6.1546875 12.9171875 6.1546875 12.9171875 6.3125 11.8125 C5.87599588 7.88396296 3.80136696 6.66471491 1 4 C0.1875 1.6875 0.1875 1.6875 0 0 Z " fill="#1A0B04" transform="translate(51,128)"/>
<path d="M0 0 C4 0 4 0 7 1 C0.84965831 8.48291572 0.84965831 8.48291572 -3 11 C-2.69078116 9.54096742 -2.37751201 8.08279278 -2.0625 6.625 C-1.88847656 5.81289062 -1.71445313 5.00078125 -1.53515625 4.1640625 C-1 2 -1 2 0 0 Z " fill="#160E08" transform="translate(161,129)"/>
<path d="M0 0 C0.625 1.8125 0.625 1.8125 1 4 C0.01 5.485 0.01 5.485 -1 7 C-1.66 7 -2.32 7 -3 7 C-1.68 9.64 -0.36 12.28 1 15 C-0.32 14.67 -1.64 14.34 -3 14 C-4.75 10.9375 -4.75 10.9375 -6 8 C-5.34 8 -4.68 8 -4 8 C-3.855625 7.401875 -3.71125 6.80375 -3.5625 6.1875 C-3.1127561 4.43849596 -2.57107659 2.71322977 -2 1 C-1.34 0.67 -0.68 0.34 0 0 Z " fill="#D8D8D8" transform="translate(91,203)"/>
<path d="M0 0 C3.31012244 3.31012244 3.50351065 4.53159589 4 9 C1.69 9 -0.62 9 -3 9 C-2.01 6.03 -1.02 3.06 0 0 Z " fill="#1F1E1E" transform="translate(45,175)"/>
<path d="M0 0 C5.94 0 11.88 0 18 0 C18 0.33 18 0.66 18 1 C14.37 1 10.74 1 7 1 C7 1.99 7 2.98 7 4 C4.69 4 2.38 4 0 4 C0 2.68 0 1.36 0 0 Z " fill="#E0E0E0" transform="translate(190,171)"/>
<path d="M0 0 C2.08304538 -0.05418326 4.16649768 -0.09287551 6.25 -0.125 C7.99023438 -0.15980469 7.99023438 -0.15980469 9.765625 -0.1953125 C12.82786046 -0.0103949 14.44202751 0.39176977 17 2 C16.01 2.495 16.01 2.495 15 3 C15 3.66 15 4.32 15 5 C11.37 4.67 7.74 4.34 4 4 C4 3.67 4 3.34 4 3 C5.98 2.67 7.96 2.34 10 2 C6.7 1.67 3.4 1.34 0 1 C0 0.67 0 0.34 0 0 Z " fill="#DFDFDE" transform="translate(119,171)"/>
<path d="M0 0 C2.875 0.3125 2.875 0.3125 4.875 1.3125 C4.875 2.3025 4.875 3.2925 4.875 4.3125 C2.235 4.6425 -0.405 4.9725 -3.125 5.3125 C-3.125 4.6525 -3.125 3.9925 -3.125 3.3125 C-4.445 3.6425 -5.765 3.9725 -7.125 4.3125 C-4.78015899 1.42654183 -3.77942612 0.37794261 0 0 Z " fill="#E0E0E0" transform="translate(149.125,170.6875)"/>
<path d="M0 0 C0 0.66 0 1.32 0 2 C0.66 2.33 1.32 2.66 2 3 C-6.42857143 6.42857143 -6.42857143 6.42857143 -11 6 C-11 5.01 -11 4.02 -11 3 C-9.54293274 2.49632243 -8.08429904 1.99717444 -6.625 1.5 C-5.81289062 1.2215625 -5.00078125 0.943125 -4.1640625 0.65625 C-2 0 -2 0 0 0 Z " fill="#CBC2A3" transform="translate(142,150)"/>
<path d="M0 0 C2.89104992 1.29598789 5.03018393 2.49296136 7 5 C8.1875 8.1875 8.1875 8.1875 9 11 C8.01 10.67 7.02 10.34 6 10 C5.67 9.34 5.34 8.68 5 8 C4.01 8 3.02 8 2 8 C1.33333333 5.33333333 0.66666667 2.66666667 0 0 Z " fill="#0E0906" transform="translate(171,47)"/>
<path d="M0 0 C0 0.66 0 1.32 0 2 C-0.99 2.33 -1.98 2.66 -3 3 C-2.34 3.66 -1.68 4.32 -1 5 C-5.95 6.485 -5.95 6.485 -11 8 C-11 6.35 -11 4.7 -11 3 C-10.443125 2.87625 -9.88625 2.7525 -9.3125 2.625 C-6.91444719 2.02665015 -6.91444719 2.02665015 -4.375 0.9375 C-2 0 -2 0 0 0 Z " fill="#170C0C" transform="translate(91,8)"/>
<path d="M0 0 C3.63 0 7.26 0 11 0 C11 1.32 11 2.64 11 4 C7.37 4 3.74 4 0 4 C1.32 3.67 2.64 3.34 4 3 C4 2.34 4 1.68 4 1 C2.68 0.67 1.36 0.34 0 0 Z " fill="#D6D6D6" transform="translate(169,181)"/>
<path d="M0 0 C4.72224516 1.53472968 9.35855331 3.23945126 14 5 C12.375 6.125 12.375 6.125 10 7 C6.42442653 6.10610663 3.23940161 4.74429318 0 3 C0 2.01 0 1.02 0 0 Z " fill="#AE9868" transform="translate(76,147)"/>
<path d="M0 0 C0.99 0.33 1.98 0.66 3 1 C2.04663979 2.31611677 1.08714226 3.62778961 0.125 4.9375 C-0.40867188 5.66839844 -0.94234375 6.39929688 -1.4921875 7.15234375 C-3 9 -3 9 -5 10 C-5.66 9.34 -6.32 8.68 -7 8 C-4.69 5.36 -2.38 2.72 0 0 Z " fill="#D1C496" transform="translate(172,125)"/>
<path d="M0 0 C-1.59241408 4.29951803 -4.35540725 6.39671947 -8 9 C-8.99 8.67 -9.98 8.34 -11 8 C-9.73861805 6.65772182 -8.46555441 5.32641323 -7.1875 4 C-6.47980469 3.2575 -5.77210937 2.515 -5.04296875 1.75 C-3 0 -3 0 0 0 Z " fill="#D2D2D2" transform="translate(74,171)"/>
<path d="M0 0 C4.25219775 0.47246642 6.37314725 2.77272377 9 6 C8.63671875 8.16796875 8.63671875 8.16796875 8 10 C6.66070495 8.71451591 5.32871357 7.42141845 4 6.125 C2.88625 5.04605469 2.88625 5.04605469 1.75 3.9453125 C0 2 0 2 0 0 Z " fill="#9C8659" transform="translate(57,133)"/>
<path d="M0 0 C0.33 0.66 0.66 1.32 1 2 C-8.22551253 9.66742597 -8.22551253 9.66742597 -14 11 C-9.85989729 6.45924219 -5.17609824 3.28157862 0 0 Z " fill="#240E07" transform="translate(78,20)"/>
<path d="M0 0 C-0.66 2.64 -1.32 5.28 -2 8 C-3.32 8.33 -4.64 8.66 -6 9 C-6.25 6.75 -6.25 6.75 -6 4 C-2.75675676 0 -2.75675676 0 0 0 Z " fill="#0E070A" transform="translate(184,96)"/>
<path d="M0 0 C1.5 1.3125 1.5 1.3125 3 3 C3 3.99 3 4.98 3 6 C4.43750191 7.68798827 4.43750191 7.68798827 6 9 C5.67 9.99 5.34 10.98 5 12 C2 11 2 11 0.83203125 8.93359375 C0.49558594 8.10988281 0.15914062 7.28617188 -0.1875 6.4375 C-0.53167969 5.61121094 -0.87585938 4.78492188 -1.23046875 3.93359375 C-1.48441406 3.29550781 -1.73835937 2.65742187 -2 2 C-1.34 1.34 -0.68 0.68 0 0 Z " fill="#170B05" transform="translate(178,41)"/>
<path d="M0 0 C1 3 1 3 0.25 4.9375 C-1.05620678 7.09274119 -2.35851423 9.08493327 -4 11 C-4.66 11 -5.32 11 -6 11 C-5.55530671 5.96014269 -3.28656638 3.62365012 0 0 Z " fill="#92784E" transform="translate(55,35)"/>
<path d="M0 0 C0.33 0 0.66 0 1 0 C1 1.98 1 3.96 1 6 C3.97 6 6.94 6 10 6 C10.33 4.68 10.66 3.36 11 2 C11.66 1.67 12.32 1.34 13 1 C13 2.65 13 4.3 13 6 C9.8250906 7.9078584 7.89414789 8.1609041 4.25 7.625 C3.45078125 7.51414063 2.6515625 7.40328125 1.828125 7.2890625 C1.22484375 7.19367188 0.6215625 7.09828125 0 7 C0 4.69 0 2.38 0 0 Z " fill="#A9A9A9" transform="translate(152,202)"/>
<path d="M0 0 C-0.55728913 3.34373475 -1.35173889 6.03312999 -3 9 C-3.66 9 -4.32 9 -5 9 C-5 6.36 -5 3.72 -5 1 C-2 0 -2 0 0 0 Z " fill="#F5F5F5" transform="translate(146,174)"/>
<path d="M0 0 C0.99 0.495 0.99 0.495 2 1 C2 1.66 2 2.32 2 3 C3.98 3 5.96 3 8 3 C8 3.33 8 3.66 8 4 C6.35 4.33 4.7 4.66 3 5 C2.67 7.31 2.34 9.62 2 12 C1.34 12 0.68 12 0 12 C0 8.04 0 4.08 0 0 Z " fill="#F7F7F7" transform="translate(150,206)"/>
<path d="M0 0 C3.3 0 6.6 0 10 0 C10 0.66 10 1.32 10 2 C8.02 2 6.04 2 4 2 C3.67 3.32 3.34 4.64 3 6 C2.01 5.34 1.02 4.68 0 4 C0 2.68 0 1.36 0 0 Z " fill="#F9F9F9" transform="translate(99,172)"/>
<path d="M0 0 C0.66 0.66 1.32 1.32 2 2 C1.69347955 4.9425963 1.32728846 7.34542308 0 10 C-0.99 10 -1.98 10 -3 10 C-2.39009109 6.44219804 -1.4216319 3.3171411 0 0 Z " fill="#D9D9D9" transform="translate(39,182)"/>
<path d="M0 0 C2.5654594 2.5654594 2.54046087 4.47686668 3 8 C1.02 8 -0.96 8 -3 8 C-2.01 5.36 -1.02 2.72 0 0 Z " fill="#0F0F0F" transform="translate(102,203)"/>
<path d="M0 0 C1.875 1.1875 1.875 1.1875 2.875 3.1875 C2.91522391 5.5204866 2.91820247 7.85456666 2.875 10.1875 C1.885 9.8575 0.895 9.5275 -0.125 9.1875 C-0.80284992 6.85739091 -1.46916793 4.52390176 -2.125 2.1875 C-3.115 1.5275 -4.105 0.8675 -5.125 0.1875 C-2.125 -0.8125 -2.125 -0.8125 0 0 Z " fill="#D0D0D0" transform="translate(126.125,201.8125)"/>
<path d="M0 0 C0.33 0.99 0.66 1.98 1 3 C-1.31 3.33 -3.62 3.66 -6 4 C-6 3.34 -6 2.68 -6 2 C-7.65 2 -9.3 2 -11 2 C-11 1.67 -11 1.34 -11 1 C-7.27569643 0.30710631 -3.78916254 -0.11144596 0 0 Z " fill="#B7AC87" transform="translate(131,154)"/>
<path d="M0 0 C5.53846154 0.49230769 5.53846154 0.49230769 7.875 3.0625 C8.431875 4.0215625 8.431875 4.0215625 9 5 C8.34 5 7.68 5 7 5 C6.67 5.66 6.34 6.32 6 7 C4.02 4.69 2.04 2.38 0 0 Z " fill="#C4B792" transform="translate(160,29)"/>
<path d="M0 0 C0.33 0 0.66 0 1 0 C1 1.98 1 3.96 1 6 C3.33075929 5.04134491 3.33075929 5.04134491 5 2 C5.25 4.8125 5.25 4.8125 5 8 C3 9.875 3 9.875 1 11 C-0.28317892 7.15046324 -0.06643637 4.05261865 0 0 Z " fill="#D4D4D4" transform="translate(140,177)"/>
<path d="M0 0 C0.99 0.33 1.98 0.66 3 1 C3 2.98 3 4.96 3 7 C1.68 7 0.36 7 -1 7 C-1.04254356 5.00045254 -1.04080783 2.99958364 -1 1 C-0.67 0.67 -0.34 0.34 0 0 Z " fill="#FCFCFC" transform="translate(158,178)"/>
<path d="M0 0 C1.32 0 2.64 0 4 0 C4.66 2.31 5.32 4.62 6 7 C5.01 7 4.02 7 3 7 C0.64276511 4.46815512 0 3.52809907 0 0 Z " fill="#D3D3D3" transform="translate(44,171)"/>
<path d="M0 0 C-1.25125384 3.75376152 -2.5652404 4.24073289 -6 6 C-6.66 6 -7.32 6 -8 6 C-7.6875 4.125 -7.6875 4.125 -7 2 C-4 0 -4 0 0 0 Z " fill="#D7D0B2" transform="translate(157,143)"/>
<path d="M0 0 C2.475 0.99 2.475 0.99 5 2 C3.68 3.32 2.36 4.64 1 6 C-0.32 5.34 -1.64 4.68 -3 4 C-2.01 2.68 -1.02 1.36 0 0 Z " fill="#100B08" transform="translate(67,18)"/>
<path d="M0 0 C0.33 0 0.66 0 1 0 C1.28780586 3.05074215 1.45787911 5.96183742 1 9 C-1.5 11.0625 -1.5 11.0625 -4 12 C-3.38722388 9.03824877 -2.74627478 7.61941217 -1 5 C-0.61500109 3.34450469 -0.27206865 1.6777567 0 0 Z " fill="#E5E5E5" transform="translate(127,206)"/>
<path d="M0 0 C0.99 1.32 1.98 2.64 3 4 C1.4375 6 1.4375 6 -1 8 C-4.75 8.25 -4.75 8.25 -8 8 C-7.67 7.34 -7.34 6.68 -7 6 C-5.68 6 -4.36 6 -3 6 C-3 5.34 -3 4.68 -3 4 C-2.34 3.34 -1.68 2.68 -1 2 C-0.67 1.34 -0.34 0.68 0 0 Z " fill="#1D1D1D" transform="translate(140,185)"/>
<path d="M0 0 C2.46800047 1.15173355 4.04783565 2.04783565 6 4 C5.67 4.99 5.34 5.98 5 7 C2 6 2 6 0 3 C0 2.01 0 1.02 0 0 Z " fill="#D4C8A1" transform="translate(167,34)"/>
<path d="M0 0 C4.95 1.98 4.95 1.98 10 4 C6 6 6 6 4 6 C4 5.01 4 4.02 4 3 C2.68 2.67 1.36 2.34 0 2 C0 1.34 0 0.68 0 0 Z " fill="#0F100C" transform="translate(137,16)"/>
<path d="M0 0 C0.33 0.66 0.66 1.32 1 2 C3.02463255 2.65213292 3.02463255 2.65213292 5 3 C3.625 5.5 3.625 5.5 2 8 C1.34 8 0.68 8 0 8 C0 5.36 0 2.72 0 0 Z " fill="#D6D6D6" transform="translate(156,183)"/>
<path d="M0 0 C1.88391785 3.26545761 2.49287967 6.28111761 3 10 C2.01 9.67 1.02 9.34 0 9 C0 7.35 0 5.7 0 4 C-0.66 3.67 -1.32 3.34 -2 3 C-1.34 2.01 -0.68 1.02 0 0 Z " fill="#150F06" transform="translate(39,101)"/>
<path d="M0 0 C1.485 0.99 1.485 0.99 3 2 C2.67 4.31 2.34 6.62 2 9 C1.01 8.67 0.02 8.34 -1 8 C-0.67 5.36 -0.34 2.72 0 0 Z " fill="#231610" transform="translate(186,98)"/>
<path d="M0 0 C0.99 0 1.98 0 3 0 C3.12375 0.969375 3.2475 1.93875 3.375 2.9375 C3.684375 4.4534375 3.684375 4.4534375 4 6 C4.66 6.33 5.32 6.66 6 7 C6 8.65 6 10.3 6 12 C2.44992282 8.0949151 1.18180084 5.02265357 0 0 Z " fill="#3DAA7B" transform="translate(136,64)"/>
<path d="M0 0 C1.98 0.99 1.98 0.99 4 2 C4 3.98 4 5.96 4 8 C3.01 8 2.02 8 1 8 C0.67 5.36 0.34 2.72 0 0 Z " fill="#141414" transform="translate(136,173)"/>
<path d="M0 0 C2.64 0 5.28 0 8 0 C8 0.99 8 1.98 8 3 C7.01 3.33 6.02 3.66 5 4 C5 3.34 5 2.68 5 2 C3.35 2 1.7 2 0 2 C0 1.34 0 0.68 0 0 Z " fill="#1F0B05" transform="translate(86,61)"/>
<path d="M0 0 C2.97 0 5.94 0 9 0 C5.66189518 1.66905241 2.53842155 2.8741386 -1 4 C-0.67 2.68 -0.34 1.36 0 0 Z " fill="#B8A771" transform="translate(95,10)"/>
<path d="M0 0 C1.99097846 2.98646769 2.94124926 5.59687262 4 9 C3.01 9.33 2.02 9.66 1 10 C-0.1577506 6.52674819 -0.06866652 3.63932552 0 0 Z " fill="#D2D2D2" transform="translate(104,201)"/>
<path d="M0 0 C0.99 0 1.98 0 3 0 C1.60667426 3.36720387 0.0210714 4.9859524 -3 7 C-1.125 1.125 -1.125 1.125 0 0 Z " fill="#DCD1A7" transform="translate(164,134)"/>
<path d="M0 0 C0.66 0 1.32 0 2 0 C1.67 1.98 1.34 3.96 1 6 C0.01 6 -0.98 6 -2 6 C-1.125 1.125 -1.125 1.125 0 0 Z " fill="#D2C48C" transform="translate(180,110)"/>
<path d="M0 0 C1.32 0.99 2.64 1.98 4 3 C1.03 5.475 1.03 5.475 -2 8 C-2.33 7.01 -2.66 6.02 -3 5 C-2.01 5 -1.02 5 0 5 C0 3.35 0 1.7 0 0 Z " fill="#211407" transform="translate(57,27)"/>
<path d="M0 0 C1.65 0 3.3 0 5 0 C5 0.66 5 1.32 5 2 C6.32 2.66 7.64 3.32 9 4 C8.01 4.495 8.01 4.495 7 5 C4.64018187 4.06421005 2.30368736 3.06652192 0 2 C0 1.34 0 0.68 0 0 Z " fill="#150E08" transform="translate(139,12)"/>
<path d="M0 0 C4.455 0.99 4.455 0.99 9 2 C9 2.99 9 3.98 9 5 C4.89198233 3.81323934 3.10551666 3.10551666 0 0 Z " fill="#27160A" transform="translate(77,146)"/>
<path d="M0 0 C1.65 0 3.3 0 5 0 C5.33 0.66 5.66 1.32 6 2 C4.02 2.99 2.04 3.98 0 5 C0 3.35 0 1.7 0 0 Z " fill="#13100F" transform="translate(144,144)"/>
<path d="M0 0 C2.31 0.33 4.62 0.66 7 1 C7 1.33 7 1.66 7 2 C4.03 2.66 1.06 3.32 -2 4 C-1.34 2.68 -0.68 1.36 0 0 Z " fill="#130805" transform="translate(93,8)"/>
<path d="M0 0 C1.74627478 2.61941217 2.38722388 4.03824877 3 7 C2.01 7 1.02 7 0 7 C-0.38133299 5.0085944 -0.71325582 3.00720923 -1 1 C-0.67 0.67 -0.34 0.34 0 0 Z " fill="#D9D9D9" transform="translate(108,211)"/>
<path d="M0 0 C1.7074998 1.28062485 3.37373596 2.61767557 5 4 C5 4.66 5 5.32 5 6 C3.68 5.67 2.36 5.34 1 5 C0.67 3.35 0.34 1.7 0 0 Z " fill="#EBEBEB" transform="translate(70,186)"/>
<path d="M0 0 C2.1385485 2.1385485 2.42655063 3.13275314 3 6 C1.68 5.67 0.36 5.34 -1 5 C-1.33 3.68 -1.66 2.36 -2 1 C-1.34 0.67 -0.68 0.34 0 0 Z " fill="#DDDDDD" transform="translate(53,186)"/>
</svg>
