<?xml version="1.0" encoding="UTF-8"?>
<svg version="1.1" xmlns="http://www.w3.org/2000/svg" width="600" height="600">
<path d="M0 0 C198 0 396 0 600 0 C600 198 600 396 600 600 C402 600 204 600 0 600 C0 402 0 204 0 0 Z " fill="#1A1D41" transform="translate(0,0)"/>
<path d="M0 0 C0.788133 0.00092179 1.576266 0.00184359 2.38828182 0.00279331 C3.28997097 0.00141865 4.19166012 0.00004398 5.12067318 -0.00137234 C6.6160738 0.00402058 6.6160738 0.00402058 8.14168453 0.00952244 C9.18546261 0.00937641 10.22924068 0.00923038 11.3046484 0.00907993 C14.77305295 0.00977956 18.24140454 0.0175743 21.70979977 0.02539158 C24.1073367 0.02725558 26.50487401 0.02867957 28.90241146 0.0296793 C35.22684936 0.03350589 41.55126446 0.04333737 47.87569332 0.05438328 C54.32364754 0.06459438 60.77160543 0.06917627 67.21956539 0.0742197 C79.88168452 0.08495951 92.54378781 0.10184664 105.20589352 0.12304783 C104.73273049 1.71504027 104.25839113 3.30668312 103.78356075 4.89817905 C103.51954023 5.78456279 103.25551971 6.67094652 102.98349857 7.58419037 C102.01258871 10.7541823 100.91113707 13.8616802 99.76058102 16.97070408 C99.32358883 18.15212986 98.88659664 19.33355564 98.43636227 20.5507822 C97.98905758 21.75025486 97.54175289 22.94972752 97.08089352 24.18554783 C96.62585445 25.41982517 96.17081539 26.65410252 95.70198727 27.9257822 C92.33424858 36.99469277 92.33424858 36.99469277 91.20589352 38.12304783 C89.27282853 38.2170084 87.33630514 38.240483 85.40096188 38.23657322 C84.15975079 38.23649769 82.9185397 38.23642216 81.63971615 38.23634434 C80.27505612 38.23123694 78.91039649 38.22602093 77.54573727 38.22070408 C76.15711168 38.21883983 74.76848545 38.21741596 73.37985897 38.21641636 C69.71868237 38.21259169 66.05754522 38.20276186 62.39638424 38.19171238 C58.66297089 38.18149715 54.92955118 38.1769185 51.19612789 38.17187595 C43.86603175 38.16113954 36.53596815 38.14406374 29.20589352 38.12304783 C29.02318401 38.99472851 29.02318401 38.99472851 28.83678341 39.8840189 C27.8725399 44.37033096 26.79546892 48.7008592 25.26058102 53.03320408 C24.90608883 54.04189548 24.55159664 55.05058689 24.18636227 56.0898447 C23.82155758 57.11142673 23.45675289 58.13300877 23.08089352 59.18554783 C22.70835445 60.24193455 22.33581539 61.29832127 21.95198727 62.3867197 C21.04123975 64.967171 20.12579646 67.54584927 19.20589352 70.12304783 C20.0978442 70.1125742 20.98979488 70.10210056 21.90877438 70.09130955 C25.25792243 70.05696823 28.60687993 70.03202389 31.95613766 70.01318455 C33.39822523 70.0032047 34.84029297 69.98961599 36.28230953 69.97216892 C52.24318132 69.78406853 66.28353662 72.09908738 78.88167477 82.81054783 C88.77493651 92.65392758 94.20858312 103.59920332 94.45589352 117.49804783 C94.08007254 133.75230492 88.22056753 148.03655253 77.20589352 160.12304783 C76.13274899 161.33347752 76.13274899 161.33347752 75.03792477 162.56836033 C64.88744485 173.39774673 52.90277085 179.78592917 39.20589352 185.12304783 C38.15208492 185.58130955 38.15208492 185.58130955 37.07698727 186.04882908 C25.42278757 190.95718532 12.8105825 191.61624336 0.35262203 191.51416111 C-1.99049236 191.49798649 -4.3319011 191.51416073 -6.67496586 191.53320408 C-21.34074117 191.5556105 -32.31585673 189.43694362 -43.60660648 179.53320408 C-49.68882969 173.31413085 -51.92899273 164.6220658 -52.41910648 156.12304783 C-52.09933471 147.70974229 -48.15882495 140.34706786 -42.54410648 134.18554783 C-34.45675156 127.04346815 -26.58973826 125.017073 -15.99723148 125.58007908 C-7.94370435 126.37632147 -1.3651292 130.09046729 4.20589352 135.87304783 C10.99577793 144.67167555 12.01976631 153.19580494 11.20589352 164.12304783 C10.90795977 165.79640504 10.58808119 167.46690126 10.20589352 169.12304783 C23.59917974 164.54355649 32.75401368 156.81216657 39.19808102 144.17773533 C43.24910372 135.26548539 43.97219233 123.45954581 41.33479977 113.99804783 C37.04531106 104.77213112 29.4671695 99.76647372 20.20589352 96.12304783 C9.72462865 93.38514489 -1.29098269 93.6859779 -12.04410648 93.49804783 C-13.86834206 93.45977942 -15.69256129 93.42072287 -17.51676273 93.38086033 C-21.94240799 93.28584247 -26.36813729 93.2014682 -30.79410648 93.12304783 C-29.52555549 84.93991438 -26.97044364 77.26747459 -24.28574467 69.46786594 C-20.85256079 59.48123105 -17.47096137 49.49565508 -14.66910648 39.31054783 C-12.31604709 30.76264581 -9.68992983 22.31359341 -6.98160648 13.87304783 C-6.58376957 12.62676609 -6.18593266 11.38048435 -5.77604008 10.0964365 C-5.40430668 8.94506199 -5.03257328 7.79368748 -4.64957523 6.60742283 C-4.31594975 5.57327244 -3.98232426 4.53912205 -3.63858891 3.47363377 C-2.45102838 0.16810246 -2.45102838 0.16810246 0 0 Z " fill="#FDCD07" transform="translate(274.7941064834595,192.87695217132568)"/>
<path d="M0 0 C9.9 0 19.8 0 30 0 C26.30782157 7.38435686 22.63696583 14.57633344 18.5 21.6875 C13.97731262 29.52763352 9.52800255 37.40456471 5.125 45.3125 C0.47045539 53.66212796 -4.2803659 61.94680683 -9.125 70.1875 C-14.11632996 78.68217331 -18.92030227 87.25730179 -23.60424805 95.92480469 C-27.92564881 103.90873793 -32.41532178 111.78870541 -36.9375 119.66015625 C-40.12997935 125.21724515 -43.28690551 130.79408175 -46.4375 136.375 C-46.97463623 137.32632813 -47.51177246 138.27765625 -48.06518555 139.2578125 C-49.15735002 141.19247588 -50.24939041 143.12720932 -51.34130859 145.06201172 C-53.58674192 149.03927765 -55.8351921 153.01483487 -58.08349609 156.99047852 C-63.73588081 166.98607416 -69.37481253 176.98907314 -75 187 C-84.24 187 -93.48 187 -103 187 C-101.62160261 182.86480783 -100.58014363 179.95754186 -98.48828125 176.33203125 C-97.98562744 175.45305176 -97.48297363 174.57407227 -96.96508789 173.66845703 C-96.41973389 172.72599121 -95.87437988 171.78352539 -95.3125 170.8125 C-94.12922314 168.74405286 -92.94697289 166.67501818 -91.765625 164.60546875 C-91.14751953 163.52442871 -90.52941406 162.44338867 -89.89257812 161.32958984 C-86.74074203 155.78460266 -83.6524555 150.2046343 -80.5625 144.625 C-75.72800191 135.9055377 -70.87692493 127.19580512 -66 118.5 C-61.16964461 109.88486783 -56.3575554 101.25983128 -51.5625 92.625 C-50.94133301 91.50641602 -50.32016602 90.38783203 -49.68017578 89.23535156 C-46.51012175 83.52515333 -43.34228988 77.81372742 -40.17578125 72.1015625 C-33.83624534 60.6708916 -27.46318667 49.26160154 -21.01245117 37.89331055 C-13.89644375 25.32422201 -6.96292246 12.65435473 0 0 Z " fill="#FCCD06" transform="translate(464,193)"/>
<path d="M0 0 C5.49900106 4.31137651 11.03366261 9.55590774 12.15234375 16.6875 C12.15234375 20.6475 12.15234375 24.6075 12.15234375 28.6875 C-3.35765625 28.6875 -18.86765625 28.6875 -34.84765625 28.6875 C-33.09358788 37.0977884 -33.09358788 37.0977884 -27.97265625 43.8125 C-27.27140625 44.10125 -26.57015625 44.39 -25.84765625 44.6875 C-25.2546875 45.02910156 -24.66171875 45.37070312 -24.05078125 45.72265625 C-18.87406754 47.98976314 -12.623279 47.30089695 -7.41015625 45.5 C-4.00095111 43.088611 -1.71380747 40.41980245 0.15234375 36.6875 C4.11234375 36.6875 8.07234375 36.6875 12.15234375 36.6875 C10.3774698 43.78699581 6.11845348 48.6505515 0.15234375 52.6875 C-7.81899922 57.00463707 -18.18466864 57.06980406 -26.82421875 54.9609375 C-34.58113625 52.07845758 -39.4463174 47.81517644 -43.8671875 40.84765625 C-47.30711366 33.26885478 -47.2318066 21.68725803 -45.01171875 13.66796875 C-41.63802328 6.2979159 -36.37603092 1.67622027 -29.41015625 -2.25 C-20.34552806 -5.10401165 -8.23035113 -4.95227965 0 0 Z " fill="#F6CC07" transform="translate(484.84765625,325.3125)"/>
<path d="M0 0 C5.50186084 4.49826407 8.46391535 8.53055997 10.5234375 15.3359375 C10.5234375 19.2959375 10.5234375 23.2559375 10.5234375 27.3359375 C-4.9865625 27.3359375 -20.4965625 27.3359375 -36.4765625 27.3359375 C-33.77155838 37.56950925 -33.77155838 37.56950925 -26.9765625 44.1484375 C-20.61662127 46.3062747 -14.11571109 46.56125649 -7.9765625 43.7109375 C-5.30683708 41.4107037 -5.30683708 41.4107037 -3.6640625 38.0859375 C-1.4765625 35.3359375 -1.4765625 35.3359375 0.6640625 34.91796875 C4.25365037 34.88902046 7.10331244 35.19589581 10.5234375 36.3359375 C8.93808303 42.38910911 6.45359911 46.59469131 1.078125 49.7890625 C-8.49655141 54.64618698 -18.76789618 56.1688405 -29.3515625 53.65234375 C-31.58155849 52.71930724 -33.47722383 51.69127866 -35.4765625 50.3359375 C-36.11980469 49.90023437 -36.76304687 49.46453125 -37.42578125 49.015625 C-42.94060723 44.7841233 -46.18759292 39.16270232 -47.4765625 32.3359375 C-48.3580295 20.92723609 -47.68898983 12.67537614 -40.1640625 3.5234375 C-28.67382955 -5.82907769 -13.04066842 -8.76234187 0 0 Z " fill="#F8CC07" transform="translate(186.4765625,326.6640625)"/>
<path d="M0 0 C2.35660613 2.13784944 4.20687937 4.37837478 6 7 C6.61875 7.86625 7.2375 8.7325 7.875 9.625 C10.17525619 16.52576856 10.12721985 24.18674913 7.3125 30.9375 C3.0186498 39.10628819 -2.311446 43.10381533 -11 46 C-18.87197516 46.90334141 -24.7091582 45.94026559 -31 41 C-36.69569547 35.50033229 -40.20427744 31.13017699 -40.43164062 23.00927734 C-40.4665924 9.53245496 -40.4665924 9.53245496 -35 4 C-34.37222656 3.35546875 -33.74445313 2.7109375 -33.09765625 2.046875 C-23.34505601 -7.16287417 -11.00262417 -7.68253407 0 0 Z " fill="#FCCC07" transform="translate(423,195)"/>
<path d="M0 0 C3.63 0 7.26 0 11 0 C11.33 8.58 11.66 17.16 12 26 C15.465 23.525 15.465 23.525 19 21 C25.61356274 18.79547909 35.23109799 18.64395355 41.625 21.6875 C45.87780346 24.3003335 49.39335671 27.18007012 51 32 C51.08669529 33.51907624 51.117694 35.04169001 51.11352539 36.56323242 C51.11344986 37.48396042 51.11337433 38.40468842 51.11329651 39.35331726 C51.10813522 40.34402725 51.10297394 41.33473724 51.09765625 42.35546875 C51.0962413 43.37224197 51.09482635 44.3890152 51.09336853 45.43659973 C51.08776707 48.68692964 51.07521432 51.93719088 51.0625 55.1875 C51.05748519 57.38997296 51.05292225 59.59244701 51.04882812 61.79492188 C51.03779716 67.19664107 51.02053154 72.59830889 51 78 C47.7 78 44.4 78 41 78 C40.98541748 76.78417236 40.97083496 75.56834473 40.95581055 74.31567383 C40.89774902 69.79600922 40.8205164 65.27683873 40.73754883 60.75756836 C40.70433646 58.80322298 40.67629305 56.84878253 40.65356445 54.89428711 C40.61995067 52.08145718 40.56763146 49.26949553 40.51171875 46.45703125 C40.50532883 45.58601273 40.4989389 44.7149942 40.49235535 43.81758118 C40.37809101 39.0812937 40.09154947 35.8305616 37 32 C32.26451692 28.73026168 27.59366042 27.98125578 22 29 C17.24203399 31.04958536 14.0488136 33.1685182 12 38 C11.67902172 40.01423125 11.67902172 40.01423125 11.68115234 42.12597656 C11.66128265 42.92650452 11.64141296 43.72703247 11.62094116 44.55181885 C11.60361435 45.83327789 11.60361435 45.83327789 11.5859375 47.140625 C11.56657135 48.02280701 11.5472052 48.90498901 11.5272522 49.81390381 C11.46757152 52.62583816 11.42111717 55.4378137 11.375 58.25 C11.33680962 60.15887181 11.29775727 62.06772659 11.2578125 63.9765625 C11.16187942 68.65090296 11.07780584 73.32532409 11 78 C7.37 78 3.74 78 0 78 C0 52.26 0 26.52 0 0 Z " fill="#F9CD07" transform="translate(81,302)"/>
<path d="M0 0 C0.83418457 0.01208496 1.66836914 0.02416992 2.52783203 0.03662109 C10.30752283 0.28699148 17.15757388 1.48880413 22.6875 7.375 C24.66912256 10.57116542 25.35905539 12.77677544 25.625 16.5 C21.995 16.83 18.365 17.16 14.625 17.5 C14.2125 16.55125 13.8 15.6025 13.375 14.625 C11.49048522 11.25979504 11.11466793 10.71907274 7.625 9.5 C4.0253455 9.14482485 4.0253455 9.14482485 0.125 9.1875 C-1.83953125 9.16236328 -1.83953125 9.16236328 -3.84375 9.13671875 C-7.46040335 9.50878596 -8.89721772 9.89801811 -11.375 12.5 C-11.85083592 15.21906237 -11.90149196 16.71624492 -10.34375 19.03515625 C-7.36550659 21.25111116 -4.00493051 21.71186813 -0.4375 22.4375 C20.71394033 27.09783436 20.71394033 27.09783436 25.625 32.5 C27.99630785 36.56509917 28.30898777 40.89623619 27.625 45.5 C25.09281194 51.72496232 21.65830568 54.65032057 15.625 57.5 C6.18153061 60.91918719 -5.06643908 61.09541806 -14.25 56.8359375 C-19.22192174 53.71020729 -22.79421142 49.1908389 -24.375 43.5 C-24.375 42.51 -24.375 41.52 -24.375 40.5 C-19.425 40.005 -19.425 40.005 -14.375 39.5 C-13.23567708 41.48567708 -12.09635417 43.47135417 -10.95703125 45.45703125 C-8.32898533 48.85077943 -5.71899071 50.31549522 -1.47265625 50.8984375 C5.40946655 50.84529369 10.52250035 50.60249965 15.625 45.5 C15.79181109 42.41652174 15.79181109 42.41652174 15.625 39.5 C10.46429484 36.58012734 5.34615933 35.30408779 -0.375 34 C-8.86850559 32.06398034 -15.3545758 30.20847268 -21.375 23.5 C-23.36314125 19.5237175 -22.9009382 14.82370123 -22.375 10.5 C-17.43965953 2.01738357 -9.26526432 -0.21477633 0 0 Z " fill="#F7CC07" transform="translate(559.375,321.5)"/>
<path d="M0 0 C22.77 0 45.54 0 69 0 C69 2.97 69 5.94 69 9 C59.76 9 50.52 9 41 9 C41 31.77 41 54.54 41 78 C37.04 78 33.08 78 29 78 C29 55.23 29 32.46 29 9 C19.43 9 9.86 9 0 9 C0 6.03 0 3.06 0 0 Z " fill="#F8C908" transform="translate(7,302)"/>
<path d="M0 0 C0.93585937 -0.00515625 1.87171875 -0.0103125 2.8359375 -0.015625 C5.76829762 0.26364739 7.95904925 1.02850984 10.625 2.25 C10.1270163 5.98487777 9.75008244 8.06237635 7.625 11.25 C4.31001366 11.42423783 1.10015888 11.17786011 -2.2109375 10.96484375 C-5.42160495 10.977921 -5.42160495 10.977921 -7.6640625 12.94140625 C-11.49038085 18.10431526 -11.70007542 22.8462402 -11.7890625 29.05078125 C-11.80842865 29.88715622 -11.8277948 30.72353119 -11.8477478 31.58525085 C-11.90730192 34.2442317 -11.95383174 36.9032564 -12 39.5625 C-12.03820206 41.37046109 -12.07725509 43.17840442 -12.1171875 44.98632812 C-12.21298345 49.40740698 -12.29710331 53.82857101 -12.375 58.25 C-16.005 58.25 -19.635 58.25 -23.375 58.25 C-23.375 39.44 -23.375 20.63 -23.375 1.25 C-20.075 1.25 -16.775 1.25 -13.375 1.25 C-13.045 3.23 -12.715 5.21 -12.375 7.25 C-11.776875 6.46625 -11.17875 5.6825 -10.5625 4.875 C-7.20595133 0.84714159 -5.09792316 -0.02793383 0 0 Z " fill="#FACC07" transform="translate(527.375,321.75)"/>
<path d="M0 0 C4.47677994 2.08401825 7.37294094 4.8161652 10 9 C10.495 12.465 10.495 12.465 11 16 C-0.88 16 -12.76 16 -25 16 C-23.87157534 9.22945205 -23.87157534 9.22945205 -20.625 5.75 C-20.01914062 5.08484375 -19.41328125 4.4196875 -18.7890625 3.734375 C-13.37402966 -1.51513282 -7.1300726 -0.66459825 0 0 Z " fill="#20213F" transform="translate(475,330)"/>
<path d="M0 0 C3.70899307 2.22539584 5.75631387 4.25230357 8.125 7.875 C8.62 11.34 8.62 11.34 9.125 14.875 C-2.425 14.875 -13.975 14.875 -25.875 14.875 C-24.74454662 6.96182635 -24.74454662 6.96182635 -22.0625 4.0625 C-21.56105469 3.49917969 -21.05960938 2.93585938 -20.54296875 2.35546875 C-15.01051149 -2.55507294 -6.74736767 -2.50616513 0 0 Z " fill="#1B1E40" transform="translate(176.875,331.125)"/>
<path d="M0 0 C2.97 0 5.94 0 9 0 C9 2.64 9 5.28 9 8 C8.67 8 8.34 8 8 8 C8 6.02 8 4.04 8 2 C6.02 2 4.04 2 2 2 C2 19.49 2 36.98 2 55 C4.31 55 6.62 55 9 55 C9 44.44 9 33.88 9 23 C9.33 23 9.66 23 10 23 C10.33 34.22 10.66 45.44 11 57 C7.37 57 3.74 57 0 57 C0 38.19 0 19.38 0 0 Z " fill="#EBCA08" transform="translate(504,323)"/>
<path d="M0 0 C0.33 0 0.66 0 1 0 C1 22.11 1 44.22 1 67 C3.64 67 6.28 67 9 67 C9 44.89 9 22.78 9 0 C9.33 0 9.66 0 10 0 C10 22.77 10 45.54 10 69 C6.37 69 2.74 69 -1 69 C-0.67 46.23 -0.34 23.46 0 0 Z " fill="#FCDD02" transform="translate(37,311)"/>
<path d="M0 0 C0.99 0 1.98 0 3 0 C3 25.74 3 51.48 3 78 C2.67 78 2.34 78 2 78 C1.67 55.56 1.34 33.12 1 10 C0.67 10 0.34 10 0 10 C0 6.7 0 3.4 0 0 Z " fill="#020A47" transform="translate(77,302)"/>
<path d="M0 0 C0.66 1.32 1.32 2.64 2 4 C8.27 4 14.54 4 21 4 C21 4.33 21 4.66 21 5 C13.74 5 6.48 5 -1 5 C-0.67 3.35 -0.34 1.7 0 0 Z " fill="#32313A" transform="translate(295,258)"/>
<path d="M0 0 C0.99 0.33 1.98 0.66 3 1 C0.36 3.64 -2.28 6.28 -5 9 C-5.33 8.01 -5.66 7.02 -6 6 C-4.02 4.02 -2.04 2.04 0 0 Z " fill="#FDDA04" transform="translate(393,194)"/>
<path d="M0 0 C3.33333333 1.66666667 6.66666667 3.33333333 10 5 C10 5.66 10 6.32 10 7 C6.12697862 5.85569823 2.99736561 4.76679902 0 2 C0 1.34 0 0.68 0 0 Z " fill="#E5C909" transform="translate(539,345)"/>
<path d="M0 0 C4 0 4 0 6 1 C4.35830472 3.02054804 2.69088222 5.02043058 1 7 C0.67 7 0.34 7 0 7 C0 4.69 0 2.38 0 0 Z " fill="#0D1145" transform="translate(514,323)"/>
<path d="M0 0 C1.32 0.66 2.64 1.32 4 2 C1.03 4.475 1.03 4.475 -2 7 C-1.125 2.25 -1.125 2.25 0 0 Z " fill="#0F1146" transform="translate(539,324)"/>
</svg>
