<?xml version="1.0" encoding="UTF-8"?>
<svg version="1.1" xmlns="http://www.w3.org/2000/svg" width="225" height="225">
<path d="M0 0 C74.25 0 148.5 0 225 0 C225 74.25 225 148.5 225 225 C150.75 225 76.5 225 0 225 C0 150.75 0 76.5 0 0 Z " fill="#000000" transform="translate(0,0)"/>
<path d="M0 0 C22.77 0 45.54 0 69 0 C69 8.58 69 17.16 69 26 C59.1 26.495 59.1 26.495 49 27 C48.67 65.94 48.34 104.88 48 145 C39.09 145 30.18 145 21 145 C20.67 106.06 20.34 67.12 20 27 C13.4 26.67 6.8 26.34 0 26 C0 17.42 0 8.84 0 0 Z " fill="#FCFCFC" transform="translate(78,40)"/>
</svg>
