<?xml version="1.0" encoding="UTF-8"?>
<svg version="1.1" xmlns="http://www.w3.org/2000/svg" width="200" height="200">
<path d="M0 0 C66 0 132 0 200 0 C200 66 200 132 200 200 C134 200 68 200 0 200 C0 134 0 68 0 0 Z " fill="#10D28D" transform="translate(0,0)"/>
<path d="M0 0 C2.5625 0.375 2.5625 0.375 4.125 1.80078125 C6.28012183 5.66008908 6.57754241 9.59255416 7.125 13.9375 C7.38104573 15.75266978 7.6375521 17.56777464 7.89453125 19.3828125 C8.27070766 22.14691368 8.62497126 24.90884529 8.94921875 27.6796875 C10.71862297 40.50311161 19.1622472 51.12204204 26.5625 61.375 C26.8925 60.715 27.2225 60.055 27.5625 59.375 C26.57878783 57.21124368 26.57878783 57.21124368 25.0703125 54.83984375 C24.53019531 53.94845703 23.99007812 53.05707031 23.43359375 52.13867188 C22.85738281 51.20603516 22.28117187 50.27339844 21.6875 49.3125 C21.11902344 48.37599609 20.55054687 47.43949219 19.96484375 46.47460938 C17.56765573 42.19704547 17.56765573 42.19704547 14.5625 38.375 C14.375 34.9375 14.375 34.9375 14.5625 31.375 C16.5625 29.375 16.5625 29.375 19.84375 28.84765625 C23.5625 29.375 23.5625 29.375 26.40625 32.12109375 C27.31385087 33.33529171 28.19843485 34.56694493 29.0625 35.8125 C29.53534424 36.45195557 30.00818848 37.09141113 30.49536133 37.75024414 C31.87014251 39.61214697 33.21781891 41.49130295 34.5625 43.375 C38.55377105 48.79116269 42.48615991 53.35996783 47.640625 57.6953125 C53.22605922 62.57689119 58.0174159 68.16490012 58.81567383 75.79492188 C58.89316123 78.49461318 58.87360377 81.17497698 58.8125 83.875 C58.80734375 84.78636719 58.8021875 85.69773437 58.796875 86.63671875 C58.63916515 100.29833485 58.63916515 100.29833485 56.5625 102.375 C54.64791718 102.47471786 52.72967683 102.50580589 50.8125 102.5078125 C49.6471875 102.50910156 48.481875 102.51039063 47.28125 102.51171875 C46.0540625 102.50785156 44.826875 102.50398438 43.5625 102.5 C41.72171875 102.50580078 41.72171875 102.50580078 39.84375 102.51171875 C38.6784375 102.51042969 37.513125 102.50914062 36.3125 102.5078125 C35.23484375 102.50668457 34.1571875 102.50555664 33.046875 102.50439453 C30.5625 102.375 30.5625 102.375 29.5625 101.375 C29.58570313 100.48296875 29.60890625 99.5909375 29.6328125 98.671875 C29.78587714 88.74453996 27.17814396 84.44710563 20.546875 77.47265625 C20.04349609 76.95590332 19.54011719 76.43915039 19.02148438 75.90673828 C16.81449921 73.5896993 14.82071185 71.11449021 12.8125 68.625 C12.09320313 67.73683594 11.37390625 66.84867187 10.6328125 65.93359375 C9.94960938 65.08925781 9.26640625 64.24492188 8.5625 63.375 C7.89992188 62.58222656 7.23734375 61.78945312 6.5546875 60.97265625 C5.93851563 60.21855469 5.32234375 59.46445313 4.6875 58.6875 C3.88699219 57.72263672 3.88699219 57.72263672 3.0703125 56.73828125 C-1.59116929 49.43207275 -2.21151346 41.67994606 -2.94555664 33.2409668 C-3.12320612 31.20802835 -3.31893515 29.1774673 -3.51757812 27.14648438 C-5.15797485 9.78445368 -5.15797485 9.78445368 -4.4375 2.375 C-2.4375 0.375 -2.4375 0.375 0 0 Z " fill="#112B39" transform="translate(27.4375,60.625)"/>
<path d="M0 0 C2.875 -0.1875 2.875 -0.1875 6 0 C9.59832334 5.39748501 7.57847701 12.72390577 7 19 C6.90025879 20.11004395 6.80051758 21.22008789 6.69775391 22.36376953 C6.35650881 26.07761212 5.99416349 29.78883391 5.625 33.5 C5.4544812 35.30682251 5.4544812 35.30682251 5.28051758 37.15014648 C4.26357026 46.87991362 2.54941093 53.98141876 -4.125 61.3125 C-5.11154727 62.43543402 -6.09721059 63.55914518 -7.08203125 64.68359375 C-7.57268066 65.23772949 -8.06333008 65.79186523 -8.56884766 66.36279297 C-11.47807758 69.69088848 -14.23159672 73.1470458 -16.98828125 76.6015625 C-19 79 -19 79 -20.85546875 80.7109375 C-25.02536585 84.61340652 -25.59363992 88.35956617 -25.875 93.9375 C-25.91625 96.268125 -25.9575 98.59875 -26 101 C-35.57 101 -45.14 101 -55 101 C-55.12375 96.6275 -55.2475 92.255 -55.375 87.75 C-55.42962402 86.39745117 -55.48424805 85.04490234 -55.54052734 83.65136719 C-55.67539797 73.68834345 -53.33344502 65.21998026 -46.296875 57.859375 C-45.45640625 57.16328125 -44.6159375 56.4671875 -43.75 55.75 C-42.89921875 55.02296875 -42.0484375 54.2959375 -41.171875 53.546875 C-39 52 -39 52 -37 52 C-36.73574219 51.42781738 -36.47148437 50.85563477 -36.19921875 50.26611328 C-34.9312888 47.87015933 -33.48160573 45.8767904 -31.8125 43.7421875 C-31.19632813 42.95199219 -30.58015625 42.16179687 -29.9453125 41.34765625 C-29.30335938 40.53167969 -28.66140625 39.71570313 -28 38.875 C-27.35804688 38.05128906 -26.71609375 37.22757813 -26.0546875 36.37890625 C-21.29546523 30.29546523 -21.29546523 30.29546523 -19 28 C-13.54545455 28.45454545 -13.54545455 28.45454545 -11 31 C-10.50374768 35.63639153 -11.29635167 38.20376407 -13.80859375 42.07421875 C-14.39060547 42.98880859 -14.97261719 43.90339844 -15.57226562 44.84570312 C-16.18779297 45.78349609 -16.80332031 46.72128906 -17.4375 47.6875 C-18.64699102 49.56482379 -19.85413334 51.44366344 -21.05859375 53.32421875 C-21.59798584 54.15010498 -22.13737793 54.97599121 -22.69311523 55.8269043 C-24.13797707 58.05071509 -24.13797707 58.05071509 -25 61 C-20.51526446 57.85752685 -18.16357936 54.52449896 -15.5 49.875 C-15.13519531 49.26140625 -14.77039063 48.6478125 -14.39453125 48.015625 C-13.22896652 46.02803041 -12.11393297 44.0169396 -11 42 C-10.55865723 41.24904053 -10.11731445 40.49808105 -9.66259766 39.72436523 C-5.95064735 33.02219523 -4.99150469 26.88734811 -4.375 19.3125 C-3.22908866 6.23517396 -3.22908866 6.23517396 0 0 Z " fill="#112B39" transform="translate(169,61)"/>
<path d="M0 0 C6.6 0 13.2 0 20 0 C20 24.42 20 48.84 20 74 C13.4 74 6.8 74 0 74 C0 49.58 0 25.16 0 0 Z " fill="#053738" transform="translate(90,20)"/>
<path d="M0 0 C6.27 0 12.54 0 19 0 C19 18.15 19 36.3 19 55 C12.73 55 6.46 55 0 55 C0 36.85 0 18.7 0 0 Z " fill="#063E3A" transform="translate(118,39)"/>
<path d="M0 0 C2.5625 0.375 2.5625 0.375 4.125 1.80078125 C6.28012183 5.66008908 6.57754241 9.59255416 7.125 13.9375 C7.38104573 15.75266978 7.6375521 17.56777464 7.89453125 19.3828125 C8.27070766 22.14691368 8.62497126 24.90884529 8.94921875 27.6796875 C9.89023461 34.49952286 12.64763485 39.76037183 16.1015625 45.625 C17.5625 48.375 17.5625 48.375 17.5625 51.375 C16.9025 51.375 16.2425 51.375 15.5625 51.375 C13.09087168 53.92152615 11.6875123 56.02202409 10.5 59.375 C10.25114093 62.50983841 10.25114093 62.50983841 12.5625 64.75 C13.5525 65.61625 14.5425 66.4825 15.5625 67.375 C16.7882158 68.73452757 17.9958152 70.11054623 19.1875 71.5 C20.79292364 73.36694061 22.36627615 75.18701271 24.14453125 76.890625 C25.67410434 78.49183099 26.59736174 80.04457498 27.625 82 C29.16791916 85.40814359 29.16791916 85.40814359 31.5625 86.375 C31.5625 90.995 31.5625 95.615 31.5625 100.375 C39.4825 100.375 47.4025 100.375 55.5625 100.375 C55.5625 97.405 55.5625 94.435 55.5625 91.375 C55.79851018 88.70705879 56.04808768 86.0402762 56.3125 83.375 C56.79922198 77.51927592 56.41795654 73.14831013 53.47265625 67.9765625 C52.5625 66.375 52.5625 66.375 52.5625 64.375 C51.9025 64.375 51.2425 64.375 50.5625 64.375 C50.8925 63.385 51.2225 62.395 51.5625 61.375 C57.32426783 69.10789893 58.87731586 74.10079769 58.75 83.75 C58.74935547 84.67039062 58.74871094 85.59078125 58.74804688 86.5390625 C58.65972659 100.27777341 58.65972659 100.27777341 56.5625 102.375 C54.64791718 102.47471786 52.72967683 102.50580589 50.8125 102.5078125 C49.6471875 102.50910156 48.481875 102.51039063 47.28125 102.51171875 C46.0540625 102.50785156 44.826875 102.50398438 43.5625 102.5 C41.72171875 102.50580078 41.72171875 102.50580078 39.84375 102.51171875 C38.6784375 102.51042969 37.513125 102.50914062 36.3125 102.5078125 C35.23484375 102.50668457 34.1571875 102.50555664 33.046875 102.50439453 C30.5625 102.375 30.5625 102.375 29.5625 101.375 C29.58570313 100.48296875 29.60890625 99.5909375 29.6328125 98.671875 C29.78587714 88.74453996 27.17814396 84.44710563 20.546875 77.47265625 C20.04349609 76.95590332 19.54011719 76.43915039 19.02148438 75.90673828 C16.81449921 73.5896993 14.82071185 71.11449021 12.8125 68.625 C12.09320313 67.73683594 11.37390625 66.84867187 10.6328125 65.93359375 C9.94960938 65.08925781 9.26640625 64.24492188 8.5625 63.375 C7.89992188 62.58222656 7.23734375 61.78945312 6.5546875 60.97265625 C5.93851563 60.21855469 5.32234375 59.46445313 4.6875 58.6875 C3.88699219 57.72263672 3.88699219 57.72263672 3.0703125 56.73828125 C-1.59116929 49.43207275 -2.21151346 41.67994606 -2.94555664 33.2409668 C-3.12320612 31.20802835 -3.31893515 29.1774673 -3.51757812 27.14648438 C-5.15797485 9.78445368 -5.15797485 9.78445368 -4.4375 2.375 C-2.4375 0.375 -2.4375 0.375 0 0 Z " fill="#0F2D3A" transform="translate(27.4375,60.625)"/>
<path d="M0 0 C6.27 0 12.54 0 19 0 C19 12.87 19 25.74 19 39 C12.73 39 6.46 39 0 39 C0 26.13 0 13.26 0 0 Z " fill="#0E2D38" transform="translate(63,55)"/>
<path d="M0 0 C5.94 0 11.88 0 18 0 C18 20.13 18 40.26 18 61 C17.67 61 17.34 61 17 61 C16.67 58.69 16.34 56.38 16 54 C15.01 54.495 15.01 54.495 14 55 C14 53.02 14 51.04 14 49 C13.34 49 12.68 49 12 49 C11.773125 49.5775 11.54625 50.155 11.3125 50.75 C10 53 10 53 7.375 54.8125 C4.58338173 56.88859928 4.58338173 56.88859928 4.6875 60.75 C4.790625 61.8225 4.89375 62.895 5 64 C5.66 64.33 6.32 64.66 7 65 C7.625 67.0625 7.625 67.0625 8 69 C10.64 68.67 13.28 68.34 16 68 C16.33 66.02 16.66 64.04 17 62 C17.33 62 17.66 62 18 62 C18 65.63 18 69.26 18 73 C12.06 73 6.12 73 0 73 C0 58.15 0 43.3 0 28 C0.66 28.66 1.32 29.32 2 30 C3.65 29.34 5.3 28.68 7 28 C6.34 28.99 5.68 29.98 5 31 C4.60986284 32.9896995 4.26797351 34.99019869 4 37 C4.99 37 5.98 37 7 37 C7.125 39.375 7.125 39.375 7 42 C6.34 42.66 5.68 43.32 5 44 C4.60235737 45.98821313 4.26224651 47.98944339 4 50 C10.80721847 44.77148041 10.80721847 44.77148041 14 37 C14.66 37 15.32 37 16 37 C16 34.03 16 31.06 16 28 C15.34 28.33 14.68 28.66 14 29 C14 26.69 14 24.38 14 22 C12.68 22 11.36 22 10 22 C11.875 18.125 11.875 18.125 13 17 C13.23075082 15.65252916 13.41153063 14.29622435 13.5625 12.9375 C13.706875 11.638125 13.85125 10.33875 14 9 C13.34 9 12.68 9 12 9 C12 9.66 12 10.32 12 11 C11.01 10.67 10.02 10.34 9 10 C9.66 8.02 10.32 6.04 11 4 C8.69 4 6.38 4 4 4 C4 6.31 4 8.62 4 11 C5.32 11.33 6.64 11.66 8 12 C8 12.66 8 13.32 8 14 C3.61538462 17 3.61538462 17 1 17 C-0.53190797 13.93618406 -0.10243613 10.73034134 -0.0625 7.375 C-0.041875 4.94125 -0.02125 2.5075 0 0 Z " fill="#073136" transform="translate(91,21)"/>
<path d="M0 0 C1.32 0 2.64 0 4 0 C4.33 1.98 4.66 3.96 5 6 C5.66 5.34 6.32 4.68 7 4 C6.77219053 8.33437484 6.49016033 12.66020106 6.14892578 16.98681641 C6.01821981 18.75370406 5.92591086 20.52334492 5.83984375 22.29296875 C4.68229482 35.156435 -3.75710335 47.34977953 -12 57 C-13.485 57.495 -13.485 57.495 -15 58 C-14.43836588 54.21489364 -13.42307791 51.72193854 -11.27734375 48.56640625 C-10.47006836 47.3453418 -10.47006836 47.3453418 -9.64648438 46.09960938 C-8.50774822 44.40907421 -7.36451555 42.72155914 -6.21679688 41.03710938 C-2.2153755 35.06833085 -2.2153755 35.06833085 -2 28 C-3.98 27.01 -5.96 26.02 -8 25 C-8 24.01 -8 23.02 -8 22 C-8.99 21.67 -9.98 21.34 -11 21 C-10.6083965 15.04492601 -9.62875405 10.37180176 -7 5 C-5.35 5 -3.7 5 -2 5 C-1.34 3.35 -0.68 1.7 0 0 Z " fill="#1FC88F" transform="translate(159,64)"/>
<path d="M0 0 C2.97 0 5.94 0 9 0 C9 14.85 9 29.7 9 45 C6.03 45 3.06 45 0 45 C0 30.15 0 15.3 0 0 Z " fill="#14D08D" transform="translate(123,44)"/>
<path d="M0 0 C6.6 0 13.2 0 20 0 C20 24.42 20 48.84 20 74 C19.01 72.68 18.02 71.36 17 70 C14.36 70.33 11.72 70.66 9 71 C8.505 68.525 8.505 68.525 8 66 C7.01 65.67 6.02 65.34 5 65 C4.5625 61.875 4.5625 61.875 5 58 C6.64414281 56.1324224 8.37092804 54.73658842 10.37109375 53.26171875 C12.14105662 52.07893235 12.14105662 52.07893235 13 50 C13.66 50 14.32 50 15 50 C15.33 51.65 15.66 53.3 16 55 C16.99 54.505 16.99 54.505 18 54 C18.33 36.51 18.66 19.02 19 1 C13.06 1 7.12 1 1 1 C1 25.09 1 49.18 1 74 C0.67 74 0.34 74 0 74 C0 49.58 0 25.16 0 0 Z " fill="#0C594D" transform="translate(90,20)"/>
<path d="M0 0 C0.66 2.31 1.32 4.62 2 7 C3.32 7 4.64 7 6 7 C8.22656164 11.74354436 9.46148032 15.72250715 10 21 C8.02 20.67 6.04 20.34 4 20 C4 20.66 4 21.32 4 22 C2.1875 22.6875 2.1875 22.6875 0 23 C-1.75 21.5625 -1.75 21.5625 -3 20 C-3 21.98 -3 23.96 -3 26 C-1.02 26 0.96 26 3 26 C2.67 26.66 2.34 27.32 2 28 C0.9912261 35.0250651 4.06027445 39.023494 7.9375 44.6875 C9.05550071 46.35491819 10.16897486 48.02538261 11.27734375 49.69921875 C11.77484131 50.42971436 12.27233887 51.16020996 12.78491211 51.9128418 C13.97964265 53.96503215 14.55791967 55.67965093 15 58 C14.01 58 13.02 58 12 58 C10.63720703 56.5222168 10.63720703 56.5222168 9.2578125 54.44921875 C8.7510498 53.69374756 8.24428711 52.93827637 7.72216797 52.15991211 C6.93156982 50.93606812 6.93156982 50.93606812 6.125 49.6875 C5.58633301 48.85806885 5.04766602 48.0286377 4.49267578 47.17407227 C-3.85644816 34.13381453 -7.33581696 22.56969548 -7 7 C-4.90649311 10.4019487 -4.82057837 13.05272412 -5 17 C-4.34 17 -3.68 17 -3 17 C-3.33 11.72 -3.66 6.44 -4 1 C-2 0 -2 0 0 0 Z " fill="#26BC8D" transform="translate(41,64)"/>
<path d="M0 0 C2.00720923 0.28674418 4.0085944 0.61866701 6 1 C9.1114459 11.19717563 11.63156857 23.34681699 10 34 C8.0625 36.375 8.0625 36.375 6 38 C5.20318682 40.64184541 5.20318682 40.64184541 5 43 C4.34 43 3.68 43 3 43 C-1.21244021 34.57511958 -0.30640408 21.79805721 -0.6875 12.625 C-0.73583984 11.50085693 -0.78417969 10.37671387 -0.83398438 9.21850586 C-0.87201172 8.16928955 -0.91003906 7.12007324 -0.94921875 6.0390625 C-0.98362061 5.09240723 -1.01802246 4.14575195 -1.0534668 3.17041016 C-1 1 -1 1 0 0 Z " fill="#0F2C38" transform="translate(25,63)"/>
<path d="M0 0 C0 17.16 0 34.32 0 52 C-0.33 52 -0.66 52 -1 52 C-1 35.17 -1 18.34 -1 1 C-2.32 1 -3.64 1 -5 1 C-5 1.99 -5 2.98 -5 4 C-7.97 4 -10.94 4 -14 4 C-14 19.18 -14 34.36 -14 50 C-14.99 49.67 -15.98 49.34 -17 49 C-17.02526945 42.3247966 -17.04283268 35.64960543 -17.05493164 28.97436523 C-17.05997325 26.70157409 -17.06680637 24.4287862 -17.07543945 22.15600586 C-17.08751261 18.89696449 -17.09322987 15.63796583 -17.09765625 12.37890625 C-17.10281754 11.35599991 -17.10797882 10.33309357 -17.11329651 9.27919006 C-17.11337204 8.33829025 -17.11344757 7.39739044 -17.11352539 6.42797852 C-17.115746 5.59524918 -17.11796661 4.76251984 -17.12025452 3.90455627 C-17 2 -17 2 -16 1 C-14.63277529 0.76234935 -13.25488087 0.58484321 -11.875 0.4375 C-10.75738281 0.31181641 -10.75738281 0.31181641 -9.6171875 0.18359375 C-6.41873425 -0.04077536 -3.20631325 0 0 0 Z " fill="#063036" transform="translate(136,39)"/>
<path d="M0 0 C4.63698743 4.13569149 7.60190451 8.19141236 8.25317383 14.42211914 C8.33070531 17.12107331 8.31108714 19.80071178 8.25 22.5 C8.24484375 23.41136719 8.2396875 24.32273438 8.234375 25.26171875 C8.07666515 38.92333485 8.07666515 38.92333485 6 41 C4.08541718 41.09971786 2.16717683 41.13080589 0.25 41.1328125 C-0.9153125 41.13410156 -2.080625 41.13539063 -3.28125 41.13671875 C-4.5084375 41.13285156 -5.735625 41.12898438 -7 41.125 C-8.84078125 41.13080078 -8.84078125 41.13080078 -10.71875 41.13671875 C-12.46671875 41.13478516 -12.46671875 41.13478516 -14.25 41.1328125 C-15.32765625 41.13168457 -16.4053125 41.13055664 -17.515625 41.12939453 C-20 41 -20 41 -21 40 C-20.97679688 39.10796875 -20.95359375 38.2159375 -20.9296875 37.296875 C-20.77696446 27.39169514 -23.36388515 23.08773088 -29.98828125 16.1328125 C-30.49053223 15.61750977 -30.9927832 15.10220703 -31.51025391 14.57128906 C-33.88957281 12.0617354 -36.02011951 9.38208115 -38.1875 6.6875 C-38.92355469 5.78386719 -39.65960938 4.88023438 -40.41796875 3.94921875 C-40.94003906 3.30597656 -41.46210937 2.66273437 -42 2 C-41.34 1.67 -40.68 1.34 -40 1 C-36.34170836 4.54743432 -32.97088523 8.26915157 -29.6484375 12.1328125 C-28.05809479 13.9865569 -28.05809479 13.9865569 -26.41796875 15.515625 C-24.88839566 17.11683099 -23.96513826 18.66957498 -22.9375 20.625 C-21.39458084 24.03314359 -21.39458084 24.03314359 -19 25 C-19 29.62 -19 34.24 -19 39 C-11.08 39 -3.16 39 5 39 C5 36.03 5 33.06 5 30 C5.23601018 27.33205879 5.48558768 24.6652762 5.75 22 C6.23672198 16.14427592 5.85545654 11.77331013 2.91015625 6.6015625 C2 5 2 5 2 3 C1.34 3 0.68 3 0 3 C0 2.01 0 1.02 0 0 Z " fill="#03453B" transform="translate(78,122)"/>
<path d="M0 0 C0.66 0 1.32 0 2 0 C2.12375 0.804375 2.2475 1.60875 2.375 2.4375 C2.58125 3.283125 2.7875 4.12875 3 5 C3.66 5.33 4.32 5.66 5 6 C5.125 12.75 5.125 12.75 4 15 C3.34 15 2.68 15 2 15 C2.07992187 15.73605469 2.15984375 16.47210938 2.2421875 17.23046875 C1.926359 20.8421205 0.72609201 21.8548846 -1.875 24.3125 C-2.59429687 25.00988281 -3.31359375 25.70726563 -4.0546875 26.42578125 C-6 28 -6 28 -8 28 C-8.125 25.125 -8.125 25.125 -8 22 C-7.34 21.34 -6.68 20.68 -6 20 C-5.35232207 17.42938689 -5.35232207 17.42938689 -5 15 C-5.99 15 -6.98 15 -8 15 C-8.4375 12.4375 -8.4375 12.4375 -8 9 C-6.35420164 6.96174203 -4.57785322 5.26377138 -2.62890625 3.515625 C-0.89299932 2.07781263 -0.89299932 2.07781263 0 0 Z " fill="#083A3C" transform="translate(103,43)"/>
<path d="M0 0 C1.32 0 2.64 0 4 0 C4.625 2.375 4.625 2.375 5 5 C4.34 5.66 3.68 6.32 3 7 C2.5342637 9.55867474 2.16515752 12.04687908 1.875 14.625 C1.78863281 15.33140625 1.70226562 16.0378125 1.61328125 16.765625 C1.40118817 18.50950141 1.19959009 20.2546484 1 22 C-0.32 21.67 -1.64 21.34 -3 21 C-3 20.34 -3 19.68 -3 19 C-3.99 19.66 -4.98 20.32 -6 21 C-8.6875 21.125 -8.6875 21.125 -11 21 C-10.6083965 15.04492601 -9.62875405 10.37180176 -7 5 C-5.35 5 -3.7 5 -2 5 C-1.34 3.35 -0.68 1.7 0 0 Z " fill="#23BC8C" transform="translate(159,64)"/>
<path d="M0 0 C0.66 2.31 1.32 4.62 2 7 C3.32 7 4.64 7 6 7 C8.22656164 11.74354436 9.46148032 15.72250715 10 21 C8.02 20.67 6.04 20.34 4 20 C4 20.66 4 21.32 4 22 C2.0625 22.5625 2.0625 22.5625 0 23 C-1.89004042 21.10995958 -1.65783582 17.91449974 -2 15.375 C-2.165 14.16585937 -2.33 12.95671875 -2.5 11.7109375 C-2.665 10.48632812 -2.83 9.26171875 -3 8 C-3.32907681 5.66603398 -3.66414337 3.33300408 -4 1 C-2 0 -2 0 0 0 Z " fill="#26C291" transform="translate(41,64)"/>
<path d="M0 0 C6.6 0 13.2 0 20 0 C20 19.14 20 38.28 20 58 C17.12469919 58.9584336 15.70950069 59.06656387 12.76953125 58.87890625 C11.96708984 58.83056641 11.16464844 58.78222656 10.33789062 58.73242188 C9.08782227 58.64831055 9.08782227 58.64831055 7.8125 58.5625 C6.96751953 58.51029297 6.12253906 58.45808594 5.25195312 58.40429688 C3.16763701 58.27476311 1.08376818 58.13806823 -1 58 C-1.02312883 50.58540058 -1.04091785 43.17080889 -1.05181217 35.75618076 C-1.05703982 32.31359652 -1.06413531 28.87103688 -1.07543945 25.4284668 C-1.08834235 21.47444957 -1.09322918 17.52044244 -1.09765625 13.56640625 C-1.10281754 12.32476212 -1.10797882 11.08311798 -1.11329651 9.80384827 C-1.11337204 8.66274094 -1.11344757 7.52163361 -1.11352539 6.34594727 C-1.115746 5.335569 -1.11796661 4.32519073 -1.12025452 3.28419495 C-1 1 -1 1 0 0 Z M0 1 C0 19.15 0 37.3 0 56 C6.27 56 12.54 56 19 56 C19 37.85 19 19.7 19 1 C12.73 1 6.46 1 0 1 Z " fill="#26A07E" transform="translate(118,38)"/>
<path d="M0 0 C7.26 0.33 14.52 0.66 22 1 C22 1.66 22 2.32 22 3 C15.4 3 8.8 3 2 3 C2 16.2 2 29.4 2 43 C8.27 43 14.54 43 21 43 C21 43.33 21 43.66 21 44 C14.4 44 7.8 44 1 44 C0.01 41.03 -0.98 38.06 -2 35 C-1.67 34.34 -1.34 33.68 -1 33 C-0.84373424 30.52167341 -0.74186802 28.06688669 -0.68359375 25.5859375 C-0.66281265 24.85629791 -0.64203156 24.12665833 -0.62062073 23.37490845 C-0.55518083 21.04170237 -0.49626632 18.70838279 -0.4375 16.375 C-0.39430947 14.79425905 -0.35069501 13.21352961 -0.30664062 11.6328125 C-0.19870631 7.75532303 -0.09959245 3.8777487 0 0 Z " fill="#23B387" transform="translate(61,52)"/>
<path d="M0 0 C0.33 0 0.66 0 1 0 C0.125 6.75 0.125 6.75 -1 9 C-1.09953815 11.53236768 -1.14108301 14.03057441 -1.125 16.5625 C-1.12306641 17.28179687 -1.12113281 18.00109375 -1.11914062 18.7421875 C-1.07739151 23.89124543 -0.72889234 28.8977536 0 34 C1.19496094 33.75443359 1.19496094 33.75443359 2.4140625 33.50390625 C6.76795599 32.89208462 10.9863942 32.89200409 15.375 32.9375 C16.62216797 32.94426758 16.62216797 32.94426758 17.89453125 32.95117188 C19.92971897 32.96286836 21.96486923 32.98080065 24 33 C24 28.71 24 24.42 24 20 C24.66 20 25.32 20 26 20 C26 24.95 26 29.9 26 35 C16.43 35 6.86 35 -3 35 C-3.061875 30.524375 -3.12375 26.04875 -3.1875 21.4375 C-3.21481201 20.03943115 -3.24212402 18.6413623 -3.27026367 17.20092773 C-3.31367089 10.71551596 -3.25960942 5.68934453 0 0 Z " fill="#013B35" transform="translate(117,127)"/>
<path d="M0 0 C2.97 0 5.94 0 9 0 C9 14.85 9 29.7 9 45 C6.03 45 3.06 45 0 45 C0 30.15 0 15.3 0 0 Z M1 1 C1 14.86 1 28.72 1 43 C2.98 43 4.96 43 7 43 C8.69196504 39.61606992 8.11986549 35.77522209 8.09765625 32.0546875 C8.09553383 30.72716965 8.09553383 30.72716965 8.09336853 29.37283325 C8.0877614 26.54018809 8.07520771 23.70762136 8.0625 20.875 C8.05748592 18.95703239 8.05292285 17.03906354 8.04882812 15.12109375 C8.03778966 10.41403218 8.02052025 5.7070294 8 1 C5.69 1 3.38 1 1 1 Z " fill="#2CBD92" transform="translate(123,44)"/>
<path d="M0 0 C2.31 0 4.62 0 7 0 C6.67 1.98 6.34 3.96 6 6 C6.66 6.33 7.32 6.66 8 7 C8 6.34 8 5.68 8 5 C8.66 5 9.32 5 10 5 C10.39010154 8.79112763 10.40881376 10.45987031 8.06640625 13.5546875 C7.24011719 14.32039063 6.41382812 15.08609375 5.5625 15.875 C4.73878906 16.65617187 3.91507812 17.43734375 3.06640625 18.2421875 C1 20 1 20 0 20 C-0.1875 17.1875 -0.1875 17.1875 0 14 C1.5 12.3125 1.5 12.3125 3 11 C3 10.01 3 9.02 3 8 C2.01 7.67 1.02 7.34 0 7 C0 4.69 0 2.38 0 0 Z " fill="#28B289" transform="translate(95,25)"/>
<path d="M0 0 C0.66 0.66 1.32 1.32 2 2 C2.33 1.34 2.66 0.68 3 0 C3.66 0 4.32 0 5 0 C2.23331545 9.40108116 -4.20041801 19.85943603 -11 27 C-11.99 27.33 -12.98 27.66 -14 28 C-13.43457707 24.22206016 -12.4109263 21.67643505 -10.3125 18.49609375 C-9.77882812 17.67302734 -9.24515625 16.84996094 -8.6953125 16.00195312 C-8.13585937 15.15568359 -7.57640625 14.30941406 -7 13.4375 C-5.89081078 11.75199242 -4.78643978 10.06330174 -3.6875 8.37109375 C-3.19636719 7.62786865 -2.70523438 6.88464355 -2.19921875 6.11889648 C-1.03213675 4.05678234 -0.44516764 2.31519905 0 0 Z " fill="#29B78C" transform="translate(158,94)"/>
<path d="M0 0 C0.99 0.33 1.98 0.66 3 1 C4.16796875 3.3984375 4.16796875 3.3984375 5.1875 6.375 C5.53167969 7.35210937 5.87585937 8.32921875 6.23046875 9.3359375 C7 12 7 12 7 15 C6.01 15 5.02 15 4 15 C4.33 15.99 4.66 16.98 5 18 C3.12434165 19.87565835 0.0216877 19.43313246 -2.5 19.625 C-4.27890625 19.76808594 -4.27890625 19.76808594 -6.09375 19.9140625 C-7.0528125 19.94242188 -8.011875 19.97078125 -9 20 C-10 19 -10 19 -10.0625 15.4375 C-10.041875 14.303125 -10.02125 13.16875 -10 12 C-9.4225 12.495 -8.845 12.99 -8.25 13.5 C-5.89599371 15.36980013 -5.89599371 15.36980013 -2 15 C-2 14.34 -2 13.68 -2 13 C0.97 13.495 0.97 13.495 4 14 C3.52188823 12.22888156 3.0424722 10.45811517 2.5625 8.6875 C2.29566406 7.70136719 2.02882813 6.71523437 1.75390625 5.69921875 C1.21920575 3.78482474 0.62855462 1.88566385 0 0 Z " fill="#18CA8D" transform="translate(47,71)"/>
<path d="M0 0 C0.99 0.33 1.98 0.66 3 1 C3.02698189 2.62490954 3.04638757 4.24994633 3.0625 5.875 C3.07410156 6.77992187 3.08570313 7.68484375 3.09765625 8.6171875 C3 11 3 11 2 13 C1.73559189 16.44097783 1.55540087 19.87548501 1.39453125 23.32226562 C1.10073855 28.89926145 1.10073855 28.89926145 0 30 C-0.15582303 31.34015221 -0.25044142 32.68758903 -0.31640625 34.03515625 C-0.35830078 34.84404297 -0.40019531 35.65292969 -0.44335938 36.48632812 C-0.48267578 37.33646484 -0.52199219 38.18660156 -0.5625 39.0625 C-0.60568359 39.91650391 -0.64886719 40.77050781 -0.69335938 41.65039062 C-0.79976702 43.76672037 -0.90041731 45.88333813 -1 48 C-1.66 48 -2.32 48 -3 48 C-3.495 50.475 -3.495 50.475 -4 53 C-4.99 53 -5.98 53 -7 53 C-6.52908936 51.85724609 -6.05817871 50.71449219 -5.57299805 49.53710938 C-3.94098509 45.17197639 -3.27977793 41.0256708 -2.83203125 36.40625 C-2.74749191 35.61528931 -2.66295258 34.82432861 -2.57585144 34.00939941 C-2.40047582 32.34939665 -2.23015241 30.68885292 -2.06469727 29.02783203 C-1.81304924 26.5055052 -1.54559127 23.98524398 -1.27539062 21.46484375 C-1.10584328 19.84124243 -0.93719336 18.21754709 -0.76953125 16.59375 C-0.6914473 15.85080688 -0.61336334 15.10786377 -0.53291321 14.34240723 C-0.05944568 9.53817306 0.06705149 4.82770719 0 0 Z " fill="#26AF87" transform="translate(176,63)"/>
<path d="M0 0 C1.52878777 2.29318165 2.61337635 4.2601441 3.73828125 6.73046875 C5.94820916 11.20034142 8.84705846 14.64426725 12.1875 18.3125 C13.34624459 19.6161285 14.50378918 20.92082459 15.66015625 22.2265625 C16.22621582 22.86239258 16.79227539 23.49822266 17.37548828 24.15332031 C21.04664452 28.3265433 24.54102185 32.65007293 28 37 C28.85658203 37.93005859 28.85658203 37.93005859 29.73046875 38.87890625 C31.53321731 41.89088307 31.29171988 44.27600386 31.1875 47.75 C31.16042969 48.92046875 31.13335937 50.0909375 31.10546875 51.296875 C31.07066406 52.18890625 31.03585938 53.0809375 31 54 C30.67 54 30.34 54 30 54 C30.020625 53.24976563 30.04125 52.49953125 30.0625 51.7265625 C29.86149778 41.75182708 25.921491 36.81637178 18.98828125 30.03125 C15.97298819 26.95079344 13.42124262 23.54286901 10.78125 20.140625 C9.65203125 18.70976563 9.65203125 18.70976563 8.5 17.25 C7.37078125 15.80367187 7.37078125 15.80367187 6.21875 14.328125 C4.04591858 11.63254399 4.04591858 11.63254399 0 11 C0 7.37 0 3.74 0 0 Z " fill="#27B389" transform="translate(26,107)"/>
<path d="M0 0 C2.5625 0.375 2.5625 0.375 4.125 1.80078125 C6.27972501 5.65937849 6.57952089 9.59283474 7.125 13.9375 C7.37250156 15.74105 7.62119113 17.54443738 7.87109375 19.34765625 C7.9882373 20.21406738 8.10538086 21.08047852 8.22607422 21.97314453 C9.04620639 27.82834071 10.0793022 33.6503769 11.5625 39.375 C10.9025 39.375 10.2425 39.375 9.5625 39.375 C9.5625 38.715 9.5625 38.055 9.5625 37.375 C8.9025 37.375 8.2425 37.375 7.5625 37.375 C7.43403687 36.20312134 7.43403687 36.20312134 7.30297852 35.00756836 C6.91149108 31.44241575 6.51826108 27.87745738 6.125 24.3125 C5.99029297 23.08337891 5.85558594 21.85425781 5.71679688 20.58789062 C5.08113394 14.83591627 4.43804573 9.09579882 3.5625 3.375 C1.5825 3.375 -0.3975 3.375 -2.4375 3.375 C-2.4375 9.975 -2.4375 16.575 -2.4375 23.375 C-2.7675 23.375 -3.0975 23.375 -3.4375 23.375 C-4.52509656 16.44157192 -5.02308306 9.38214642 -4.4375 2.375 C-2.4375 0.375 -2.4375 0.375 0 0 Z " fill="#014137" transform="translate(27.4375,60.625)"/>
<path d="M0 0 C0.33 1.32 0.66 2.64 1 4 C1.66 4 2.32 4 3 4 C2.67 5.98 2.34 7.96 2 10 C1.67 10 1.34 10 1 10 C0.690625 8.865625 0.38125 7.73125 0.0625 6.5625 C-0.62924531 3.21224901 -0.62924531 3.21224901 -2 2 C-4.5 1.83333333 -4.5 1.83333333 -7 2 C-8.72465012 3.72465012 -8.17252893 5.95605351 -8.1875 8.3125 C-8.14935537 15.2090484 -7.49204891 21.99405214 -6.71166992 28.84301758 C-6.14364322 33.93502541 -5.90564996 38.87561342 -6 44 C-8.8418075 38.69529266 -9.25392416 33.77238575 -9.5625 27.8125 C-9.6049585 27.02891113 -9.64741699 26.24532227 -9.69116211 25.43798828 C-10.09599142 17.29090026 -10.0928999 9.15454663 -10 1 C-6.78548731 -0.60725635 -3.56387464 -0.05748185 0 0 Z " fill="#26B087" transform="translate(32,60)"/>
<path d="M0 0 C2.97 0.495 2.97 0.495 6 1 C6.33 2.32 6.66 3.64 7 5 C9.64 4.67 12.28 4.34 15 4 C15.33 5.32 15.66 6.64 16 8 C10.72 8 5.44 8 0 8 C0 5.36 0 2.72 0 0 Z " fill="#102C39" transform="translate(92,85)"/>
<path d="M0 0 C0.5 2.5 0.5 2.5 0 6 C-2.36284905 9.01020496 -4.99876652 11.62553014 -8 14 C-8.66 14 -9.32 14 -10 14 C-10.5 11.5 -10.5 11.5 -10 8 C-3.72043011 0 -3.72043011 0 0 0 Z " fill="#25B488" transform="translate(105,57)"/>
<path d="M0 0 C5.5952381 0.5952381 5.5952381 0.5952381 8 3 C8.77233468 8.53506523 6.88941312 11.485292 4 16 C2.875 12.25 2.875 12.25 4 10 C4.66 10 5.32 10 6 10 C6 8.35 6 6.7 6 5 C4.02 4.34 2.04 3.68 0 3 C-0.33 3.66 -0.66 4.32 -1 5 C-0.34 5.33 0.32 5.66 1 6 C-3.75 9 -3.75 9 -6 9 C-6.33 9.99 -6.66 10.98 -7 12 C-7.66 11.67 -8.32 11.34 -9 11 C-7.68823998 9.35357683 -6.3755713 7.70787757 -5.0625 6.0625 C-4.33160156 5.14597656 -3.60070312 4.22945313 -2.84765625 3.28515625 C-1 1 -1 1 0 0 Z " fill="#04423B" transform="translate(150,89)"/>
<path d="M0 0 C0.66 0 1.32 0 2 0 C2.4375 3.125 2.4375 3.125 2 7 C0.35585719 8.8675776 -1.37092804 10.26341158 -3.37109375 11.73828125 C-5.14105662 12.92106765 -5.14105662 12.92106765 -6 15 C-6.66 15 -7.32 15 -8 15 C-8.4375 12.4375 -8.4375 12.4375 -8 9 C-6.35420164 6.96174203 -4.57785322 5.26377138 -2.62890625 3.515625 C-0.89299932 2.07781263 -0.89299932 2.07781263 0 0 Z " fill="#25B187" transform="translate(103,43)"/>
<path d="M0 0 C0.66 0 1.32 0 2 0 C2.39010154 3.79112763 2.40881376 5.45987031 0.06640625 8.5546875 C-0.75988281 9.32039063 -1.58617188 10.08609375 -2.4375 10.875 C-3.26121094 11.65617187 -4.08492188 12.43734375 -4.93359375 13.2421875 C-7 15 -7 15 -8 15 C-8.4375 11.875 -8.4375 11.875 -8 8 C-6.35585719 6.1324224 -4.62907196 4.73658842 -2.62890625 3.26171875 C-0.85894338 2.07893235 -0.85894338 2.07893235 0 0 Z " fill="#27B087" transform="translate(103,70)"/>
<path d="M0 0 C0.66 0 1.32 0 2 0 C1.47594437 6.69007182 0.89536075 13.3487487 0 20 C-1.32 19.67 -2.64 19.34 -4 19 C-3.71632132 16.76980273 -3.42272612 14.54086546 -3.125 12.3125 C-2.96257812 11.07113281 -2.80015625 9.82976562 -2.6328125 8.55078125 C-2.07521631 5.42204705 -1.30991877 2.87851898 0 0 Z " fill="#024239" transform="translate(160,66)"/>
<path d="M0 0 C3 2 3 2 3.94921875 5.40625 C4.20811863 6.76846168 4.45374719 8.13324859 4.6875 9.5 C4.81705078 10.18964844 4.94660156 10.87929687 5.08007812 11.58984375 C6 16.58370536 6 16.58370536 6 19 C4.68 19.33 3.36 19.66 2 20 C1.66131223 17.79248152 1.32928311 15.58394089 1 13.375 C0.814375 12.14523438 0.62875 10.91546875 0.4375 9.6484375 C0.04597484 6.3833973 -0.08080924 3.28287549 0 0 Z " fill="#014237" transform="translate(38,66)"/>
<path d="M0 0 C0.66 0.33 1.32 0.66 2 1 C1.43410156 1.90363281 0.86820313 2.80726562 0.28515625 3.73828125 C-0.4558918 4.92958635 -1.19676827 6.12099819 -1.9375 7.3125 C-2.31068359 7.90740234 -2.68386719 8.50230469 -3.06835938 9.11523438 C-4.68824194 11.72747744 -6.02407058 14.07221173 -7 17 C-5.02 15.68 -3.04 14.36 -1 13 C-1 15.31 -1 17.62 -1 20 C-4.73487777 19.5020163 -6.81237635 19.12508244 -10 17 C-9.731875 16.46761719 -9.46375 15.93523437 -9.1875 15.38671875 C-8.30034439 13.6036527 -7.42767769 11.81336435 -6.5625 10.01953125 C-6.046875 8.96121094 -5.53125 7.90289062 -5 6.8125 C-4.484375 5.74644531 -3.96875 4.68039063 -3.4375 3.58203125 C-2 1 -2 1 0 0 Z " fill="#053F3B" transform="translate(151,105)"/>
<path d="M0 0 C1 3 1 3 -0.6875 6.5625 C-2.47789204 9.5299664 -3.86260251 10.53588117 -7 12 C-8.28254644 14.53770003 -8.28254644 14.53770003 -9 17 C-9.99 17 -10.98 17 -12 17 C-12 17.66 -12 18.32 -12 19 C-13.98 19.99 -13.98 19.99 -16 21 C-14.70324932 18.1958531 -13.28546588 15.97199514 -11.25 13.65234375 C-10.46109375 12.74452148 -10.46109375 12.74452148 -9.65625 11.81835938 C-8.83640625 10.88733398 -8.83640625 10.88733398 -8 9.9375 C-6.91519268 8.69790296 -5.83180417 7.45706251 -4.75 6.21484375 C-4.27046875 5.66948975 -3.7909375 5.12413574 -3.296875 4.56225586 C-1.80388257 2.81919476 -1.80388257 2.81919476 0 0 Z " fill="#23B98B" transform="translate(168,117)"/>
<path d="M0 0 C0.66 0.66 1.32 1.32 2 2 C2.66 1.34 3.32 0.68 4 0 C3.47662174 8.35178073 2.92000449 16.6808105 2 25 C1.67 25 1.34 25 1 25 C1 18.73 1 12.46 1 6 C0.67 8.31 0.34 10.62 0 13 C-0.99 13.495 -0.99 13.495 -2 14 C-1.85866501 12.22880197 -1.71176792 10.45804713 -1.5625 8.6875 C-1.48128906 7.70136719 -1.40007812 6.71523437 -1.31640625 5.69921875 C-1 3 -1 3 0 0 Z " fill="#28B289" transform="translate(162,68)"/>
<path d="M0 0 C5.2291295 0.94295778 6.57149477 3.50910134 9.52734375 7.71875 C9.95144531 8.3684375 10.37554687 9.018125 10.8125 9.6875 C9.8225 9.6875 8.8325 9.6875 7.8125 9.6875 C6.60929102 8.1590994 5.40719635 6.62975137 4.21875 5.08984375 C2.03815049 2.91530146 -0.20999518 2.8259886 -3.1875 2.6875 C-3.5175 4.3375 -3.8475 5.9875 -4.1875 7.6875 C-3.5275 7.6875 -2.8675 7.6875 -2.1875 7.6875 C-2.1875 9.0075 -2.1875 10.3275 -2.1875 11.6875 C-1.5275 12.0175 -0.8675 12.3475 -0.1875 12.6875 C-1.1775 12.6875 -2.1675 12.6875 -3.1875 12.6875 C-5.63647847 9.01403229 -5.50287716 7.02393601 -5.1875 2.6875 C-3.1875 0.6875 -3.1875 0.6875 0 0 Z " fill="#03453B" transform="translate(47.1875,89.3125)"/>
<path d="M0 0 C2.31 0 4.62 0 7 0 C6.835 0.928125 6.67 1.85625 6.5 2.8125 C5.92251612 5.95621353 5.92251612 5.95621353 6 9 C5.01 9.495 5.01 9.495 4 10 C3.67 9.34 3.34 8.68 3 8 C2.01 7.67 1.02 7.34 0 7 C0 4.69 0 2.38 0 0 Z " fill="#1E7163" transform="translate(95,25)"/>
<path d="M0 0 C0.66 0 1.32 0 2 0 C2 0.66 2 1.32 2 2 C2.66 2 3.32 2 4 2 C5.82729049 3.93530766 7.46895378 5.99047623 9.1484375 8.0546875 C11.00597948 10.00628224 12.53471309 10.968272 15 12 C15 12.99 15 13.98 15 15 C16.32 15.66 17.64 16.32 19 17 C18.34 17.66 17.68 18.32 17 19 C16.48050781 18.46890625 15.96101563 17.9378125 15.42578125 17.390625 C11.04594414 12.93062762 11.04594414 12.93062762 6.25 8.9375 C3.21582433 6.32473762 1.84043773 3.54454674 0 0 Z " fill="#25B88B" transform="translate(62,104)"/>
<path d="M0 0 C1.010625 0.0825 2.02125 0.165 3.0625 0.25 C5.64110235 4.11790352 5.07364505 7.01613915 4.6875 11.4375 C4.63078125 12.18708984 4.5740625 12.93667969 4.515625 13.70898438 C4.37439331 15.55676559 4.21973833 17.403512 4.0625 19.25 C3.7325 19.25 3.4025 19.25 3.0625 19.25 C2.7325 13.64 2.4025 8.03 2.0625 2.25 C1.0725 2.25 0.0825 2.25 -0.9375 2.25 C-1.5975 3.9 -2.2575 5.55 -2.9375 7.25 C-3.5975 7.25 -4.2575 7.25 -4.9375 7.25 C-3.90723865 0.33253095 -3.90723865 0.33253095 0 0 Z " fill="#02453B" transform="translate(171.9375,60.75)"/>
<path d="M0 0 C0.99 0.33 1.98 0.66 3 1 C3.02698189 2.62490954 3.04638757 4.24994633 3.0625 5.875 C3.07410156 6.77992187 3.08570313 7.68484375 3.09765625 8.6171875 C3 11 3 11 2 13 C1.7677354 15.71262116 1.58063765 18.40773126 1.4375 21.125 C1.39431641 21.87910156 1.35113281 22.63320312 1.30664062 23.41015625 C1.2005168 25.27321888 1.09974999 27.13658524 1 29 C0.67 29 0.34 29 0 29 C0 19.43 0 9.86 0 0 Z " fill="#24BF8D" transform="translate(176,63)"/>
<path d="M0 0 C0.99 0.33 1.98 0.66 3 1 C2.34 1 1.68 1 1 1 C1.16371094 1.70511719 1.32742187 2.41023438 1.49609375 3.13671875 C2.01699824 6.09658688 2.09866732 8.81061273 2.0625 11.8125 C2.05347656 12.78832031 2.04445313 13.76414062 2.03515625 14.76953125 C2.02355469 15.50558594 2.01195312 16.24164063 2 17 C1.34 17 0.68 17 0 17 C-0.33951619 15.43883181 -0.67132544 13.87598662 -1 12.3125 C-1.185625 11.44238281 -1.37125 10.57226562 -1.5625 9.67578125 C-1.99575896 7.02593851 -2.21890003 4.67696494 -2 2 C-1.34 1.34 -0.68 0.68 0 0 Z " fill="#1FCA92" transform="translate(36,64)"/>
<path d="M0 0 C1.82472819 3.14380882 2.26553609 5.57625791 2.4375 9.1875 C2.77741378 13.8165076 3.70293928 17.7093277 5.30078125 22.05078125 C6.11939968 24.33285163 6.61428221 26.60854972 7 29 C2.38507063 24.7874557 0.95138584 19.34009824 0.48828125 13.28125 C0.41645627 11.68804146 0.35793671 10.09417935 0.3125 8.5 C0.27833984 7.67757812 0.24417969 6.85515625 0.20898438 6.0078125 C0.1275012 4.0056545 0.06205425 2.00285432 0 0 Z " fill="#03483C" transform="translate(25,89)"/>
<path d="M0 0 C6.93 0 13.86 0 21 0 C20.67 0.99 20.34 1.98 20 3 C13.4 2.67 6.8 2.34 0 2 C0 1.34 0 0.68 0 0 Z " fill="#1EB386" transform="translate(117,94)"/>
<path d="M0 0 C0 3.61697663 -0.91441717 4.56771995 -2.9375 7.5 C-6.34174781 12.9307765 -6.97594405 17.67328472 -7 24 C-7.33 24 -7.66 24 -8 24 C-9.22690583 11.06636771 -9.22690583 11.06636771 -6.21875 6 C-4.24506849 3.83173017 -2.26194545 1.86307561 0 0 Z " fill="#29B38A" transform="translate(151,138)"/>
<path d="M0 0 C0.33 0 0.66 0 1 0 C0.125 6.75 0.125 6.75 -1 9 C-1.15378852 10.95774069 -1.24971463 12.92017352 -1.31640625 14.8828125 C-1.35830078 16.04941406 -1.40019531 17.21601563 -1.44335938 18.41796875 C-1.48267578 19.64128906 -1.52199219 20.86460937 -1.5625 22.125 C-1.60568359 23.35605469 -1.64886719 24.58710938 -1.69335938 25.85546875 C-1.79968704 28.90352853 -1.90171781 31.9516719 -2 35 C-2.33 35 -2.66 35 -3 35 C-3.08751499 30.47928979 -3.1405661 25.9587993 -3.1875 21.4375 C-3.21263672 20.16068359 -3.23777344 18.88386719 -3.26367188 17.56835938 C-3.31517191 10.95918846 -3.32400207 5.8017359 0 0 Z " fill="#055442" transform="translate(117,127)"/>
<path d="M0 0 C0.33 0 0.66 0 1 0 C0.67 8.58 0.34 17.16 0 26 C-0.99 26.33 -1.98 26.66 -3 27 C-2.01 18.09 -1.02 9.18 0 0 Z " fill="#03453C" transform="translate(166,68)"/>
<path d="M0 0 C1.94158017 3.51624755 2.18311068 5.9715651 2 10 C2.66 10 3.32 10 4 10 C4 7.03 4 4.06 4 1 C4.33 1 4.66 1 5 1 C5.33 5.29 5.66 9.58 6 14 C5.34 13.67 4.68 13.34 4 13 C3.01 14.485 3.01 14.485 2 16 C0.5192152 13.0384304 0.64685963 10.16493705 0.4375 6.875 C0.35371094 5.59367187 0.26992188 4.31234375 0.18359375 2.9921875 C0.12300781 2.00476563 0.06242187 1.01734375 0 0 Z " fill="#26AF87" transform="translate(34,71)"/>
<path d="M0 0 C0.33 0.99 0.66 1.98 1 3 C-0.875 6.0625 -0.875 6.0625 -3 9 C-3.33 9.66 -3.66 10.32 -4 11 C-4.66 11 -5.32 11 -6 11 C-6 11.66 -6 12.32 -6 13 C-6.99 13.33 -7.98 13.66 -9 14 C-10.66710346 15.49985609 -10.66710346 15.49985609 -12 17 C-12.99 16.67 -13.98 16.34 -15 16 C-10.25 12 -10.25 12 -8 12 C-7.60167969 11.14148438 -7.60167969 11.14148438 -7.1953125 10.265625 C-5.94323109 7.8923988 -4.5063648 5.87786714 -2.875 3.75 C-2.06675781 2.69039063 -2.06675781 2.69039063 -1.2421875 1.609375 C-0.83226562 1.07828125 -0.42234375 0.5471875 0 0 Z " fill="#043D38" transform="translate(140,101)"/>
<path d="M0 0 C0.33 1.32 0.66 2.64 1 4 C-0.32 4.33 -1.64 4.66 -3 5 C-1.68 5.66 -0.36 6.32 1 7 C0.34 7 -0.32 7 -1 7 C-1.2475 7.598125 -1.495 8.19625 -1.75 8.8125 C-3.16370012 11.28647521 -4.65055383 12.43370255 -7 14 C-7 13.01 -7 12.02 -7 11 C-6.34 11 -5.68 11 -5 11 C-4.67 9.68 -4.34 8.36 -4 7 C-4.66 6.67 -5.32 6.34 -6 6 C-4.02 4.02 -2.04 2.04 0 0 Z " fill="#06423D" transform="translate(104,63)"/>
<path d="M0 0 C0.66 0 1.32 0 2 0 C1.68991116 1.60463449 1.37683713 3.20869231 1.0625 4.8125 C0.88847656 5.70582031 0.71445313 6.59914063 0.53515625 7.51953125 C0 10 0 10 -1 13 C-1.99 13 -2.98 13 -4 13 C-3.50269348 8.02693484 -2.44697666 4.36200187 0 0 Z " fill="#035340" transform="translate(153,71)"/>
<path d="M0 0 C0.99 0.33 1.98 0.66 3 1 C4.16796875 3.3984375 4.16796875 3.3984375 5.1875 6.375 C5.53167969 7.35210937 5.87585937 8.32921875 6.23046875 9.3359375 C7 12 7 12 7 15 C4.69 15 2.38 15 0 15 C1.32 14.67 2.64 14.34 4 14 C3.52188823 12.22888156 3.0424722 10.45811517 2.5625 8.6875 C2.29566406 7.70136719 2.02882812 6.71523437 1.75390625 5.69921875 C1.21920575 3.78482474 0.62855462 1.88566385 0 0 Z " fill="#20C991" transform="translate(47,71)"/>
<path d="M0 0 C0 3.51716303 -0.82445585 4.37121748 -3 7 C-2.34 7 -1.68 7 -1 7 C-2.36983503 10.16115776 -2.9890638 10.9927092 -6 13 C-6 11.68 -6 10.36 -6 9 C-6.66 8.67 -7.32 8.34 -8 8 C-5.36 5.36 -2.72 2.72 0 0 Z " fill="#03403A" transform="translate(104,36)"/>
<path d="M0 0 C0 2.31 0 4.62 0 7 C-1.98 7 -3.96 7 -6 7 C-6 5.02 -6 3.04 -6 1 C-1.125 0 -1.125 0 0 0 Z " fill="#217B69" transform="translate(105,82)"/>
<path d="M0 0 C0.66 0 1.32 0 2 0 C4.02055843 4.39251833 5.40895235 8.15340923 6 13 C5.01 13 4.02 13 3 13 C2.49487756 11.39743892 1.99608373 9.79288208 1.5 8.1875 C1.2215625 7.29417969 0.943125 6.40085937 0.65625 5.48046875 C0 3 0 3 0 0 Z " fill="#02503C" transform="translate(45,71)"/>
<path d="M0 0 C0.99 0.33 1.98 0.66 3 1 C-0.72037577 6.61463303 -3.89717081 10.07064199 -10 13 C-10.33 12.01 -10.66 11.02 -11 10 C-8.69 9.34 -6.38 8.68 -4 8 C-4.33 7.01 -4.66 6.02 -5 5 C-4.360625 4.731875 -3.72125 4.46375 -3.0625 4.1875 C-0.66868314 3.11332248 -0.66868314 3.11332248 0 0 Z " fill="#27BC8E" transform="translate(135,104)"/>
<path d="M0 0 C0.33 0.99 0.66 1.98 1 3 C0 5 0 5 -2 5.75 C-4.36247285 6.90165132 -4.36247285 6.90165132 -4.75 10.125 C-4.8325 11.07375 -4.915 12.0225 -5 13 C-3.68 13.33 -2.36 13.66 -1 14 C-2.65 14 -4.3 14 -6 14 C-6 12.68 -6 11.36 -6 10 C-6.66 10 -7.32 10 -8 10 C-6.34908222 5.70761377 -3.26245434 3.1206085 0 0 Z " fill="#043E3B" transform="translate(104,76)"/>
<path d="M0 0 C0.66 0.33 1.32 0.66 2 1 C-3.445 7.435 -3.445 7.435 -9 14 C-9.33 13.34 -9.66 12.68 -10 12 C-9.34 11.01 -8.68 10.02 -8 9 C-7.34 9 -6.68 9 -6 9 C-5.7525 8.071875 -5.505 7.14375 -5.25 6.1875 C-3.93545755 2.83541675 -3.02036616 1.8122197 0 0 Z " fill="#014138" transform="translate(163,121)"/>
<path d="M0 0 C2.0625 0.4375 2.0625 0.4375 4 1 C3.360625 1.28875 2.72125 1.5775 2.0625 1.875 C-0.15206079 2.82823451 -0.15206079 2.82823451 -1 5 C-0.34 5.33 0.32 5.66 1 6 C-3.75 9 -3.75 9 -6 9 C-6.33 9.99 -6.66 10.98 -7 12 C-7.66 11.67 -8.32 11.34 -9 11 C-7.68823998 9.35357683 -6.3755713 7.70787757 -5.0625 6.0625 C-4.33160156 5.14597656 -3.60070312 4.22945313 -2.84765625 3.28515625 C-1 1 -1 1 0 0 Z " fill="#084A42" transform="translate(150,89)"/>
<path d="M0 0 C0.66 0 1.32 0 2 0 C2 2.97 2 5.94 2 9 C-0.31 8.67 -2.62 8.34 -5 8 C-5 7.34 -5 6.68 -5 6 C-3.68 5.67 -2.36 5.34 -1 5 C-0.67 3.35 -0.34 1.7 0 0 Z " fill="#122A39" transform="translate(106,62)"/>
<path d="M0 0 C1.65 0.33 3.3 0.66 5 1 C5 2.32 5 3.64 5 5 C4.360625 5.12375 3.72125 5.2475 3.0625 5.375 C2.0415625 5.684375 2.0415625 5.684375 1 6 C0.67 6.66 0.34 7.32 0 8 C-1.125 6.25 -1.125 6.25 -2 4 C-1.125 1.75 -1.125 1.75 0 0 Z " fill="#0E2E38" transform="translate(93,44)"/>
<path d="M0 0 C1.32 0.33 2.64 0.66 4 1 C2.54300902 2.79275845 1.08436345 4.58417229 -0.375 6.375 C-1.18710938 7.37273437 -1.99921875 8.37046875 -2.8359375 9.3984375 C-5 12 -5 12 -7 14 C-7 12.68 -7 11.36 -7 10 C-6.34 10 -5.68 10 -5 10 C-5 9.01 -5 8.02 -5 7 C-3.68799596 5.64567325 -2.35368596 4.31266518 -1 3 C-0.67 2.01 -0.34 1.02 0 0 Z " fill="#27BE8F" transform="translate(146,89)"/>
<path d="M0 0 C1.4606285 2.64738916 2 3.89448334 2 7 C2.99 7.33 3.98 7.66 5 8 C2.03 7.505 2.03 7.505 -1 7 C-1 7.66 -1 8.32 -1 9 C-2.32 9.33 -3.64 9.66 -5 10 C-4.67 9.34 -4.34 8.68 -4 8 C-3.34 8 -2.68 8 -2 8 C-2.33 6.35 -2.66 4.7 -3 3 C-2.01 3 -1.02 3 0 3 C0 2.01 0 1.02 0 0 Z " fill="#22B085" transform="translate(46,77)"/>
<path d="M0 0 C0.66 0.33 1.32 0.66 2 1 C0.71284028 2.64936048 -0.57987019 4.29439047 -1.875 5.9375 C-2.95394531 7.31228516 -2.95394531 7.31228516 -4.0546875 8.71484375 C-6 11 -6 11 -8 12 C-7.4238322 8.11086736 -5.43876197 5.98945016 -3 3 C-3 2.34 -3 1.68 -3 1 C-2.01 0.67 -1.02 0.34 0 0 Z " fill="#033E37" transform="translate(151,135)"/>
<path d="M0 0 C0.66 0 1.32 0 2 0 C2 1.65 2 3.3 2 5 C3.98 5 5.96 5 8 5 C8 5.99 8 6.98 8 8 C4.33118845 7.29445932 1.29549466 5.72264494 -2 4 C-1.34 2.68 -0.68 1.36 0 0 Z " fill="#12D08E" transform="translate(154,83)"/>
<path d="M0 0 C0.66 0 1.32 0 2 0 C1.67 3.96 1.34 7.92 1 12 C0.67 10.68 0.34 9.36 0 8 C-0.66 8 -1.32 8 -2 8 C-1.125 2.25 -1.125 2.25 0 0 Z " fill="#034F3E" transform="translate(160,66)"/>
<path d="M0 0 C7.48291572 6.15034169 7.48291572 6.15034169 10 10 C9.01 10 8.02 10 7 10 C7 9.34 7 8.68 7 8 C6.01 8.33 5.02 8.66 4 9 C0 2.25 0 2.25 0 0 Z " fill="#034138" transform="translate(64,108)"/>
<path d="M0 0 C3 2 3 2 3.6875 4.625 C3.8421875 5.800625 3.8421875 5.800625 4 7 C3.34 7 2.68 7 2 7 C2 8.98 2 10.96 2 13 C1.67 13 1.34 13 1 13 C0.67 8.71 0.34 4.42 0 0 Z " fill="#02513E" transform="translate(38,66)"/>
<path d="M0 0 C0.33 0 0.66 0 1 0 C1.13277344 0.74765625 1.26554687 1.4953125 1.40234375 2.265625 C1.57894531 3.25046875 1.75554688 4.2353125 1.9375 5.25 C2.19853516 6.71179688 2.19853516 6.71179688 2.46484375 8.203125 C2.90379729 10.49721795 3.40348592 12.74291971 4 15 C3.34 15 2.68 15 2 15 C2 14.34 2 13.68 2 13 C1.34 13 0.68 13 0 13 C0 8.71 0 4.42 0 0 Z " fill="#064A42" transform="translate(35,85)"/>
<path d="M0 0 C2.69082872 0.17635452 5.32851446 0.61835921 8 1 C7.67 1.66 7.34 2.32 7 3 C5.02 3 3.04 3 1 3 C0.34 4.98 -0.32 6.96 -1 9 C-1.33 9 -1.66 9 -2 9 C-1.125 1.125 -1.125 1.125 0 0 Z " fill="#25B98B" transform="translate(168,59)"/>
<path d="M0 0 C0.99 0.33 1.98 0.66 3 1 C2.34 3.97 1.68 6.94 1 10 C0.34 9.67 -0.32 9.34 -1 9 C-1.125 2.25 -1.125 2.25 0 0 Z " fill="#112B39" transform="translate(93,57)"/>
<path d="M0 0 C0.66 0.33 1.32 0.66 2 1 C2.125 7.75 2.125 7.75 1 10 C0.34 10 -0.32 10 -1 10 C-2.46726798 6.18510326 -1.43336419 3.70988378 0 0 Z " fill="#0E2D3B" transform="translate(106,48)"/>
<path d="M0 0 C0.66 0 1.32 0 2 0 C2 1.98 2 3.96 2 6 C1.01 6.495 1.01 6.495 0 7 C0 6.01 0 5.02 0 4 C-1.65 4.66 -3.3 5.32 -5 6 C-3.38405168 3.95880212 -1.7143618 1.95927063 0 0 Z " fill="#27A07F" transform="translate(103,57)"/>
<path d="M0 0 C4.875 4.625 4.875 4.625 6 8 C5.34 8 4.68 8 4 8 C3.67 7.34 3.34 6.68 3 6 C1.68 6.33 0.36 6.66 -1 7 C-2 4 -2 4 -1.0625 1.8125 C-0.5365625 0.9153125 -0.5365625 0.9153125 0 0 Z " fill="#083F3F" transform="translate(58,100)"/>
<path d="M0 0 C1.98 0 3.96 0 6 0 C6.33 1.32 6.66 2.64 7 4 C7.66 4 8.32 4 9 4 C8.67 5.98 8.34 7.96 8 10 C7.67 10 7.34 10 7 10 C6.6596875 8.329375 6.6596875 8.329375 6.3125 6.625 C5.39376342 2.83961627 5.39376342 2.83961627 2.375 1.5625 C1.59125 1.376875 0.8075 1.19125 0 1 C0 0.67 0 0.34 0 0 Z " fill="#21B487" transform="translate(26,60)"/>
<path d="M0 0 C0.33 0.66 0.66 1.32 1 2 C0.00390625 3.9453125 0.00390625 3.9453125 -1.4375 6.125 C-1.91058594 6.84945312 -2.38367188 7.57390625 -2.87109375 8.3203125 C-3.24363281 8.87460938 -3.61617187 9.42890625 -4 10 C-4.66 9.67 -5.32 9.34 -6 9 C-4.02 6.03 -2.04 3.06 0 0 Z " fill="#04463D" transform="translate(156,107)"/>
<path d="M0 0 C0.99 0.33 1.98 0.66 3 1 C4.1577506 4.47325181 4.06866652 7.36067448 4 11 C2.03698408 7.49461443 1.04097612 3.86648272 0 0 Z " fill="#26B88A" transform="translate(47,71)"/>
<path d="M0 0 C0.33 2.31 0.66 4.62 1 7 C0.01 5.68 -0.98 4.36 -2 3 C-2.66 3.99 -3.32 4.98 -4 6 C-4 4.35 -4 2.7 -4 1 C-2 0 -2 0 0 0 Z " fill="#1EB686" transform="translate(41,64)"/>
<path d="M0 0 C0.33 0.66 0.66 1.32 1 2 C0.67 2.66 0.34 3.32 0 4 C0.66 4.33 1.32 4.66 2 5 C1.01 6.485 1.01 6.485 0 8 C-0.66 8 -1.32 8 -2 8 C-2.125 5.125 -2.125 5.125 -2 2 C-1.34 1.34 -0.68 0.68 0 0 Z " fill="#2BA483" transform="translate(97,50)"/>
<path d="M0 0 C0.33 0 0.66 0 1 0 C0.125 6.75 0.125 6.75 -1 9 C-1.66 9 -2.32 9 -3 9 C-2.01 6.03 -1.02 3.06 0 0 Z " fill="#04453C" transform="translate(117,127)"/>
<path d="M0 0 C2.56616632 3.84924948 2.55097676 6.4349304 3 11 C2.01 11 1.02 11 0 11 C0 7.37 0 3.74 0 0 Z " fill="#21C28F" transform="translate(26,107)"/>
<path d="M0 0 C0.66 0.99 1.32 1.98 2 3 C1.01 3.33 0.02 3.66 -1 4 C-2.66710346 5.49985609 -2.66710346 5.49985609 -4 7 C-4.99 6.67 -5.98 6.34 -7 6 C-2.25 2 -2.25 2 0 2 C0 1.34 0 0.68 0 0 Z " fill="#054A40" transform="translate(132,111)"/>
<path d="M0 0 C1.32 0.33 2.64 0.66 4 1 C4.33 2.65 4.66 4.3 5 6 C4.01 6.495 4.01 6.495 3 7 C0 2.25 0 2.25 0 0 Z " fill="#07403F" transform="translate(46,103)"/>
</svg>
